{"glyphs":{"0":{"ha":814,"x_min":75,"x_max":739,"o":"m 407 -22 q 225 35 299 -22 q 113 206 151 93 q 75 486 75 319 q 113 766 75 653 q 225 937 151 879 q 407 994 299 994 q 590 937 515 994 q 701 766 664 879 q 739 486 739 653 q 701 206 739 319 q 590 35 664 93 q 407 -22 515 -22 m 407 32 q 570 85 503 32 q 673 239 638 138 q 708 486 708 340 q 673 733 708 632 q 570 888 638 835 q 407 940 503 940 q 244 888 313 940 q 141 733 176 835 q 106 486 106 632 q 141 239 106 340 q 244 85 176 138 q 407 32 313 32 z "},"1":{"ha":518,"x_min":58,"x_max":460,"o":"m 71 0 l 71 50 q 108 50 90 50 q 139 50 126 50 q 214 51 197 50 q 236 58 231 53 q 244 74 242 63 q 249 115 247 85 q 251 208 250 146 q 251 376 251 269 q 251 624 251 528 q 251 774 251 719 q 249 854 250 829 q 248 887 249 879 q 244 897 247 894 q 238 904 243 901 q 218 907 232 907 q 164 901 201 907 q 58 885 126 896 l 58 931 l 285 971 q 285 674 285 822 q 285 376 285 525 q 285 208 285 269 q 288 115 286 146 q 292 74 289 85 q 300 58 294 63 q 323 51 307 53 q 392 50 339 50 q 423 50 404 50 q 460 50 442 50 l 460 0 l 71 0 z "},"2":{"ha":728,"x_min":83,"x_max":635,"o":"m 83 0 l 83 86 q 99 196 83 149 q 145 282 114 243 q 226 359 176 321 q 347 443 276 397 q 497 560 447 508 q 563 654 547 611 q 579 738 579 697 q 511 888 579 835 q 332 942 443 942 q 219 929 272 942 q 124 894 165 917 l 124 958 q 220 986 169 978 q 314 994 271 994 q 480 963 413 994 q 582 875 547 932 q 617 740 617 818 q 608 677 617 719 q 565 581 600 635 q 447 469 529 526 q 284 353 347 400 q 186 270 221 307 q 138 196 151 233 q 125 106 125 158 q 130 67 125 79 q 156 53 135 56 q 228 51 176 51 q 364 51 311 51 q 455 51 417 51 q 534 51 493 51 q 635 51 575 51 l 635 0 l 83 0 z "},"3":{"ha":686,"x_min":75,"x_max":624,"o":"m 75 15 l 75 78 q 172 43 117 56 q 301 31 226 31 q 515 97 440 31 q 589 274 589 164 q 559 378 589 329 q 473 458 529 428 q 338 489 417 489 q 259 489 290 489 q 189 486 228 489 l 189 532 q 261 530 228 531 q 321 529 294 529 q 453 562 400 529 q 533 644 506 594 q 560 743 560 694 q 490 890 560 839 q 318 942 421 942 q 199 928 254 942 q 103 894 144 915 l 103 958 q 201 985 149 976 q 307 994 253 994 q 460 964 396 994 q 558 878 524 933 q 593 747 593 824 q 566 631 593 688 q 479 536 539 575 q 459 522 465 526 q 453 514 453 517 q 460 506 453 510 q 479 496 468 501 q 560 438 528 474 q 608 357 592 401 q 624 263 624 313 q 587 116 624 181 q 475 15 550 51 q 286 -22 400 -22 q 174 -12 226 -22 q 75 15 121 -3 z "},"4":{"ha":840,"x_min":92,"x_max":708,"o":"m 551 0 q 555 124 554 79 q 556 196 556 168 q 557 249 557 224 q 557 313 557 274 l 92 313 l 92 472 q 218 628 172 551 q 286 773 264 706 q 315 892 308 840 q 321 972 321 943 l 367 972 q 362 909 367 953 q 339 804 357 865 q 281 668 321 743 q 169 510 240 593 q 138 472 147 485 q 127 447 129 458 q 125 414 125 436 q 129 386 125 396 q 156 371 133 376 q 228 365 178 365 q 372 364 279 364 q 451 364 408 364 q 557 364 494 364 q 557 464 557 424 q 557 538 557 504 q 556 607 557 571 q 554 693 556 643 q 551 819 553 743 l 594 819 q 592 692 593 743 q 591 606 592 642 q 590 537 590 569 q 590 464 590 504 q 590 364 590 424 l 708 364 l 708 313 l 590 313 q 590 249 590 274 q 591 195 590 224 q 592 122 592 167 q 594 0 593 78 l 551 0 z "},"5":{"ha":575,"x_min":15,"x_max":569,"o":"m 239 -10 q 126 0 192 -10 q 15 28 61 10 l 15 90 q 122 56 57 68 q 254 43 188 43 q 419 76 357 43 q 508 164 481 110 q 535 278 535 218 q 497 406 535 353 q 393 486 460 458 q 239 514 326 514 q 167 509 207 514 q 92 497 126 504 q 36 485 57 490 l 36 972 l 513 972 l 513 919 q 401 919 449 919 q 315 919 353 919 q 245 919 276 919 q 185 919 214 919 q 103 917 121 919 q 79 907 86 915 q 73 891 75 901 q 70 848 71 881 q 69 743 69 815 q 69 637 69 675 q 70 581 69 599 q 72 560 71 564 q 76 553 74 556 q 82 551 79 551 q 90 550 85 550 q 111 551 99 550 q 138 554 124 553 q 174 558 154 557 q 215 560 194 560 q 253 561 235 561 q 424 524 353 561 q 532 422 494 486 q 569 278 569 358 q 535 135 569 200 q 428 30 501 69 q 239 -10 356 -10 z "},"6":{"ha":794,"x_min":75,"x_max":719,"o":"m 649 914 q 584 931 626 921 q 486 940 542 940 q 363 923 431 940 q 236 842 296 906 q 172 746 196 799 q 134 640 147 693 q 116 543 121 588 q 111 472 111 499 q 119 460 111 460 q 132 471 126 460 q 245 585 176 544 q 401 625 314 625 q 576 583 506 625 q 683 469 647 542 q 719 301 719 396 q 681 136 719 210 q 572 20 643 63 q 400 -22 500 -22 q 284 -4 340 -22 q 182 56 228 14 q 108 171 136 99 q 76 351 81 243 q 75 397 75 382 q 75 431 75 413 q 75 467 75 449 q 76 503 75 485 q 99 656 81 579 q 156 801 118 733 q 254 918 194 869 q 330 965 292 949 q 408 988 368 981 q 485 994 447 994 q 582 986 542 994 q 649 971 622 978 l 649 914 m 117 313 q 193 110 117 186 q 399 33 269 33 q 547 65 482 33 q 651 157 613 97 q 689 301 689 217 q 613 497 689 424 q 401 569 538 569 q 256 540 321 569 q 154 452 192 510 q 117 313 117 394 z "},"7":{"ha":656,"x_min":75,"x_max":607,"o":"m 244 0 q 258 218 244 118 q 306 410 272 318 q 399 592 340 501 q 549 783 458 683 q 567 815 564 801 q 569 850 569 828 q 568 892 569 882 q 561 907 567 901 q 547 915 557 911 q 514 919 538 918 q 442 922 490 921 q 310 922 393 922 q 197 922 249 922 q 75 922 144 922 l 75 972 l 607 972 l 607 789 q 445 604 508 696 q 348 417 382 513 q 301 218 314 321 q 288 0 288 115 l 244 0 z "},"8":{"ha":778,"x_min":75,"x_max":703,"o":"m 389 -22 q 233 10 304 -22 q 118 105 161 42 q 75 261 75 168 q 99 369 75 317 q 167 463 122 422 q 275 522 213 504 q 153 615 190 554 q 117 747 117 675 q 144 863 117 807 q 231 956 171 919 q 389 993 290 993 q 547 956 488 993 q 634 863 607 919 q 661 747 661 807 q 625 615 661 675 q 503 522 589 554 q 611 463 567 504 q 679 369 656 422 q 703 261 703 317 q 660 105 703 168 q 546 10 617 42 q 389 -22 475 -22 m 389 33 q 553 68 492 33 q 642 156 614 103 q 669 261 669 208 q 655 340 669 299 q 607 418 640 382 q 520 477 574 454 q 389 500 467 500 q 258 477 311 500 q 171 418 204 454 q 123 340 138 382 q 108 261 108 299 q 136 156 108 208 q 226 68 164 103 q 389 33 288 33 m 389 542 q 530 572 478 542 q 605 648 582 601 q 628 746 628 694 q 603 840 628 796 q 525 911 578 883 q 389 939 472 939 q 250 911 303 939 q 174 840 197 883 q 150 746 150 796 q 173 648 150 694 q 248 572 196 601 q 389 542 300 542 z "},"9":{"ha":794,"x_min":75,"x_max":719,"o":"m 146 51 q 210 35 168 44 q 308 25 253 25 q 431 42 364 25 q 558 124 499 60 q 623 219 599 167 q 660 325 647 272 q 678 422 674 378 q 683 493 683 467 q 675 506 683 506 q 663 494 668 506 q 549 381 618 422 q 393 340 481 340 q 219 382 290 340 q 111 497 147 424 q 75 664 75 571 q 113 830 75 757 q 224 945 151 903 q 394 988 296 988 q 510 969 454 988 q 613 909 567 951 q 686 794 658 867 q 718 614 714 722 q 719 568 719 583 q 719 535 719 553 q 719 499 719 517 q 718 463 719 482 q 695 309 714 386 q 639 165 676 232 q 540 47 601 97 q 465 1 504 18 q 388 -22 426 -15 q 310 -29 349 -29 q 213 -21 254 -29 q 146 -6 172 -12 l 146 51 m 678 653 q 601 856 678 779 q 396 932 525 932 q 248 900 314 932 q 144 808 182 868 q 106 664 106 749 q 181 469 106 542 q 393 396 257 396 q 539 426 475 396 q 640 513 603 456 q 678 653 678 571 z "},"A":{"ha":800,"x_min":75,"x_max":725,"o":"m 75 0 q 117 324 100 161 q 148 649 135 486 q 171 972 161 811 l 629 972 q 653 649 640 811 q 683 324 665 486 q 725 0 700 161 l 679 0 q 676 56 679 11 q 668 151 674 101 q 656 235 663 197 q 643 281 650 274 q 631 288 639 285 q 601 294 624 292 q 531 297 578 296 q 400 297 483 297 q 269 297 317 297 q 199 294 222 296 q 169 288 176 292 q 157 281 161 285 q 144 235 150 274 q 132 151 138 197 q 124 56 126 101 q 121 0 121 11 l 75 0 m 400 338 q 535 338 486 338 q 606 342 583 339 q 635 354 629 346 q 640 378 640 363 q 636 473 640 407 q 622 643 632 539 q 609 791 614 738 q 601 869 604 844 q 595 900 597 893 q 589 910 593 907 q 573 915 585 914 q 523 917 561 917 q 400 918 485 918 q 277 917 315 918 q 228 915 239 917 q 211 910 217 914 q 205 900 207 907 q 199 869 203 893 q 191 791 196 844 q 178 643 186 738 q 164 473 168 539 q 160 378 160 407 q 165 354 160 363 q 194 342 171 346 q 265 338 217 339 q 400 338 314 338 z "},"Á":{"ha":800,"x_min":75,"x_max":725,"o":"m 75 0 q 117 324 100 161 q 148 649 135 486 q 171 972 161 811 l 629 972 q 653 649 640 811 q 683 324 665 486 q 725 0 700 161 l 679 0 q 676 56 679 11 q 668 151 674 101 q 656 235 663 197 q 643 281 650 274 q 631 288 639 285 q 601 294 624 292 q 531 297 578 296 q 400 297 483 297 q 269 297 317 297 q 199 294 222 296 q 169 288 176 292 q 157 281 161 285 q 144 235 150 274 q 132 151 138 197 q 124 56 126 101 q 121 0 121 11 l 75 0 m 400 338 q 535 338 486 338 q 606 342 583 339 q 635 354 629 346 q 640 378 640 363 q 636 473 640 407 q 622 643 632 539 q 609 791 614 738 q 601 869 604 844 q 595 900 597 893 q 589 910 593 907 q 573 915 585 914 q 523 917 561 917 q 400 918 485 918 q 277 917 315 918 q 228 915 239 917 q 211 910 217 914 q 205 900 207 907 q 199 869 203 893 q 191 791 196 844 q 178 643 186 738 q 164 473 168 539 q 160 378 160 407 q 165 354 160 363 q 194 342 171 346 q 265 338 217 339 q 400 338 314 338 m 382 1071 l 431 1199 l 501 1199 l 425 1071 l 382 1071 z "},"Ă":{"ha":800,"x_min":75,"x_max":725,"o":"m 75 0 q 117 324 100 161 q 148 649 135 486 q 171 972 161 811 l 629 972 q 653 649 640 811 q 683 324 665 486 q 725 0 700 161 l 679 0 q 676 56 679 11 q 668 151 674 101 q 656 235 663 197 q 643 281 650 274 q 631 288 639 285 q 601 294 624 292 q 531 297 578 296 q 400 297 483 297 q 269 297 317 297 q 199 294 222 296 q 169 288 176 292 q 157 281 161 285 q 144 235 150 274 q 132 151 138 197 q 124 56 126 101 q 121 0 121 11 l 75 0 m 400 338 q 535 338 486 338 q 606 342 583 339 q 635 354 629 346 q 640 378 640 363 q 636 473 640 407 q 622 643 632 539 q 609 791 614 738 q 601 869 604 844 q 595 900 597 893 q 589 910 593 907 q 573 915 585 914 q 523 917 561 917 q 400 918 485 918 q 277 917 315 918 q 228 915 239 917 q 211 910 217 914 q 205 900 207 907 q 199 869 203 893 q 191 791 196 844 q 178 643 186 738 q 164 473 168 539 q 160 378 160 407 q 165 354 160 363 q 194 342 171 346 q 265 338 217 339 q 400 338 314 338 m 400 1071 q 339 1085 365 1071 q 297 1128 313 1100 q 282 1197 282 1157 l 340 1197 q 355 1128 340 1151 q 400 1104 369 1104 q 445 1128 431 1104 q 460 1197 460 1151 l 518 1197 q 503 1128 518 1157 q 461 1085 488 1100 q 400 1071 435 1071 z "},"Ắ":{"ha":800,"x_min":75,"x_max":725,"o":"m 75 0 q 117 324 100 161 q 148 649 135 486 q 171 972 161 811 l 629 972 q 653 649 640 811 q 683 324 665 486 q 725 0 700 161 l 679 0 q 676 56 679 11 q 668 151 674 101 q 656 235 663 197 q 643 281 650 274 q 631 288 639 285 q 601 294 624 292 q 531 297 578 296 q 400 297 483 297 q 269 297 317 297 q 199 294 222 296 q 169 288 176 292 q 157 281 161 285 q 144 235 150 274 q 132 151 138 197 q 124 56 126 101 q 121 0 121 11 l 75 0 m 400 338 q 535 338 486 338 q 606 342 583 339 q 635 354 629 346 q 640 378 640 363 q 636 473 640 407 q 622 643 632 539 q 609 791 614 738 q 601 869 604 844 q 595 900 597 893 q 589 910 593 907 q 573 915 585 914 q 523 917 561 917 q 400 918 485 918 q 277 917 315 918 q 228 915 239 917 q 211 910 217 914 q 205 900 207 907 q 199 869 203 893 q 191 791 196 844 q 178 643 186 738 q 164 473 168 539 q 160 378 160 407 q 165 354 160 363 q 194 342 171 346 q 265 338 217 339 q 400 338 314 338 m 400 1071 q 339 1085 365 1071 q 297 1128 313 1100 q 282 1197 282 1157 l 340 1197 q 355 1128 340 1151 q 400 1104 369 1104 q 445 1128 431 1104 q 460 1197 460 1151 l 518 1197 q 503 1128 518 1157 q 461 1085 488 1100 q 400 1071 435 1071 m 382 1279 l 431 1407 l 501 1407 l 425 1279 l 382 1279 z "},"Ặ":{"ha":800,"x_min":75,"x_max":725,"o":"m 75 0 q 117 324 100 161 q 148 649 135 486 q 171 972 161 811 l 629 972 q 653 649 640 811 q 683 324 665 486 q 725 0 700 161 l 679 0 q 676 56 679 11 q 668 151 674 101 q 656 235 663 197 q 643 281 650 274 q 631 288 639 285 q 601 294 624 292 q 531 297 578 296 q 400 297 483 297 q 269 297 317 297 q 199 294 222 296 q 169 288 176 292 q 157 281 161 285 q 144 235 150 274 q 132 151 138 197 q 124 56 126 101 q 121 0 121 11 l 75 0 m 400 338 q 535 338 486 338 q 606 342 583 339 q 635 354 629 346 q 640 378 640 363 q 636 473 640 407 q 622 643 632 539 q 609 791 614 738 q 601 869 604 844 q 595 900 597 893 q 589 910 593 907 q 573 915 585 914 q 523 917 561 917 q 400 918 485 918 q 277 917 315 918 q 228 915 239 917 q 211 910 217 914 q 205 900 207 907 q 199 869 203 893 q 191 791 196 844 q 178 643 186 738 q 164 473 168 539 q 160 378 160 407 q 165 354 160 363 q 194 342 171 346 q 265 338 217 339 q 400 338 314 338 m 400 -242 q 351 -186 351 -242 q 365 -144 351 -158 q 400 -131 378 -131 q 435 -144 422 -131 q 449 -186 449 -158 q 435 -228 449 -214 q 400 -242 422 -242 m 400 1071 q 339 1085 365 1071 q 297 1128 313 1100 q 282 1197 282 1157 l 340 1197 q 355 1128 340 1151 q 400 1104 369 1104 q 445 1128 431 1104 q 460 1197 460 1151 l 518 1197 q 503 1128 518 1157 q 461 1085 488 1100 q 400 1071 435 1071 z "},"Ằ":{"ha":800,"x_min":75,"x_max":725,"o":"m 75 0 q 117 324 100 161 q 148 649 135 486 q 171 972 161 811 l 629 972 q 653 649 640 811 q 683 324 665 486 q 725 0 700 161 l 679 0 q 676 56 679 11 q 668 151 674 101 q 656 235 663 197 q 643 281 650 274 q 631 288 639 285 q 601 294 624 292 q 531 297 578 296 q 400 297 483 297 q 269 297 317 297 q 199 294 222 296 q 169 288 176 292 q 157 281 161 285 q 144 235 150 274 q 132 151 138 197 q 124 56 126 101 q 121 0 121 11 l 75 0 m 400 338 q 535 338 486 338 q 606 342 583 339 q 635 354 629 346 q 640 378 640 363 q 636 473 640 407 q 622 643 632 539 q 609 791 614 738 q 601 869 604 844 q 595 900 597 893 q 589 910 593 907 q 573 915 585 914 q 523 917 561 917 q 400 918 485 918 q 277 917 315 918 q 228 915 239 917 q 211 910 217 914 q 205 900 207 907 q 199 869 203 893 q 191 791 196 844 q 178 643 186 738 q 164 473 168 539 q 160 378 160 407 q 165 354 160 363 q 194 342 171 346 q 265 338 217 339 q 400 338 314 338 m 400 1071 q 339 1085 365 1071 q 297 1128 313 1100 q 282 1197 282 1157 l 340 1197 q 355 1128 340 1151 q 400 1104 369 1104 q 445 1128 431 1104 q 460 1197 460 1151 l 518 1197 q 503 1128 518 1157 q 461 1085 488 1100 q 400 1071 435 1071 m 375 1279 l 299 1407 l 369 1407 l 418 1279 l 375 1279 z "},"Ẳ":{"ha":800,"x_min":75,"x_max":725,"o":"m 75 0 q 117 324 100 161 q 148 649 135 486 q 171 972 161 811 l 629 972 q 653 649 640 811 q 683 324 665 486 q 725 0 700 161 l 679 0 q 676 56 679 11 q 668 151 674 101 q 656 235 663 197 q 643 281 650 274 q 631 288 639 285 q 601 294 624 292 q 531 297 578 296 q 400 297 483 297 q 269 297 317 297 q 199 294 222 296 q 169 288 176 292 q 157 281 161 285 q 144 235 150 274 q 132 151 138 197 q 124 56 126 101 q 121 0 121 11 l 75 0 m 400 338 q 535 338 486 338 q 606 342 583 339 q 635 354 629 346 q 640 378 640 363 q 636 473 640 407 q 622 643 632 539 q 609 791 614 738 q 601 869 604 844 q 595 900 597 893 q 589 910 593 907 q 573 915 585 914 q 523 917 561 917 q 400 918 485 918 q 277 917 315 918 q 228 915 239 917 q 211 910 217 914 q 205 900 207 907 q 199 869 203 893 q 191 791 196 844 q 178 643 186 738 q 164 473 168 539 q 160 378 160 407 q 165 354 160 363 q 194 342 171 346 q 265 338 217 339 q 400 338 314 338 m 400 1071 q 339 1085 365 1071 q 297 1128 313 1100 q 282 1197 282 1157 l 340 1197 q 355 1128 340 1151 q 400 1104 369 1104 q 445 1128 431 1104 q 460 1197 460 1151 l 518 1197 q 503 1128 518 1157 q 461 1085 488 1100 q 400 1071 435 1071 m 389 1249 l 375 1278 q 408 1306 396 1292 q 421 1335 421 1319 q 378 1368 421 1368 q 333 1363 360 1368 l 333 1418 q 358 1424 346 1422 q 382 1425 371 1425 q 440 1407 415 1425 q 465 1353 465 1389 q 444 1292 465 1318 q 389 1249 424 1265 z "},"Ẵ":{"ha":800,"x_min":75,"x_max":725,"o":"m 75 0 q 117 324 100 161 q 148 649 135 486 q 171 972 161 811 l 629 972 q 653 649 640 811 q 683 324 665 486 q 725 0 700 161 l 679 0 q 676 56 679 11 q 668 151 674 101 q 656 235 663 197 q 643 281 650 274 q 631 288 639 285 q 601 294 624 292 q 531 297 578 296 q 400 297 483 297 q 269 297 317 297 q 199 294 222 296 q 169 288 176 292 q 157 281 161 285 q 144 235 150 274 q 132 151 138 197 q 124 56 126 101 q 121 0 121 11 l 75 0 m 400 338 q 535 338 486 338 q 606 342 583 339 q 635 354 629 346 q 640 378 640 363 q 636 473 640 407 q 622 643 632 539 q 609 791 614 738 q 601 869 604 844 q 595 900 597 893 q 589 910 593 907 q 573 915 585 914 q 523 917 561 917 q 400 918 485 918 q 277 917 315 918 q 228 915 239 917 q 211 910 217 914 q 205 900 207 907 q 199 869 203 893 q 191 791 196 844 q 178 643 186 738 q 164 473 168 539 q 160 378 160 407 q 165 354 160 363 q 194 342 171 346 q 265 338 217 339 q 400 338 314 338 m 400 1071 q 339 1085 365 1071 q 297 1128 313 1100 q 282 1197 282 1157 l 340 1197 q 355 1128 340 1151 q 400 1104 369 1104 q 445 1128 431 1104 q 460 1197 460 1151 l 518 1197 q 503 1128 518 1157 q 461 1085 488 1100 q 400 1071 435 1071 m 451 1288 q 419 1301 432 1288 q 394 1329 406 1315 q 380 1348 388 1340 q 365 1356 372 1356 q 349 1344 357 1356 q 340 1289 340 1333 l 282 1289 q 298 1366 282 1338 q 349 1394 314 1394 q 382 1381 368 1394 q 406 1353 396 1368 q 420 1335 413 1343 q 435 1326 428 1326 q 451 1338 443 1326 q 460 1393 460 1349 l 518 1393 q 503 1317 518 1346 q 451 1288 488 1288 z "},"Ǎ":{"ha":800,"x_min":75,"x_max":725,"o":"m 75 0 q 117 324 100 161 q 148 649 135 486 q 171 972 161 811 l 629 972 q 653 649 640 811 q 683 324 665 486 q 725 0 700 161 l 679 0 q 676 56 679 11 q 668 151 674 101 q 656 235 663 197 q 643 281 650 274 q 631 288 639 285 q 601 294 624 292 q 531 297 578 296 q 400 297 483 297 q 269 297 317 297 q 199 294 222 296 q 169 288 176 292 q 157 281 161 285 q 144 235 150 274 q 132 151 138 197 q 124 56 126 101 q 121 0 121 11 l 75 0 m 400 338 q 535 338 486 338 q 606 342 583 339 q 635 354 629 346 q 640 378 640 363 q 636 473 640 407 q 622 643 632 539 q 609 791 614 738 q 601 869 604 844 q 595 900 597 893 q 589 910 593 907 q 573 915 585 914 q 523 917 561 917 q 400 918 485 918 q 277 917 315 918 q 228 915 239 917 q 211 910 217 914 q 205 900 207 907 q 199 869 203 893 q 191 791 196 844 q 178 643 186 738 q 164 473 168 539 q 160 378 160 407 q 165 354 160 363 q 194 342 171 346 q 265 338 217 339 q 400 338 314 338 m 363 1071 l 297 1200 l 340 1200 q 372 1149 363 1164 q 388 1131 382 1133 q 400 1128 393 1128 q 413 1131 408 1128 q 428 1149 418 1133 q 460 1200 438 1164 l 503 1200 l 438 1071 l 363 1071 z "},"Â":{"ha":800,"x_min":75,"x_max":725,"o":"m 75 0 q 117 324 100 161 q 148 649 135 486 q 171 972 161 811 l 629 972 q 653 649 640 811 q 683 324 665 486 q 725 0 700 161 l 679 0 q 676 56 679 11 q 668 151 674 101 q 656 235 663 197 q 643 281 650 274 q 631 288 639 285 q 601 294 624 292 q 531 297 578 296 q 400 297 483 297 q 269 297 317 297 q 199 294 222 296 q 169 288 176 292 q 157 281 161 285 q 144 235 150 274 q 132 151 138 197 q 124 56 126 101 q 121 0 121 11 l 75 0 m 400 338 q 535 338 486 338 q 606 342 583 339 q 635 354 629 346 q 640 378 640 363 q 636 473 640 407 q 622 643 632 539 q 609 791 614 738 q 601 869 604 844 q 595 900 597 893 q 589 910 593 907 q 573 915 585 914 q 523 917 561 917 q 400 918 485 918 q 277 917 315 918 q 228 915 239 917 q 211 910 217 914 q 205 900 207 907 q 199 869 203 893 q 191 791 196 844 q 178 643 186 738 q 164 473 168 539 q 160 378 160 407 q 165 354 160 363 q 194 342 171 346 q 265 338 217 339 q 400 338 314 338 m 297 1069 l 363 1199 l 438 1199 l 503 1069 l 460 1069 q 428 1121 438 1106 q 413 1139 418 1136 q 400 1142 408 1142 q 388 1139 393 1142 q 372 1121 382 1136 q 340 1069 363 1106 l 297 1069 z "},"Ấ":{"ha":800,"x_min":75,"x_max":725,"o":"m 75 0 q 117 324 100 161 q 148 649 135 486 q 171 972 161 811 l 629 972 q 653 649 640 811 q 683 324 665 486 q 725 0 700 161 l 679 0 q 676 56 679 11 q 668 151 674 101 q 656 235 663 197 q 643 281 650 274 q 631 288 639 285 q 601 294 624 292 q 531 297 578 296 q 400 297 483 297 q 269 297 317 297 q 199 294 222 296 q 169 288 176 292 q 157 281 161 285 q 144 235 150 274 q 132 151 138 197 q 124 56 126 101 q 121 0 121 11 l 75 0 m 400 338 q 535 338 486 338 q 606 342 583 339 q 635 354 629 346 q 640 378 640 363 q 636 473 640 407 q 622 643 632 539 q 609 791 614 738 q 601 869 604 844 q 595 900 597 893 q 589 910 593 907 q 573 915 585 914 q 523 917 561 917 q 400 918 485 918 q 277 917 315 918 q 228 915 239 917 q 211 910 217 914 q 205 900 207 907 q 199 869 203 893 q 191 791 196 844 q 178 643 186 738 q 164 473 168 539 q 160 378 160 407 q 165 354 160 363 q 194 342 171 346 q 265 338 217 339 q 400 338 314 338 m 297 1069 l 363 1199 l 438 1199 l 503 1069 l 460 1069 q 428 1121 438 1106 q 413 1139 418 1136 q 400 1142 408 1142 q 388 1139 393 1142 q 372 1121 382 1136 q 340 1069 363 1106 l 297 1069 m 513 1207 l 561 1335 l 632 1335 l 556 1207 l 513 1207 z "},"Ậ":{"ha":800,"x_min":75,"x_max":725,"o":"m 75 0 q 117 324 100 161 q 148 649 135 486 q 171 972 161 811 l 629 972 q 653 649 640 811 q 683 324 665 486 q 725 0 700 161 l 679 0 q 676 56 679 11 q 668 151 674 101 q 656 235 663 197 q 643 281 650 274 q 631 288 639 285 q 601 294 624 292 q 531 297 578 296 q 400 297 483 297 q 269 297 317 297 q 199 294 222 296 q 169 288 176 292 q 157 281 161 285 q 144 235 150 274 q 132 151 138 197 q 124 56 126 101 q 121 0 121 11 l 75 0 m 400 338 q 535 338 486 338 q 606 342 583 339 q 635 354 629 346 q 640 378 640 363 q 636 473 640 407 q 622 643 632 539 q 609 791 614 738 q 601 869 604 844 q 595 900 597 893 q 589 910 593 907 q 573 915 585 914 q 523 917 561 917 q 400 918 485 918 q 277 917 315 918 q 228 915 239 917 q 211 910 217 914 q 205 900 207 907 q 199 869 203 893 q 191 791 196 844 q 178 643 186 738 q 164 473 168 539 q 160 378 160 407 q 165 354 160 363 q 194 342 171 346 q 265 338 217 339 q 400 338 314 338 m 407 -217 q 358 -161 358 -217 q 372 -119 358 -133 q 407 -106 385 -106 q 442 -119 429 -106 q 456 -161 456 -133 q 442 -203 456 -189 q 407 -217 429 -217 m 297 1069 l 363 1199 l 438 1199 l 503 1069 l 460 1069 q 428 1121 438 1106 q 413 1139 418 1136 q 400 1142 408 1142 q 388 1139 393 1142 q 372 1121 382 1136 q 340 1069 363 1106 l 297 1069 z "},"Ầ":{"ha":800,"x_min":75,"x_max":725,"o":"m 75 0 q 117 324 100 161 q 148 649 135 486 q 171 972 161 811 l 629 972 q 653 649 640 811 q 683 324 665 486 q 725 0 700 161 l 679 0 q 676 56 679 11 q 668 151 674 101 q 656 235 663 197 q 643 281 650 274 q 631 288 639 285 q 601 294 624 292 q 531 297 578 296 q 400 297 483 297 q 269 297 317 297 q 199 294 222 296 q 169 288 176 292 q 157 281 161 285 q 144 235 150 274 q 132 151 138 197 q 124 56 126 101 q 121 0 121 11 l 75 0 m 400 338 q 535 338 486 338 q 606 342 583 339 q 635 354 629 346 q 640 378 640 363 q 636 473 640 407 q 622 643 632 539 q 609 791 614 738 q 601 869 604 844 q 595 900 597 893 q 589 910 593 907 q 573 915 585 914 q 523 917 561 917 q 400 918 485 918 q 277 917 315 918 q 228 915 239 917 q 211 910 217 914 q 205 900 207 907 q 199 869 203 893 q 191 791 196 844 q 178 643 186 738 q 164 473 168 539 q 160 378 160 407 q 165 354 160 363 q 194 342 171 346 q 265 338 217 339 q 400 338 314 338 m 297 1069 l 363 1199 l 438 1199 l 503 1069 l 460 1069 q 428 1121 438 1106 q 413 1139 418 1136 q 400 1142 408 1142 q 388 1139 393 1142 q 372 1121 382 1136 q 340 1069 363 1106 l 297 1069 m 535 1207 l 458 1335 l 529 1335 l 578 1207 l 535 1207 z "},"Ẩ":{"ha":800,"x_min":75,"x_max":725,"o":"m 75 0 q 117 324 100 161 q 148 649 135 486 q 171 972 161 811 l 629 972 q 653 649 640 811 q 683 324 665 486 q 725 0 700 161 l 679 0 q 676 56 679 11 q 668 151 674 101 q 656 235 663 197 q 643 281 650 274 q 631 288 639 285 q 601 294 624 292 q 531 297 578 296 q 400 297 483 297 q 269 297 317 297 q 199 294 222 296 q 169 288 176 292 q 157 281 161 285 q 144 235 150 274 q 132 151 138 197 q 124 56 126 101 q 121 0 121 11 l 75 0 m 400 338 q 535 338 486 338 q 606 342 583 339 q 635 354 629 346 q 640 378 640 363 q 636 473 640 407 q 622 643 632 539 q 609 791 614 738 q 601 869 604 844 q 595 900 597 893 q 589 910 593 907 q 573 915 585 914 q 523 917 561 917 q 400 918 485 918 q 277 917 315 918 q 228 915 239 917 q 211 910 217 914 q 205 900 207 907 q 199 869 203 893 q 191 791 196 844 q 178 643 186 738 q 164 473 168 539 q 160 378 160 407 q 165 354 160 363 q 194 342 171 346 q 265 338 217 339 q 400 338 314 338 m 297 1069 l 363 1199 l 438 1199 l 503 1069 l 460 1069 q 428 1121 438 1106 q 413 1139 418 1136 q 400 1142 408 1142 q 388 1139 393 1142 q 372 1121 382 1136 q 340 1069 363 1106 l 297 1069 m 531 1176 l 517 1206 q 550 1233 538 1219 q 563 1263 563 1247 q 519 1296 563 1296 q 475 1290 501 1296 l 475 1346 q 500 1351 488 1350 q 524 1353 513 1353 q 582 1335 557 1353 q 607 1281 607 1317 q 586 1219 607 1246 q 531 1176 565 1193 z "},"Ẫ":{"ha":800,"x_min":75,"x_max":725,"o":"m 75 0 q 117 324 100 161 q 148 649 135 486 q 171 972 161 811 l 629 972 q 653 649 640 811 q 683 324 665 486 q 725 0 700 161 l 679 0 q 676 56 679 11 q 668 151 674 101 q 656 235 663 197 q 643 281 650 274 q 631 288 639 285 q 601 294 624 292 q 531 297 578 296 q 400 297 483 297 q 269 297 317 297 q 199 294 222 296 q 169 288 176 292 q 157 281 161 285 q 144 235 150 274 q 132 151 138 197 q 124 56 126 101 q 121 0 121 11 l 75 0 m 400 338 q 535 338 486 338 q 606 342 583 339 q 635 354 629 346 q 640 378 640 363 q 636 473 640 407 q 622 643 632 539 q 609 791 614 738 q 601 869 604 844 q 595 900 597 893 q 589 910 593 907 q 573 915 585 914 q 523 917 561 917 q 400 918 485 918 q 277 917 315 918 q 228 915 239 917 q 211 910 217 914 q 205 900 207 907 q 199 869 203 893 q 191 791 196 844 q 178 643 186 738 q 164 473 168 539 q 160 378 160 407 q 165 354 160 363 q 194 342 171 346 q 265 338 217 339 q 400 338 314 338 m 297 1069 l 363 1199 l 438 1199 l 503 1069 l 460 1069 q 428 1121 438 1106 q 413 1139 418 1136 q 400 1142 408 1142 q 388 1139 393 1142 q 372 1121 382 1136 q 340 1069 363 1106 l 297 1069 m 451 1288 q 419 1301 432 1288 q 394 1329 406 1315 q 380 1348 388 1340 q 365 1356 372 1356 q 349 1344 357 1356 q 340 1289 340 1333 l 282 1289 q 298 1366 282 1338 q 349 1394 314 1394 q 382 1381 368 1394 q 406 1353 396 1368 q 420 1335 413 1343 q 435 1326 428 1326 q 451 1338 443 1326 q 460 1393 460 1349 l 518 1393 q 503 1317 518 1346 q 451 1288 488 1288 z "},"Ȁ":{"ha":800,"x_min":75,"x_max":725,"o":"m 75 0 q 117 324 100 161 q 148 649 135 486 q 171 972 161 811 l 629 972 q 653 649 640 811 q 683 324 665 486 q 725 0 700 161 l 679 0 q 676 56 679 11 q 668 151 674 101 q 656 235 663 197 q 643 281 650 274 q 631 288 639 285 q 601 294 624 292 q 531 297 578 296 q 400 297 483 297 q 269 297 317 297 q 199 294 222 296 q 169 288 176 292 q 157 281 161 285 q 144 235 150 274 q 132 151 138 197 q 124 56 126 101 q 121 0 121 11 l 75 0 m 400 338 q 535 338 486 338 q 606 342 583 339 q 635 354 629 346 q 640 378 640 363 q 636 473 640 407 q 622 643 632 539 q 609 791 614 738 q 601 869 604 844 q 595 900 597 893 q 589 910 593 907 q 573 915 585 914 q 523 917 561 917 q 400 918 485 918 q 277 917 315 918 q 228 915 239 917 q 211 910 217 914 q 205 900 207 907 q 199 869 203 893 q 191 791 196 844 q 178 643 186 738 q 164 473 168 539 q 160 378 160 407 q 165 354 160 363 q 194 342 171 346 q 265 338 217 339 q 400 338 314 338 m 463 1069 l 386 1197 l 457 1197 l 506 1069 l 463 1069 m 317 1069 l 240 1197 l 311 1197 l 360 1069 l 317 1069 z "},"Ä":{"ha":800,"x_min":75,"x_max":725,"o":"m 75 0 q 117 324 100 161 q 148 649 135 486 q 171 972 161 811 l 629 972 q 653 649 640 811 q 683 324 665 486 q 725 0 700 161 l 679 0 q 676 56 679 11 q 668 151 674 101 q 656 235 663 197 q 643 281 650 274 q 631 288 639 285 q 601 294 624 292 q 531 297 578 296 q 400 297 483 297 q 269 297 317 297 q 199 294 222 296 q 169 288 176 292 q 157 281 161 285 q 144 235 150 274 q 132 151 138 197 q 124 56 126 101 q 121 0 121 11 l 75 0 m 400 338 q 535 338 486 338 q 606 342 583 339 q 635 354 629 346 q 640 378 640 363 q 636 473 640 407 q 622 643 632 539 q 609 791 614 738 q 601 869 604 844 q 595 900 597 893 q 589 910 593 907 q 573 915 585 914 q 523 917 561 917 q 400 918 485 918 q 277 917 315 918 q 228 915 239 917 q 211 910 217 914 q 205 900 207 907 q 199 869 203 893 q 191 791 196 844 q 178 643 186 738 q 164 473 168 539 q 160 378 160 407 q 165 354 160 363 q 194 342 171 346 q 265 338 217 339 q 400 338 314 338 m 301 1078 q 253 1133 253 1078 q 266 1175 253 1161 q 301 1189 279 1189 q 337 1175 324 1189 q 350 1133 350 1161 q 337 1092 350 1106 q 301 1078 324 1078 m 504 1078 q 456 1133 456 1078 q 469 1175 456 1161 q 504 1189 482 1189 q 540 1175 526 1189 q 553 1133 553 1161 q 540 1092 553 1106 q 504 1078 526 1078 z "},"Ǟ":{"ha":800,"x_min":75,"x_max":725,"o":"m 75 0 q 117 324 100 161 q 148 649 135 486 q 171 972 161 811 l 629 972 q 653 649 640 811 q 683 324 665 486 q 725 0 700 161 l 679 0 q 676 56 679 11 q 668 151 674 101 q 656 235 663 197 q 643 281 650 274 q 631 288 639 285 q 601 294 624 292 q 531 297 578 296 q 400 297 483 297 q 269 297 317 297 q 199 294 222 296 q 169 288 176 292 q 157 281 161 285 q 144 235 150 274 q 132 151 138 197 q 124 56 126 101 q 121 0 121 11 l 75 0 m 400 338 q 535 338 486 338 q 606 342 583 339 q 635 354 629 346 q 640 378 640 363 q 636 473 640 407 q 622 643 632 539 q 609 791 614 738 q 601 869 604 844 q 595 900 597 893 q 589 910 593 907 q 573 915 585 914 q 523 917 561 917 q 400 918 485 918 q 277 917 315 918 q 228 915 239 917 q 211 910 217 914 q 205 900 207 907 q 199 869 203 893 q 191 791 196 844 q 178 643 186 738 q 164 473 168 539 q 160 378 160 407 q 165 354 160 363 q 194 342 171 346 q 265 338 217 339 q 400 338 314 338 m 301 1078 q 253 1133 253 1078 q 266 1175 253 1161 q 301 1189 279 1189 q 337 1175 324 1189 q 350 1133 350 1161 q 337 1092 350 1106 q 301 1078 324 1078 m 504 1078 q 456 1133 456 1078 q 469 1175 456 1161 q 504 1189 482 1189 q 540 1175 526 1189 q 553 1133 553 1161 q 540 1092 553 1106 q 504 1078 526 1078 m 258 1292 l 258 1346 q 313 1344 289 1344 q 358 1342 338 1343 q 399 1342 379 1342 q 440 1342 419 1342 q 486 1344 461 1343 q 542 1346 511 1344 l 542 1292 q 486 1294 511 1293 q 440 1295 461 1294 q 397 1296 418 1296 q 358 1295 378 1296 q 313 1294 338 1294 q 258 1292 289 1293 z "},"Ȧ":{"ha":800,"x_min":75,"x_max":725,"o":"m 75 0 q 117 324 100 161 q 148 649 135 486 q 171 972 161 811 l 629 972 q 653 649 640 811 q 683 324 665 486 q 725 0 700 161 l 679 0 q 676 56 679 11 q 668 151 674 101 q 656 235 663 197 q 643 281 650 274 q 631 288 639 285 q 601 294 624 292 q 531 297 578 296 q 400 297 483 297 q 269 297 317 297 q 199 294 222 296 q 169 288 176 292 q 157 281 161 285 q 144 235 150 274 q 132 151 138 197 q 124 56 126 101 q 121 0 121 11 l 75 0 m 400 338 q 535 338 486 338 q 606 342 583 339 q 635 354 629 346 q 640 378 640 363 q 636 473 640 407 q 622 643 632 539 q 609 791 614 738 q 601 869 604 844 q 595 900 597 893 q 589 910 593 907 q 573 915 585 914 q 523 917 561 917 q 400 918 485 918 q 277 917 315 918 q 228 915 239 917 q 211 910 217 914 q 205 900 207 907 q 199 869 203 893 q 191 791 196 844 q 178 643 186 738 q 164 473 168 539 q 160 378 160 407 q 165 354 160 363 q 194 342 171 346 q 265 338 217 339 q 400 338 314 338 m 400 1075 q 351 1131 351 1075 q 365 1172 351 1158 q 400 1186 378 1186 q 435 1172 422 1186 q 449 1131 449 1158 q 435 1089 449 1103 q 400 1075 422 1075 z "},"Ạ":{"ha":800,"x_min":75,"x_max":725,"o":"m 75 0 q 117 324 100 161 q 148 649 135 486 q 171 972 161 811 l 629 972 q 653 649 640 811 q 683 324 665 486 q 725 0 700 161 l 679 0 q 676 56 679 11 q 668 151 674 101 q 656 235 663 197 q 643 281 650 274 q 631 288 639 285 q 601 294 624 292 q 531 297 578 296 q 400 297 483 297 q 269 297 317 297 q 199 294 222 296 q 169 288 176 292 q 157 281 161 285 q 144 235 150 274 q 132 151 138 197 q 124 56 126 101 q 121 0 121 11 l 75 0 m 400 338 q 535 338 486 338 q 606 342 583 339 q 635 354 629 346 q 640 378 640 363 q 636 473 640 407 q 622 643 632 539 q 609 791 614 738 q 601 869 604 844 q 595 900 597 893 q 589 910 593 907 q 573 915 585 914 q 523 917 561 917 q 400 918 485 918 q 277 917 315 918 q 228 915 239 917 q 211 910 217 914 q 205 900 207 907 q 199 869 203 893 q 191 791 196 844 q 178 643 186 738 q 164 473 168 539 q 160 378 160 407 q 165 354 160 363 q 194 342 171 346 q 265 338 217 339 q 400 338 314 338 m 400 -242 q 351 -186 351 -242 q 365 -144 351 -158 q 400 -131 378 -131 q 435 -144 422 -131 q 449 -186 449 -158 q 435 -228 449 -214 q 400 -242 422 -242 z "},"Ǡ":{"ha":800,"x_min":75,"x_max":725,"o":"m 75 0 q 117 324 100 161 q 148 649 135 486 q 171 972 161 811 l 629 972 q 653 649 640 811 q 683 324 665 486 q 725 0 700 161 l 679 0 q 676 56 679 11 q 668 151 674 101 q 656 235 663 197 q 643 281 650 274 q 631 288 639 285 q 601 294 624 292 q 531 297 578 296 q 400 297 483 297 q 269 297 317 297 q 199 294 222 296 q 169 288 176 292 q 157 281 161 285 q 144 235 150 274 q 132 151 138 197 q 124 56 126 101 q 121 0 121 11 l 75 0 m 400 338 q 535 338 486 338 q 606 342 583 339 q 635 354 629 346 q 640 378 640 363 q 636 473 640 407 q 622 643 632 539 q 609 791 614 738 q 601 869 604 844 q 595 900 597 893 q 589 910 593 907 q 573 915 585 914 q 523 917 561 917 q 400 918 485 918 q 277 917 315 918 q 228 915 239 917 q 211 910 217 914 q 205 900 207 907 q 199 869 203 893 q 191 791 196 844 q 178 643 186 738 q 164 473 168 539 q 160 378 160 407 q 165 354 160 363 q 194 342 171 346 q 265 338 217 339 q 400 338 314 338 m 400 1075 q 351 1131 351 1075 q 365 1172 351 1158 q 400 1186 378 1186 q 435 1172 422 1186 q 449 1131 449 1158 q 435 1089 449 1103 q 400 1075 422 1075 m 258 1292 l 258 1346 q 313 1344 289 1344 q 358 1342 338 1343 q 399 1342 379 1342 q 440 1342 419 1342 q 486 1344 461 1343 q 542 1346 511 1344 l 542 1292 q 486 1294 511 1293 q 440 1295 461 1294 q 397 1296 418 1296 q 358 1295 378 1296 q 313 1294 338 1294 q 258 1292 289 1293 z "},"À":{"ha":800,"x_min":75,"x_max":725,"o":"m 75 0 q 117 324 100 161 q 148 649 135 486 q 171 972 161 811 l 629 972 q 653 649 640 811 q 683 324 665 486 q 725 0 700 161 l 679 0 q 676 56 679 11 q 668 151 674 101 q 656 235 663 197 q 643 281 650 274 q 631 288 639 285 q 601 294 624 292 q 531 297 578 296 q 400 297 483 297 q 269 297 317 297 q 199 294 222 296 q 169 288 176 292 q 157 281 161 285 q 144 235 150 274 q 132 151 138 197 q 124 56 126 101 q 121 0 121 11 l 75 0 m 400 338 q 535 338 486 338 q 606 342 583 339 q 635 354 629 346 q 640 378 640 363 q 636 473 640 407 q 622 643 632 539 q 609 791 614 738 q 601 869 604 844 q 595 900 597 893 q 589 910 593 907 q 573 915 585 914 q 523 917 561 917 q 400 918 485 918 q 277 917 315 918 q 228 915 239 917 q 211 910 217 914 q 205 900 207 907 q 199 869 203 893 q 191 791 196 844 q 178 643 186 738 q 164 473 168 539 q 160 378 160 407 q 165 354 160 363 q 194 342 171 346 q 265 338 217 339 q 400 338 314 338 m 375 1071 l 299 1199 l 369 1199 l 418 1071 l 375 1071 z "},"Ả":{"ha":800,"x_min":75,"x_max":725,"o":"m 75 0 q 117 324 100 161 q 148 649 135 486 q 171 972 161 811 l 629 972 q 653 649 640 811 q 683 324 665 486 q 725 0 700 161 l 679 0 q 676 56 679 11 q 668 151 674 101 q 656 235 663 197 q 643 281 650 274 q 631 288 639 285 q 601 294 624 292 q 531 297 578 296 q 400 297 483 297 q 269 297 317 297 q 199 294 222 296 q 169 288 176 292 q 157 281 161 285 q 144 235 150 274 q 132 151 138 197 q 124 56 126 101 q 121 0 121 11 l 75 0 m 400 338 q 535 338 486 338 q 606 342 583 339 q 635 354 629 346 q 640 378 640 363 q 636 473 640 407 q 622 643 632 539 q 609 791 614 738 q 601 869 604 844 q 595 900 597 893 q 589 910 593 907 q 573 915 585 914 q 523 917 561 917 q 400 918 485 918 q 277 917 315 918 q 228 915 239 917 q 211 910 217 914 q 205 900 207 907 q 199 869 203 893 q 191 791 196 844 q 178 643 186 738 q 164 473 168 539 q 160 378 160 407 q 165 354 160 363 q 194 342 171 346 q 265 338 217 339 q 400 338 314 338 m 389 1061 l 375 1090 q 408 1118 396 1104 q 421 1147 421 1132 q 378 1181 421 1181 q 333 1175 360 1181 l 333 1231 q 358 1236 346 1235 q 382 1238 371 1238 q 440 1219 415 1238 q 465 1165 465 1201 q 444 1104 465 1131 q 389 1061 424 1078 z "},"Ȃ":{"ha":800,"x_min":75,"x_max":725,"o":"m 75 0 q 117 324 100 161 q 148 649 135 486 q 171 972 161 811 l 629 972 q 653 649 640 811 q 683 324 665 486 q 725 0 700 161 l 679 0 q 676 56 679 11 q 668 151 674 101 q 656 235 663 197 q 643 281 650 274 q 631 288 639 285 q 601 294 624 292 q 531 297 578 296 q 400 297 483 297 q 269 297 317 297 q 199 294 222 296 q 169 288 176 292 q 157 281 161 285 q 144 235 150 274 q 132 151 138 197 q 124 56 126 101 q 121 0 121 11 l 75 0 m 400 338 q 535 338 486 338 q 606 342 583 339 q 635 354 629 346 q 640 378 640 363 q 636 473 640 407 q 622 643 632 539 q 609 791 614 738 q 601 869 604 844 q 595 900 597 893 q 589 910 593 907 q 573 915 585 914 q 523 917 561 917 q 400 918 485 918 q 277 917 315 918 q 228 915 239 917 q 211 910 217 914 q 205 900 207 907 q 199 869 203 893 q 191 791 196 844 q 178 643 186 738 q 164 473 168 539 q 160 378 160 407 q 165 354 160 363 q 194 342 171 346 q 265 338 217 339 q 400 338 314 338 m 282 1071 q 297 1140 282 1113 q 339 1182 313 1168 q 400 1196 365 1196 q 461 1182 435 1196 q 503 1140 488 1168 q 518 1071 518 1113 l 460 1071 q 445 1140 460 1118 q 400 1163 431 1163 q 355 1140 369 1163 q 340 1071 340 1118 l 282 1071 z "},"Ɑ":{"ha":1006,"x_min":75,"x_max":1003,"o":"m 1003 -12 q 976 -19 990 -17 q 939 -22 961 -22 q 883 -14 911 -22 q 836 15 856 -6 q 803 85 813 42 q 792 200 794 128 q 788 224 790 219 q 782 228 786 228 q 776 226 779 228 q 768 215 772 225 q 699 101 739 156 q 600 13 660 47 q 447 -22 540 -22 q 303 1 371 -22 q 184 82 235 25 q 104 238 133 139 q 75 486 75 336 q 104 735 75 636 q 184 890 133 833 q 303 971 235 947 q 447 994 371 994 q 600 960 540 994 q 699 871 660 925 q 768 757 739 817 q 776 746 772 747 q 782 744 779 744 q 787 746 785 744 q 789 756 789 747 q 789 785 789 772 q 788 816 789 797 q 787 872 788 835 q 783 972 786 908 l 831 972 q 828 924 829 957 q 824 842 826 890 q 821 737 822 794 q 819 615 819 679 q 818 486 818 551 q 819 296 818 371 q 824 176 821 221 q 833 108 828 132 q 849 69 839 85 q 887 40 864 47 q 939 32 910 32 q 972 35 954 32 q 1003 42 990 38 l 1003 -12 m 447 32 q 603 69 539 32 q 707 169 667 106 q 765 315 747 233 q 783 486 783 397 q 765 658 783 576 q 707 803 747 739 q 603 903 667 867 q 447 940 539 940 q 285 906 350 940 q 181 811 219 872 q 124 667 142 750 q 107 486 107 585 q 124 306 107 389 q 181 161 142 222 q 285 66 219 100 q 447 32 350 32 z "},"Ā":{"ha":800,"x_min":75,"x_max":725,"o":"m 75 0 q 117 324 100 161 q 148 649 135 486 q 171 972 161 811 l 629 972 q 653 649 640 811 q 683 324 665 486 q 725 0 700 161 l 679 0 q 676 56 679 11 q 668 151 674 101 q 656 235 663 197 q 643 281 650 274 q 631 288 639 285 q 601 294 624 292 q 531 297 578 296 q 400 297 483 297 q 269 297 317 297 q 199 294 222 296 q 169 288 176 292 q 157 281 161 285 q 144 235 150 274 q 132 151 138 197 q 124 56 126 101 q 121 0 121 11 l 75 0 m 400 338 q 535 338 486 338 q 606 342 583 339 q 635 354 629 346 q 640 378 640 363 q 636 473 640 407 q 622 643 632 539 q 609 791 614 738 q 601 869 604 844 q 595 900 597 893 q 589 910 593 907 q 573 915 585 914 q 523 917 561 917 q 400 918 485 918 q 277 917 315 918 q 228 915 239 917 q 211 910 217 914 q 205 900 207 907 q 199 869 203 893 q 191 791 196 844 q 178 643 186 738 q 164 473 168 539 q 160 378 160 407 q 165 354 160 363 q 194 342 171 346 q 265 338 217 339 q 400 338 314 338 m 258 1089 l 258 1143 q 313 1141 289 1142 q 358 1140 338 1140 q 399 1139 379 1139 q 440 1140 419 1139 q 486 1141 461 1140 q 542 1143 511 1142 l 542 1089 q 486 1091 511 1090 q 440 1092 461 1092 q 397 1093 418 1093 q 358 1092 378 1093 q 313 1091 338 1092 q 258 1089 289 1090 z "},"Ą":{"ha":800,"x_min":75,"x_max":725,"o":"m 75 0 q 117 324 100 161 q 148 649 135 486 q 171 972 161 811 l 629 972 q 653 649 640 811 q 683 324 665 486 q 725 0 700 161 l 679 0 q 676 56 679 11 q 668 151 674 101 q 656 235 663 197 q 643 281 650 274 q 631 288 639 285 q 601 294 624 292 q 531 297 578 296 q 400 297 483 297 q 269 297 317 297 q 199 294 222 296 q 169 288 176 292 q 157 281 161 285 q 144 235 150 274 q 132 151 138 197 q 124 56 126 101 q 121 0 121 11 l 75 0 m 400 338 q 535 338 486 338 q 606 342 583 339 q 635 354 629 346 q 640 378 640 363 q 636 473 640 407 q 622 643 632 539 q 609 791 614 738 q 601 869 604 844 q 595 900 597 893 q 589 910 593 907 q 573 915 585 914 q 523 917 561 917 q 400 918 485 918 q 277 917 315 918 q 228 915 239 917 q 211 910 217 914 q 205 900 207 907 q 199 869 203 893 q 191 791 196 844 q 178 643 186 738 q 164 473 168 539 q 160 378 160 407 q 165 354 160 363 q 194 342 171 346 q 265 338 217 339 q 400 338 314 338 m 649 -239 q 598 -219 622 -239 q 574 -158 574 -199 q 599 -80 574 -121 q 689 17 624 -39 l 725 0 q 641 -85 663 -47 q 619 -147 619 -124 q 631 -181 619 -169 q 658 -192 642 -192 q 692 -187 676 -192 q 725 -175 708 -182 l 725 -217 q 687 -233 706 -226 q 649 -239 668 -239 z "},"Å":{"ha":800,"x_min":75,"x_max":725,"o":"m 75 0 q 117 324 100 161 q 148 649 135 486 q 171 972 161 811 l 629 972 q 653 649 640 811 q 683 324 665 486 q 725 0 700 161 l 679 0 q 676 56 679 11 q 668 151 674 101 q 656 235 663 197 q 643 281 650 274 q 631 288 639 285 q 601 294 624 292 q 531 297 578 296 q 400 297 483 297 q 269 297 317 297 q 199 294 222 296 q 169 288 176 292 q 157 281 161 285 q 144 235 150 274 q 132 151 138 197 q 124 56 126 101 q 121 0 121 11 l 75 0 m 400 338 q 535 338 486 338 q 606 342 583 339 q 635 354 629 346 q 640 378 640 363 q 636 473 640 407 q 622 643 632 539 q 609 791 614 738 q 601 869 604 844 q 595 900 597 893 q 589 910 593 907 q 573 915 585 914 q 523 917 561 917 q 400 918 485 918 q 277 917 315 918 q 228 915 239 917 q 211 910 217 914 q 205 900 207 907 q 199 869 203 893 q 191 791 196 844 q 178 643 186 738 q 164 473 168 539 q 160 378 160 407 q 165 354 160 363 q 194 342 171 346 q 265 338 217 339 q 400 338 314 338 m 400 1063 q 331 1087 353 1063 q 310 1154 310 1111 q 331 1220 310 1196 q 400 1244 353 1244 q 469 1220 449 1244 q 490 1154 490 1196 q 469 1087 490 1111 q 400 1063 449 1063 m 400 1121 q 449 1131 435 1121 q 464 1154 464 1140 q 449 1179 464 1171 q 400 1188 435 1188 q 351 1179 365 1188 q 336 1154 336 1171 q 351 1131 336 1140 q 400 1121 365 1121 z "},"Ḁ":{"ha":800,"x_min":75,"x_max":725,"o":"m 75 0 q 117 324 100 161 q 148 649 135 486 q 171 972 161 811 l 629 972 q 653 649 640 811 q 683 324 665 486 q 725 0 700 161 l 679 0 q 676 56 679 11 q 668 151 674 101 q 656 235 663 197 q 643 281 650 274 q 631 288 639 285 q 601 294 624 292 q 531 297 578 296 q 400 297 483 297 q 269 297 317 297 q 199 294 222 296 q 169 288 176 292 q 157 281 161 285 q 144 235 150 274 q 132 151 138 197 q 124 56 126 101 q 121 0 121 11 l 75 0 m 400 338 q 535 338 486 338 q 606 342 583 339 q 635 354 629 346 q 640 378 640 363 q 636 473 640 407 q 622 643 632 539 q 609 791 614 738 q 601 869 604 844 q 595 900 597 893 q 589 910 593 907 q 573 915 585 914 q 523 917 561 917 q 400 918 485 918 q 277 917 315 918 q 228 915 239 917 q 211 910 217 914 q 205 900 207 907 q 199 869 203 893 q 191 791 196 844 q 178 643 186 738 q 164 473 168 539 q 160 378 160 407 q 165 354 160 363 q 194 342 171 346 q 265 338 217 339 q 400 338 314 338 m 399 -283 q 330 -259 351 -283 q 308 -192 308 -235 q 330 -126 308 -150 q 399 -101 351 -101 q 468 -126 447 -101 q 489 -192 489 -150 q 468 -259 489 -235 q 399 -283 447 -283 m 399 -225 q 448 -215 433 -225 q 463 -192 463 -206 q 448 -167 463 -175 q 399 -158 433 -158 q 349 -167 364 -158 q 335 -192 335 -175 q 349 -215 335 -206 q 399 -225 364 -225 z "},"Ⱥ":{"ha":800,"x_min":75,"x_max":725,"o":"m 75 0 q 117 324 100 161 q 148 649 135 486 q 171 972 161 811 l 629 972 q 653 649 640 811 q 683 324 665 486 q 725 0 700 161 l 679 0 q 676 56 679 11 q 668 151 674 101 q 656 235 663 197 q 643 281 650 274 q 631 288 639 285 q 601 294 624 292 q 531 297 578 296 q 400 297 483 297 q 269 297 317 297 q 199 294 222 296 q 169 288 176 292 q 157 281 161 285 q 144 235 150 274 q 132 151 138 197 q 124 56 126 101 q 121 0 121 11 l 75 0 m 400 338 q 535 338 486 338 q 606 342 583 339 q 635 354 629 346 q 640 378 640 363 q 636 473 640 407 q 622 643 632 539 q 609 791 614 738 q 601 869 604 844 q 595 900 597 893 q 589 910 593 907 q 573 915 585 914 q 523 917 561 917 q 400 918 485 918 q 277 917 315 918 q 228 915 239 917 q 211 910 217 914 q 205 900 207 907 q 199 869 203 893 q 191 791 196 844 q 178 643 186 738 q 164 473 168 539 q 160 378 160 407 q 165 354 160 363 q 194 342 171 346 q 265 338 217 339 q 400 338 314 338 m 128 -106 q 230 185 178 36 q 333 486 282 335 q 433 787 385 638 q 526 1078 482 936 l 574 1078 q 471 787 522 936 q 369 486 419 638 q 270 185 319 335 q 175 -106 221 36 l 128 -106 z "},"Ã":{"ha":800,"x_min":75,"x_max":725,"o":"m 75 0 q 117 324 100 161 q 148 649 135 486 q 171 972 161 811 l 629 972 q 653 649 640 811 q 683 324 665 486 q 725 0 700 161 l 679 0 q 676 56 679 11 q 668 151 674 101 q 656 235 663 197 q 643 281 650 274 q 631 288 639 285 q 601 294 624 292 q 531 297 578 296 q 400 297 483 297 q 269 297 317 297 q 199 294 222 296 q 169 288 176 292 q 157 281 161 285 q 144 235 150 274 q 132 151 138 197 q 124 56 126 101 q 121 0 121 11 l 75 0 m 400 338 q 535 338 486 338 q 606 342 583 339 q 635 354 629 346 q 640 378 640 363 q 636 473 640 407 q 622 643 632 539 q 609 791 614 738 q 601 869 604 844 q 595 900 597 893 q 589 910 593 907 q 573 915 585 914 q 523 917 561 917 q 400 918 485 918 q 277 917 315 918 q 228 915 239 917 q 211 910 217 914 q 205 900 207 907 q 199 869 203 893 q 191 791 196 844 q 178 643 186 738 q 164 473 168 539 q 160 378 160 407 q 165 354 160 363 q 194 342 171 346 q 265 338 217 339 q 400 338 314 338 m 451 1079 q 419 1093 432 1079 q 394 1121 406 1107 q 380 1140 388 1132 q 365 1147 372 1147 q 349 1136 357 1147 q 340 1081 340 1125 l 282 1081 q 298 1158 282 1129 q 349 1186 314 1186 q 382 1173 368 1186 q 406 1144 396 1160 q 420 1126 413 1135 q 435 1118 428 1118 q 451 1129 443 1118 q 460 1185 460 1140 l 518 1185 q 503 1108 518 1138 q 451 1079 488 1079 z "},"Æ":{"ha":1154,"x_min":75,"x_max":1085,"o":"m 75 0 q 199 486 144 242 q 301 972 253 731 l 1085 972 l 1085 922 q 1020 922 1053 922 q 956 922 988 922 q 891 922 924 922 q 826 922 858 922 q 717 922 753 922 q 670 919 682 921 q 653 914 658 918 q 644 897 647 910 q 639 845 640 883 q 638 728 638 807 q 639 611 638 650 q 644 559 640 572 q 653 542 647 546 q 669 537 658 539 q 703 534 681 535 q 763 533 725 533 q 835 533 807 533 q 888 534 863 533 q 953 535 914 535 q 1060 538 993 536 l 1060 488 q 953 490 993 489 q 888 491 914 490 q 833 492 861 492 q 761 492 806 492 q 701 491 724 492 q 668 489 679 490 q 651 483 657 488 q 639 429 642 476 q 636 271 636 382 q 638 135 636 179 q 642 77 639 92 q 651 58 646 63 q 669 53 657 56 q 717 51 681 51 q 826 50 753 50 q 891 50 858 50 q 956 50 924 50 q 1020 50 988 50 q 1085 50 1053 50 l 1085 0 l 606 0 q 605 149 606 93 q 602 234 604 206 q 597 274 600 263 q 588 289 593 285 q 568 294 583 293 q 510 297 553 296 q 382 297 468 297 q 268 296 306 297 q 217 291 231 294 q 194 281 203 288 q 178 247 188 275 q 160 181 169 219 q 143 105 151 143 q 129 38 135 67 q 122 0 124 8 l 75 0 m 404 338 q 517 338 479 338 q 570 341 556 339 q 589 346 585 343 q 598 360 594 350 q 603 398 601 369 q 606 485 606 426 q 607 643 607 543 q 607 794 607 740 q 606 871 607 847 q 603 901 606 894 q 599 910 601 907 q 587 915 596 913 q 551 917 578 917 q 464 918 524 918 q 395 918 422 918 q 354 917 368 918 q 335 911 340 915 q 327 900 331 908 q 317 866 324 892 q 299 788 311 840 q 265 644 286 736 q 222 453 235 513 q 210 369 210 393 q 214 353 210 360 q 235 343 218 346 q 293 339 253 340 q 404 338 333 338 z "},"Ǣ":{"ha":1154,"x_min":75,"x_max":1085,"o":"m 75 0 q 199 486 144 242 q 301 972 253 731 l 1085 972 l 1085 922 q 1020 922 1053 922 q 956 922 988 922 q 891 922 924 922 q 826 922 858 922 q 717 922 753 922 q 670 919 682 921 q 653 914 658 918 q 644 897 647 910 q 639 845 640 883 q 638 728 638 807 q 639 611 638 650 q 644 559 640 572 q 653 542 647 546 q 669 537 658 539 q 703 534 681 535 q 763 533 725 533 q 835 533 807 533 q 888 534 863 533 q 953 535 914 535 q 1060 538 993 536 l 1060 488 q 953 490 993 489 q 888 491 914 490 q 833 492 861 492 q 761 492 806 492 q 701 491 724 492 q 668 489 679 490 q 651 483 657 488 q 639 429 642 476 q 636 271 636 382 q 638 135 636 179 q 642 77 639 92 q 651 58 646 63 q 669 53 657 56 q 717 51 681 51 q 826 50 753 50 q 891 50 858 50 q 956 50 924 50 q 1020 50 988 50 q 1085 50 1053 50 l 1085 0 l 606 0 q 605 149 606 93 q 602 234 604 206 q 597 274 600 263 q 588 289 593 285 q 568 294 583 293 q 510 297 553 296 q 382 297 468 297 q 268 296 306 297 q 217 291 231 294 q 194 281 203 288 q 178 247 188 275 q 160 181 169 219 q 143 105 151 143 q 129 38 135 67 q 122 0 124 8 l 75 0 m 404 338 q 517 338 479 338 q 570 341 556 339 q 589 346 585 343 q 598 360 594 350 q 603 398 601 369 q 606 485 606 426 q 607 643 607 543 q 607 794 607 740 q 606 871 607 847 q 603 901 606 894 q 599 910 601 907 q 587 915 596 913 q 551 917 578 917 q 464 918 524 918 q 395 918 422 918 q 354 917 368 918 q 335 911 340 915 q 327 900 331 908 q 317 866 324 892 q 299 788 311 840 q 265 644 286 736 q 222 453 235 513 q 210 369 210 393 q 214 353 210 360 q 235 343 218 346 q 293 339 253 340 q 404 338 333 338 m 531 1089 l 531 1143 q 585 1141 561 1142 q 631 1140 610 1140 q 671 1139 651 1139 q 713 1140 692 1139 q 758 1141 733 1140 q 814 1143 783 1142 l 814 1089 q 758 1091 783 1090 q 712 1092 733 1092 q 669 1093 690 1093 q 630 1092 650 1093 q 585 1091 610 1092 q 531 1089 561 1090 z "},"B":{"ha":839,"x_min":132,"x_max":776,"o":"m 132 0 q 135 164 133 100 q 137 270 136 228 q 138 344 138 313 q 138 408 138 375 q 138 486 138 440 q 138 565 138 532 q 138 628 138 597 q 137 702 138 660 q 135 808 136 744 q 132 972 133 872 l 476 972 q 656 905 593 972 q 719 731 719 838 q 713 663 719 704 q 676 580 706 622 q 581 510 647 538 q 698 452 656 490 q 758 365 740 414 q 776 261 776 315 q 741 126 776 185 q 642 33 706 67 q 494 0 579 0 l 132 0 m 346 54 q 458 55 413 54 q 535 58 504 56 q 586 65 565 61 q 622 75 607 69 q 713 149 681 99 q 746 268 746 200 q 721 369 746 328 q 660 435 696 410 q 593 469 625 460 q 552 479 574 476 q 503 484 531 482 q 437 486 475 486 q 346 486 399 486 q 266 485 296 486 q 219 484 236 485 q 195 481 203 483 q 183 475 188 479 q 174 457 178 471 q 168 401 169 443 q 167 268 167 358 q 168 138 167 178 q 174 85 169 97 q 183 68 178 74 q 195 62 188 64 q 219 58 203 60 q 266 55 236 56 q 346 54 296 54 m 346 529 q 457 530 417 529 q 520 533 497 531 q 563 540 543 536 q 650 598 611 553 q 689 724 689 643 q 650 849 689 804 q 563 907 611 894 q 520 915 543 913 q 457 917 497 917 q 346 918 417 918 q 247 917 279 918 q 202 915 214 917 q 183 907 190 913 q 174 890 178 903 q 168 840 169 876 q 167 724 167 803 q 168 608 167 646 q 174 558 169 571 q 183 540 178 546 q 202 533 190 536 q 247 530 214 531 q 346 529 279 529 z "},"Ḃ":{"ha":839,"x_min":132,"x_max":776,"o":"m 132 0 q 135 164 133 100 q 137 270 136 228 q 138 344 138 313 q 138 408 138 375 q 138 486 138 440 q 138 565 138 532 q 138 628 138 597 q 137 702 138 660 q 135 808 136 744 q 132 972 133 872 l 476 972 q 656 905 593 972 q 719 731 719 838 q 713 663 719 704 q 676 580 706 622 q 581 510 647 538 q 698 452 656 490 q 758 365 740 414 q 776 261 776 315 q 741 126 776 185 q 642 33 706 67 q 494 0 579 0 l 132 0 m 346 54 q 458 55 413 54 q 535 58 504 56 q 586 65 565 61 q 622 75 607 69 q 713 149 681 99 q 746 268 746 200 q 721 369 746 328 q 660 435 696 410 q 593 469 625 460 q 552 479 574 476 q 503 484 531 482 q 437 486 475 486 q 346 486 399 486 q 266 485 296 486 q 219 484 236 485 q 195 481 203 483 q 183 475 188 479 q 174 457 178 471 q 168 401 169 443 q 167 268 167 358 q 168 138 167 178 q 174 85 169 97 q 183 68 178 74 q 195 62 188 64 q 219 58 203 60 q 266 55 236 56 q 346 54 296 54 m 346 529 q 457 530 417 529 q 520 533 497 531 q 563 540 543 536 q 650 598 611 553 q 689 724 689 643 q 650 849 689 804 q 563 907 611 894 q 520 915 543 913 q 457 917 497 917 q 346 918 417 918 q 247 917 279 918 q 202 915 214 917 q 183 907 190 913 q 174 890 178 903 q 168 840 169 876 q 167 724 167 803 q 168 608 167 646 q 174 558 169 571 q 183 540 178 546 q 202 533 190 536 q 247 530 214 531 q 346 529 279 529 m 382 1075 q 333 1131 333 1075 q 347 1172 333 1158 q 382 1186 360 1186 q 417 1172 404 1186 q 431 1131 431 1158 q 417 1089 431 1103 q 382 1075 404 1075 z "},"Ḅ":{"ha":839,"x_min":132,"x_max":776,"o":"m 132 0 q 135 164 133 100 q 137 270 136 228 q 138 344 138 313 q 138 408 138 375 q 138 486 138 440 q 138 565 138 532 q 138 628 138 597 q 137 702 138 660 q 135 808 136 744 q 132 972 133 872 l 476 972 q 656 905 593 972 q 719 731 719 838 q 713 663 719 704 q 676 580 706 622 q 581 510 647 538 q 698 452 656 490 q 758 365 740 414 q 776 261 776 315 q 741 126 776 185 q 642 33 706 67 q 494 0 579 0 l 132 0 m 346 54 q 458 55 413 54 q 535 58 504 56 q 586 65 565 61 q 622 75 607 69 q 713 149 681 99 q 746 268 746 200 q 721 369 746 328 q 660 435 696 410 q 593 469 625 460 q 552 479 574 476 q 503 484 531 482 q 437 486 475 486 q 346 486 399 486 q 266 485 296 486 q 219 484 236 485 q 195 481 203 483 q 183 475 188 479 q 174 457 178 471 q 168 401 169 443 q 167 268 167 358 q 168 138 167 178 q 174 85 169 97 q 183 68 178 74 q 195 62 188 64 q 219 58 203 60 q 266 55 236 56 q 346 54 296 54 m 346 529 q 457 530 417 529 q 520 533 497 531 q 563 540 543 536 q 650 598 611 553 q 689 724 689 643 q 650 849 689 804 q 563 907 611 894 q 520 915 543 913 q 457 917 497 917 q 346 918 417 918 q 247 917 279 918 q 202 915 214 917 q 183 907 190 913 q 174 890 178 903 q 168 840 169 876 q 167 724 167 803 q 168 608 167 646 q 174 558 169 571 q 183 540 178 546 q 202 533 190 536 q 247 530 214 531 q 346 529 279 529 m 382 -242 q 333 -186 333 -242 q 347 -144 333 -158 q 382 -131 360 -131 q 417 -144 404 -131 q 431 -186 431 -158 q 417 -228 431 -214 q 382 -242 404 -242 z "},"Ꞵ":{"ha":842,"x_min":132,"x_max":779,"o":"m 140 486 q 140 565 140 532 q 140 628 140 597 q 140 702 140 660 q 138 808 139 744 q 135 972 136 872 l 479 972 q 659 905 596 972 q 722 731 722 838 q 715 663 722 704 q 679 580 708 622 q 583 510 650 538 q 701 452 658 490 q 761 365 743 414 q 779 261 779 315 q 744 126 779 185 q 645 33 708 67 q 497 0 582 0 l 171 0 l 175 -164 l 132 -164 q 135 -52 133 -117 q 137 87 136 13 q 138 235 138 161 q 140 374 139 310 q 140 486 140 439 m 169 268 q 171 138 169 178 q 176 85 172 97 q 186 68 181 74 q 198 62 190 64 q 222 58 206 60 q 269 55 239 56 q 349 54 299 54 q 461 55 415 54 q 538 58 507 56 q 589 65 568 61 q 625 75 610 69 q 716 149 683 99 q 749 268 749 200 q 724 369 749 328 q 663 435 699 410 q 596 469 628 460 q 555 479 576 476 q 506 484 533 482 q 440 486 478 486 q 349 486 401 486 q 269 485 299 486 q 222 484 239 485 q 198 481 206 483 q 186 475 190 479 q 176 457 181 471 q 171 401 172 443 q 169 268 169 358 m 169 724 q 171 608 169 646 q 176 558 172 571 q 186 540 181 546 q 205 533 193 536 q 249 530 217 531 q 349 529 282 529 q 460 530 419 529 q 523 533 500 531 q 565 540 546 536 q 653 598 614 553 q 692 724 692 643 q 653 849 692 804 q 565 907 614 894 q 523 915 546 913 q 460 917 500 917 q 349 918 419 918 q 249 917 282 918 q 205 915 217 917 q 186 907 193 913 q 176 890 181 903 q 171 840 172 876 q 169 724 169 803 z "},"Ɓ":{"ha":885,"x_min":17,"x_max":822,"o":"m 178 0 q 181 164 179 100 q 183 270 182 228 q 183 344 183 313 q 183 408 183 375 q 183 486 183 440 q 183 565 183 532 q 183 628 183 597 q 183 702 183 660 q 181 808 182 744 q 178 972 179 872 l 522 972 q 702 905 639 972 q 765 731 765 838 q 758 663 765 704 q 722 580 751 622 q 626 510 693 538 q 744 452 701 490 q 804 365 786 414 q 822 261 822 315 q 787 126 822 185 q 688 33 751 67 q 540 0 625 0 l 178 0 m 392 54 q 504 55 458 54 q 581 58 550 56 q 632 65 611 61 q 668 75 653 69 q 759 149 726 99 q 792 268 792 200 q 767 369 792 328 q 706 435 742 410 q 639 469 671 460 q 598 479 619 476 q 549 484 576 482 q 483 486 521 486 q 392 486 444 486 q 312 485 342 486 q 265 484 282 485 q 241 481 249 483 q 229 475 233 479 q 219 457 224 471 q 214 401 215 443 q 213 268 213 358 q 214 138 213 178 q 219 85 215 97 q 229 68 224 74 q 241 62 233 64 q 265 58 249 60 q 312 55 282 56 q 392 54 342 54 m 392 529 q 503 530 463 529 q 566 533 543 531 q 608 540 589 536 q 696 598 657 553 q 735 724 735 643 q 696 849 735 804 q 608 907 657 894 q 566 915 589 913 q 503 917 543 917 q 392 918 463 918 q 292 917 325 918 q 248 915 260 917 q 229 907 236 913 q 219 890 224 903 q 214 840 215 876 q 213 724 213 803 q 214 608 213 646 q 219 558 215 571 q 229 540 224 546 q 248 533 236 536 q 292 530 260 531 q 392 529 325 529 m 211 936 q 120 932 143 936 q 83 917 97 928 q 65 885 69 906 q 61 850 61 865 q 61 840 61 846 q 62 830 61 835 q 63 819 63 825 l 18 819 q 17 841 17 831 q 17 860 17 851 q 31 926 17 901 q 74 962 46 951 q 139 972 101 972 q 188 972 176 972 q 204 972 199 972 l 211 936 z "},"Ḇ":{"ha":839,"x_min":132,"x_max":776,"o":"m 132 0 q 135 164 133 100 q 137 270 136 228 q 138 344 138 313 q 138 408 138 375 q 138 486 138 440 q 138 565 138 532 q 138 628 138 597 q 137 702 138 660 q 135 808 136 744 q 132 972 133 872 l 476 972 q 656 905 593 972 q 719 731 719 838 q 713 663 719 704 q 676 580 706 622 q 581 510 647 538 q 698 452 656 490 q 758 365 740 414 q 776 261 776 315 q 741 126 776 185 q 642 33 706 67 q 494 0 579 0 l 132 0 m 346 54 q 458 55 413 54 q 535 58 504 56 q 586 65 565 61 q 622 75 607 69 q 713 149 681 99 q 746 268 746 200 q 721 369 746 328 q 660 435 696 410 q 593 469 625 460 q 552 479 574 476 q 503 484 531 482 q 437 486 475 486 q 346 486 399 486 q 266 485 296 486 q 219 484 236 485 q 195 481 203 483 q 183 475 188 479 q 174 457 178 471 q 168 401 169 443 q 167 268 167 358 q 168 138 167 178 q 174 85 169 97 q 183 68 178 74 q 195 62 188 64 q 219 58 203 60 q 266 55 236 56 q 346 54 296 54 m 346 529 q 457 530 417 529 q 520 533 497 531 q 563 540 543 536 q 650 598 611 553 q 689 724 689 643 q 650 849 689 804 q 563 907 611 894 q 520 915 543 913 q 457 917 497 917 q 346 918 417 918 q 247 917 279 918 q 202 915 214 917 q 183 907 190 913 q 174 890 178 903 q 168 840 169 876 q 167 724 167 803 q 168 608 167 646 q 174 558 169 571 q 183 540 178 546 q 202 533 190 536 q 247 530 214 531 q 346 529 279 529 m 249 -207 l 249 -153 q 301 -155 278 -154 q 343 -156 324 -156 q 381 -157 363 -157 q 419 -156 400 -157 q 463 -155 439 -156 q 515 -153 486 -154 l 515 -207 q 463 -205 486 -206 q 419 -203 439 -204 q 381 -203 400 -203 q 343 -203 363 -203 q 301 -205 324 -204 q 249 -207 278 -206 z "},"Ƀ":{"ha":839,"x_min":60,"x_max":776,"o":"m 132 0 q 135 164 133 100 q 137 270 136 228 q 138 344 138 313 q 138 408 138 375 q 138 486 138 440 q 138 565 138 532 q 138 628 138 597 q 137 702 138 660 q 135 808 136 744 q 132 972 133 872 l 476 972 q 656 905 593 972 q 719 731 719 838 q 713 663 719 704 q 676 580 706 622 q 581 510 647 538 q 698 452 656 490 q 758 365 740 414 q 776 261 776 315 q 741 126 776 185 q 642 33 706 67 q 494 0 579 0 l 132 0 m 346 54 q 458 55 413 54 q 535 58 504 56 q 586 65 565 61 q 622 75 607 69 q 713 149 681 99 q 746 268 746 200 q 721 369 746 328 q 660 435 696 410 q 593 469 625 460 q 552 479 574 476 q 503 484 531 482 q 437 486 475 486 q 346 486 399 486 q 266 485 296 486 q 219 484 236 485 q 195 481 203 483 q 183 475 188 479 q 174 457 178 471 q 168 401 169 443 q 167 268 167 358 q 168 138 167 178 q 174 85 169 97 q 183 68 178 74 q 195 62 188 64 q 219 58 203 60 q 266 55 236 56 q 346 54 296 54 m 346 529 q 457 530 417 529 q 520 533 497 531 q 563 540 543 536 q 650 598 611 553 q 689 724 689 643 q 650 849 689 804 q 563 907 611 894 q 520 915 543 913 q 457 917 497 917 q 346 918 417 918 q 247 917 279 918 q 202 915 214 917 q 183 907 190 913 q 174 890 178 903 q 168 840 169 876 q 167 724 167 803 q 168 608 167 646 q 174 558 169 571 q 183 540 178 546 q 202 533 190 536 q 247 530 214 531 q 346 529 279 529 m 60 246 l 60 290 q 128 288 94 289 q 197 288 163 288 q 268 288 233 288 q 338 290 303 289 l 338 246 q 268 249 303 249 q 197 249 233 249 q 128 249 163 249 q 60 246 94 249 z "},"C":{"ha":775,"x_min":75,"x_max":706,"o":"m 706 18 q 650 -1 683 8 q 576 -16 617 -10 q 493 -22 536 -22 q 183 113 292 -22 q 75 486 75 249 q 183 859 75 724 q 493 994 292 994 q 576 990 536 994 q 650 976 617 985 q 706 958 683 968 l 706 893 q 601 930 663 917 q 478 943 539 943 q 324 913 390 943 q 213 828 258 882 q 133 677 160 765 q 107 486 107 589 q 143 266 107 367 q 253 104 179 165 q 352 49 296 69 q 478 29 408 29 q 601 44 539 29 q 706 82 663 60 l 706 18 z "},"Ć":{"ha":775,"x_min":75,"x_max":706,"o":"m 706 18 q 650 -1 683 8 q 576 -16 617 -10 q 493 -22 536 -22 q 183 113 292 -22 q 75 486 75 249 q 183 859 75 724 q 493 994 292 994 q 576 990 536 994 q 650 976 617 985 q 706 958 683 968 l 706 893 q 601 930 663 917 q 478 943 539 943 q 324 913 390 943 q 213 828 258 882 q 133 677 160 765 q 107 486 107 589 q 143 266 107 367 q 253 104 179 165 q 352 49 296 69 q 478 29 408 29 q 601 44 539 29 q 706 82 663 60 l 706 18 m 439 1071 l 488 1199 l 558 1199 l 482 1071 l 439 1071 z "},"Č":{"ha":775,"x_min":75,"x_max":706,"o":"m 706 18 q 650 -1 683 8 q 576 -16 617 -10 q 493 -22 536 -22 q 183 113 292 -22 q 75 486 75 249 q 183 859 75 724 q 493 994 292 994 q 576 990 536 994 q 650 976 617 985 q 706 958 683 968 l 706 893 q 601 930 663 917 q 478 943 539 943 q 324 913 390 943 q 213 828 258 882 q 133 677 160 765 q 107 486 107 589 q 143 266 107 367 q 253 104 179 165 q 352 49 296 69 q 478 29 408 29 q 601 44 539 29 q 706 82 663 60 l 706 18 m 419 1071 l 354 1200 l 397 1200 q 429 1149 419 1164 q 444 1131 439 1133 q 457 1128 450 1128 q 470 1131 465 1128 q 485 1149 475 1133 q 517 1200 494 1164 l 560 1200 l 494 1071 l 419 1071 z "},"Ç":{"ha":775,"x_min":75,"x_max":706,"o":"m 706 18 q 650 -1 683 8 q 576 -16 617 -10 q 493 -22 536 -22 q 183 113 292 -22 q 75 486 75 249 q 183 859 75 724 q 493 994 292 994 q 576 990 536 994 q 650 976 617 985 q 706 958 683 968 l 706 893 q 601 930 663 917 q 478 943 539 943 q 324 913 390 943 q 213 828 258 882 q 133 677 160 765 q 107 486 107 589 q 143 266 107 367 q 253 104 179 165 q 352 49 296 69 q 478 29 408 29 q 601 44 539 29 q 706 82 663 60 l 706 18 m 386 -233 l 386 -174 q 432 -185 414 -182 q 474 -189 450 -189 q 517 -178 503 -189 q 532 -150 532 -167 q 511 -121 532 -131 q 446 -111 490 -111 q 413 -108 424 -111 q 401 -92 401 -104 q 412 -60 401 -81 q 443 0 422 -39 l 486 0 q 449 -51 456 -39 q 442 -68 442 -62 q 450 -75 442 -74 q 471 -76 458 -76 q 494 -78 482 -76 q 517 -83 507 -81 q 556 -110 540 -92 q 572 -156 572 -128 q 544 -219 572 -194 q 465 -243 515 -243 q 428 -241 447 -243 q 386 -233 410 -239 z "},"Ḉ":{"ha":775,"x_min":75,"x_max":706,"o":"m 706 18 q 650 -1 683 8 q 576 -16 617 -10 q 493 -22 536 -22 q 183 113 292 -22 q 75 486 75 249 q 183 859 75 724 q 493 994 292 994 q 576 990 536 994 q 650 976 617 985 q 706 958 683 968 l 706 893 q 601 930 663 917 q 478 943 539 943 q 324 913 390 943 q 213 828 258 882 q 133 677 160 765 q 107 486 107 589 q 143 266 107 367 q 253 104 179 165 q 352 49 296 69 q 478 29 408 29 q 601 44 539 29 q 706 82 663 60 l 706 18 m 386 -233 l 386 -174 q 432 -185 414 -182 q 474 -189 450 -189 q 517 -178 503 -189 q 532 -150 532 -167 q 511 -121 532 -131 q 446 -111 490 -111 q 413 -108 424 -111 q 401 -92 401 -104 q 412 -60 401 -81 q 443 0 422 -39 l 486 0 q 449 -51 456 -39 q 442 -68 442 -62 q 450 -75 442 -74 q 471 -76 458 -76 q 494 -78 482 -76 q 517 -83 507 -81 q 556 -110 540 -92 q 572 -156 572 -128 q 544 -219 572 -194 q 465 -243 515 -243 q 428 -241 447 -243 q 386 -233 410 -239 m 439 1071 l 488 1199 l 558 1199 l 482 1071 l 439 1071 z "},"Ĉ":{"ha":775,"x_min":75,"x_max":706,"o":"m 706 18 q 650 -1 683 8 q 576 -16 617 -10 q 493 -22 536 -22 q 183 113 292 -22 q 75 486 75 249 q 183 859 75 724 q 493 994 292 994 q 576 990 536 994 q 650 976 617 985 q 706 958 683 968 l 706 893 q 601 930 663 917 q 478 943 539 943 q 324 913 390 943 q 213 828 258 882 q 133 677 160 765 q 107 486 107 589 q 143 266 107 367 q 253 104 179 165 q 352 49 296 69 q 478 29 408 29 q 601 44 539 29 q 706 82 663 60 l 706 18 m 354 1069 l 419 1199 l 494 1199 l 560 1069 l 517 1069 q 485 1121 494 1106 q 470 1139 475 1136 q 457 1142 465 1142 q 444 1139 450 1142 q 429 1121 439 1136 q 397 1069 419 1106 l 354 1069 z "},"Ċ":{"ha":775,"x_min":75,"x_max":706,"o":"m 706 18 q 650 -1 683 8 q 576 -16 617 -10 q 493 -22 536 -22 q 183 113 292 -22 q 75 486 75 249 q 183 859 75 724 q 493 994 292 994 q 576 990 536 994 q 650 976 617 985 q 706 958 683 968 l 706 893 q 601 930 663 917 q 478 943 539 943 q 324 913 390 943 q 213 828 258 882 q 133 677 160 765 q 107 486 107 589 q 143 266 107 367 q 253 104 179 165 q 352 49 296 69 q 478 29 408 29 q 601 44 539 29 q 706 82 663 60 l 706 18 m 457 1075 q 408 1131 408 1075 q 422 1172 408 1158 q 457 1186 435 1186 q 492 1172 479 1186 q 506 1131 506 1158 q 492 1089 506 1103 q 457 1075 479 1075 z "},"Ꭓ":{"ha":928,"x_min":69,"x_max":928,"o":"m 133 -219 q 220 -74 175 -150 q 310 81 265 3 q 398 234 356 158 q 476 378 440 310 q 415 553 447 468 q 351 710 382 639 q 297 828 321 781 q 261 888 274 875 q 217 919 242 910 q 168 929 192 929 q 117 924 142 929 q 69 910 93 918 l 69 974 q 118 985 94 982 q 168 988 142 988 q 236 972 201 988 q 293 924 271 956 q 345 819 313 894 q 418 640 378 744 q 500 419 458 536 q 610 608 557 517 q 712 791 663 700 q 807 972 761 882 l 865 972 q 750 776 811 881 q 630 569 689 672 q 521 375 571 467 q 583 199 550 285 q 646 43 615 114 q 700 -75 676 -28 q 736 -135 724 -122 q 781 -167 756 -157 q 829 -176 806 -176 q 880 -171 856 -176 q 928 -157 904 -165 l 928 -221 q 880 -232 903 -229 q 829 -235 857 -235 q 761 -219 796 -235 q 704 -171 726 -203 q 652 -67 685 -142 q 580 113 619 8 q 497 332 540 217 q 338 52 414 188 q 192 -219 261 -83 l 133 -219 z "},"Ƈ":{"ha":775,"x_min":75,"x_max":868,"o":"m 706 18 q 650 -1 683 8 q 576 -16 617 -10 q 493 -22 536 -22 q 183 113 292 -22 q 75 486 75 249 q 183 859 75 724 q 493 994 292 994 q 576 990 536 994 q 650 976 617 985 q 706 958 683 968 l 706 893 q 601 930 663 917 q 478 943 539 943 q 324 913 390 943 q 213 828 258 882 q 133 677 160 765 q 107 486 107 589 q 143 266 107 367 q 253 104 179 165 q 352 49 296 69 q 478 29 408 29 q 601 44 539 29 q 706 82 663 60 l 706 18 m 706 914 l 668 921 q 668 932 668 926 q 668 943 668 938 q 684 1047 668 1011 q 728 1095 700 1082 q 794 1108 757 1108 q 831 1107 811 1108 q 868 1103 850 1106 l 868 1044 q 844 1049 858 1047 q 817 1051 831 1050 q 790 1053 803 1053 q 739 1039 763 1053 q 711 994 717 1025 q 706 914 706 964 z "},"Ȼ":{"ha":775,"x_min":75,"x_max":706,"o":"m 706 18 q 650 -1 683 8 q 576 -16 617 -10 q 493 -22 536 -22 q 183 113 292 -22 q 75 486 75 249 q 183 859 75 724 q 493 994 292 994 q 576 990 536 994 q 650 976 617 985 q 706 958 683 968 l 706 893 q 601 930 663 917 q 478 943 539 943 q 324 913 390 943 q 213 828 258 882 q 133 677 160 765 q 107 486 107 589 q 143 266 107 367 q 253 104 179 165 q 352 49 296 69 q 478 29 408 29 q 601 44 539 29 q 706 82 663 60 l 706 18 m 224 -112 q 326 178 274 29 q 429 479 378 328 q 529 780 481 631 q 622 1071 578 929 l 669 1071 q 567 780 618 929 q 465 479 515 631 q 366 178 415 328 q 271 -112 317 29 l 224 -112 z "},"D":{"ha":867,"x_min":132,"x_max":792,"o":"m 132 0 q 135 164 133 100 q 137 270 136 228 q 138 344 138 313 q 138 408 138 375 q 138 486 138 440 q 138 565 138 532 q 138 628 138 597 q 137 702 138 660 q 135 808 136 744 q 132 972 133 872 l 447 972 q 577 956 521 972 q 675 906 633 940 q 746 813 717 871 q 778 715 769 768 q 790 603 788 661 q 792 486 792 546 q 790 369 792 426 q 778 258 788 311 q 746 160 769 206 q 675 67 717 103 q 577 16 633 32 q 447 0 521 0 l 132 0 m 433 56 q 576 74 519 56 q 668 122 633 92 q 721 192 703 153 q 756 331 751 254 q 761 486 761 408 q 756 644 761 564 q 721 786 751 724 q 668 855 703 825 q 576 901 633 885 q 433 918 519 918 q 292 917 344 918 q 216 915 240 917 q 185 907 192 913 q 177 892 181 903 q 172 841 174 881 q 169 718 169 801 q 168 486 168 635 q 169 261 168 343 q 171 141 169 179 q 175 90 172 103 q 183 74 178 78 q 217 63 192 67 q 295 57 243 58 q 433 56 347 56 z "},"Ď":{"ha":867,"x_min":132,"x_max":792,"o":"m 132 0 q 135 164 133 100 q 137 270 136 228 q 138 344 138 313 q 138 408 138 375 q 138 486 138 440 q 138 565 138 532 q 138 628 138 597 q 137 702 138 660 q 135 808 136 744 q 132 972 133 872 l 447 972 q 577 956 521 972 q 675 906 633 940 q 746 813 717 871 q 778 715 769 768 q 790 603 788 661 q 792 486 792 546 q 790 369 792 426 q 778 258 788 311 q 746 160 769 206 q 675 67 717 103 q 577 16 633 32 q 447 0 521 0 l 132 0 m 433 56 q 576 74 519 56 q 668 122 633 92 q 721 192 703 153 q 756 331 751 254 q 761 486 761 408 q 756 644 761 564 q 721 786 751 724 q 668 855 703 825 q 576 901 633 885 q 433 918 519 918 q 292 917 344 918 q 216 915 240 917 q 185 907 192 913 q 177 892 181 903 q 172 841 174 881 q 169 718 169 801 q 168 486 168 635 q 169 261 168 343 q 171 141 169 179 q 175 90 172 103 q 183 74 178 78 q 217 63 192 67 q 295 57 243 58 q 433 56 347 56 m 365 1071 l 300 1200 l 343 1200 q 375 1149 365 1164 q 390 1131 385 1133 q 403 1128 396 1128 q 416 1131 411 1128 q 431 1149 421 1133 q 463 1200 440 1164 l 506 1200 l 440 1071 l 365 1071 z "},"Ḑ":{"ha":867,"x_min":132,"x_max":792,"o":"m 132 0 q 135 164 133 100 q 137 270 136 228 q 138 344 138 313 q 138 408 138 375 q 138 486 138 440 q 138 565 138 532 q 138 628 138 597 q 137 702 138 660 q 135 808 136 744 q 132 972 133 872 l 447 972 q 577 956 521 972 q 675 906 633 940 q 746 813 717 871 q 778 715 769 768 q 790 603 788 661 q 792 486 792 546 q 790 369 792 426 q 778 258 788 311 q 746 160 769 206 q 675 67 717 103 q 577 16 633 32 q 447 0 521 0 l 132 0 m 433 56 q 576 74 519 56 q 668 122 633 92 q 721 192 703 153 q 756 331 751 254 q 761 486 761 408 q 756 644 761 564 q 721 786 751 724 q 668 855 703 825 q 576 901 633 885 q 433 918 519 918 q 292 917 344 918 q 216 915 240 917 q 185 907 192 913 q 177 892 181 903 q 172 841 174 881 q 169 718 169 801 q 168 486 168 635 q 169 261 168 343 q 171 141 169 179 q 175 90 172 103 q 183 74 178 78 q 217 63 192 67 q 295 57 243 58 q 433 56 347 56 m 332 -233 l 332 -174 q 378 -185 360 -182 q 419 -189 396 -189 q 463 -178 449 -189 q 478 -150 478 -167 q 457 -121 478 -131 q 392 -111 436 -111 q 358 -108 369 -111 q 347 -92 347 -104 q 358 -60 347 -81 q 389 0 368 -39 l 432 0 q 394 -51 401 -39 q 388 -68 388 -62 q 396 -75 388 -74 q 417 -76 404 -76 q 440 -78 428 -76 q 463 -83 453 -81 q 502 -110 486 -92 q 518 -156 518 -128 q 490 -219 518 -194 q 411 -243 461 -243 q 374 -241 393 -243 q 332 -233 356 -239 z "},"Ḓ":{"ha":867,"x_min":132,"x_max":792,"o":"m 132 0 q 135 164 133 100 q 137 270 136 228 q 138 344 138 313 q 138 408 138 375 q 138 486 138 440 q 138 565 138 532 q 138 628 138 597 q 137 702 138 660 q 135 808 136 744 q 132 972 133 872 l 447 972 q 577 956 521 972 q 675 906 633 940 q 746 813 717 871 q 778 715 769 768 q 790 603 788 661 q 792 486 792 546 q 790 369 792 426 q 778 258 788 311 q 746 160 769 206 q 675 67 717 103 q 577 16 633 32 q 447 0 521 0 l 132 0 m 433 56 q 576 74 519 56 q 668 122 633 92 q 721 192 703 153 q 756 331 751 254 q 761 486 761 408 q 756 644 761 564 q 721 786 751 724 q 668 855 703 825 q 576 901 633 885 q 433 918 519 918 q 292 917 344 918 q 216 915 240 917 q 185 907 192 913 q 177 892 181 903 q 172 841 174 881 q 169 718 169 801 q 168 486 168 635 q 169 261 168 343 q 171 141 169 179 q 175 90 172 103 q 183 74 178 78 q 217 63 192 67 q 295 57 243 58 q 433 56 347 56 m 306 -254 l 371 -125 l 446 -125 l 511 -254 l 468 -254 q 436 -203 446 -218 q 422 -185 426 -187 q 408 -182 417 -182 q 396 -185 401 -182 q 381 -203 390 -187 q 349 -254 371 -218 l 306 -254 z "},"Đ":{"ha":867,"x_min":64,"x_max":792,"o":"m 132 0 q 135 164 133 100 q 137 270 136 228 q 138 344 138 313 q 138 408 138 375 q 138 486 138 440 q 138 565 138 532 q 138 628 138 597 q 137 702 138 660 q 135 808 136 744 q 132 972 133 872 l 447 972 q 577 956 521 972 q 675 906 633 940 q 746 813 717 871 q 778 715 769 768 q 790 603 788 661 q 792 486 792 546 q 790 369 792 426 q 778 258 788 311 q 746 160 769 206 q 675 67 717 103 q 577 16 633 32 q 447 0 521 0 l 132 0 m 433 56 q 576 74 519 56 q 668 122 633 92 q 721 192 703 153 q 756 331 751 254 q 761 486 761 408 q 756 644 761 564 q 721 786 751 724 q 668 855 703 825 q 576 901 633 885 q 433 918 519 918 q 292 917 344 918 q 216 915 240 917 q 185 907 192 913 q 177 892 181 903 q 172 841 174 881 q 169 718 169 801 q 168 486 168 635 q 169 261 168 343 q 171 141 169 179 q 175 90 172 103 q 183 74 178 78 q 217 63 192 67 q 295 57 243 58 q 433 56 347 56 m 64 464 l 64 508 q 133 506 99 507 q 201 506 167 506 q 272 506 238 506 q 342 508 307 507 l 342 464 q 272 467 307 467 q 201 467 238 467 q 133 467 167 467 q 64 464 99 467 z "},"Ḋ":{"ha":867,"x_min":132,"x_max":792,"o":"m 132 0 q 135 164 133 100 q 137 270 136 228 q 138 344 138 313 q 138 408 138 375 q 138 486 138 440 q 138 565 138 532 q 138 628 138 597 q 137 702 138 660 q 135 808 136 744 q 132 972 133 872 l 447 972 q 577 956 521 972 q 675 906 633 940 q 746 813 717 871 q 778 715 769 768 q 790 603 788 661 q 792 486 792 546 q 790 369 792 426 q 778 258 788 311 q 746 160 769 206 q 675 67 717 103 q 577 16 633 32 q 447 0 521 0 l 132 0 m 433 56 q 576 74 519 56 q 668 122 633 92 q 721 192 703 153 q 756 331 751 254 q 761 486 761 408 q 756 644 761 564 q 721 786 751 724 q 668 855 703 825 q 576 901 633 885 q 433 918 519 918 q 292 917 344 918 q 216 915 240 917 q 185 907 192 913 q 177 892 181 903 q 172 841 174 881 q 169 718 169 801 q 168 486 168 635 q 169 261 168 343 q 171 141 169 179 q 175 90 172 103 q 183 74 178 78 q 217 63 192 67 q 295 57 243 58 q 433 56 347 56 m 403 1075 q 354 1131 354 1075 q 367 1172 354 1158 q 403 1186 381 1186 q 438 1172 425 1186 q 451 1131 451 1158 q 438 1089 451 1103 q 403 1075 425 1075 z "},"Ḍ":{"ha":867,"x_min":132,"x_max":792,"o":"m 132 0 q 135 164 133 100 q 137 270 136 228 q 138 344 138 313 q 138 408 138 375 q 138 486 138 440 q 138 565 138 532 q 138 628 138 597 q 137 702 138 660 q 135 808 136 744 q 132 972 133 872 l 447 972 q 577 956 521 972 q 675 906 633 940 q 746 813 717 871 q 778 715 769 768 q 790 603 788 661 q 792 486 792 546 q 790 369 792 426 q 778 258 788 311 q 746 160 769 206 q 675 67 717 103 q 577 16 633 32 q 447 0 521 0 l 132 0 m 433 56 q 576 74 519 56 q 668 122 633 92 q 721 192 703 153 q 756 331 751 254 q 761 486 761 408 q 756 644 761 564 q 721 786 751 724 q 668 855 703 825 q 576 901 633 885 q 433 918 519 918 q 292 917 344 918 q 216 915 240 917 q 185 907 192 913 q 177 892 181 903 q 172 841 174 881 q 169 718 169 801 q 168 486 168 635 q 169 261 168 343 q 171 141 169 179 q 175 90 172 103 q 183 74 178 78 q 217 63 192 67 q 295 57 243 58 q 433 56 347 56 m 408 -242 q 360 -186 360 -242 q 373 -144 360 -158 q 408 -131 386 -131 q 444 -144 431 -131 q 457 -186 457 -158 q 444 -228 457 -214 q 408 -242 431 -242 z "},"Ɗ":{"ha":913,"x_min":17,"x_max":838,"o":"m 178 0 q 181 164 179 100 q 183 270 182 228 q 183 344 183 313 q 183 408 183 375 q 183 486 183 440 q 183 565 183 532 q 183 628 183 597 q 183 702 183 660 q 181 808 182 744 q 178 972 179 872 l 493 972 q 623 956 567 972 q 721 906 679 940 q 792 813 763 871 q 824 715 815 768 q 835 603 833 661 q 838 486 838 546 q 835 369 838 426 q 824 258 833 311 q 792 160 815 206 q 721 67 763 103 q 623 16 679 32 q 493 0 567 0 l 178 0 m 479 56 q 622 74 565 56 q 714 122 679 92 q 767 192 749 153 q 802 331 797 254 q 807 486 807 408 q 802 644 807 564 q 767 786 797 724 q 714 855 749 825 q 622 901 679 885 q 479 918 565 918 q 338 917 390 918 q 262 915 286 917 q 231 907 238 913 q 223 892 226 903 q 217 841 219 881 q 215 718 215 801 q 214 486 214 635 q 215 261 214 343 q 217 141 215 179 q 221 90 218 103 q 229 74 224 78 q 263 63 238 67 q 341 57 289 58 q 479 56 393 56 m 211 936 q 120 932 143 936 q 83 917 97 928 q 65 885 69 906 q 61 850 61 865 q 61 840 61 846 q 62 830 61 835 q 63 819 63 825 l 18 819 q 17 841 17 831 q 17 860 17 851 q 31 926 17 901 q 74 962 46 951 q 139 972 101 972 q 188 972 176 972 q 204 972 199 972 l 211 936 z "},"Ḏ":{"ha":867,"x_min":132,"x_max":792,"o":"m 132 0 q 135 164 133 100 q 137 270 136 228 q 138 344 138 313 q 138 408 138 375 q 138 486 138 440 q 138 565 138 532 q 138 628 138 597 q 137 702 138 660 q 135 808 136 744 q 132 972 133 872 l 447 972 q 577 956 521 972 q 675 906 633 940 q 746 813 717 871 q 778 715 769 768 q 790 603 788 661 q 792 486 792 546 q 790 369 792 426 q 778 258 788 311 q 746 160 769 206 q 675 67 717 103 q 577 16 633 32 q 447 0 521 0 l 132 0 m 433 56 q 576 74 519 56 q 668 122 633 92 q 721 192 703 153 q 756 331 751 254 q 761 486 761 408 q 756 644 761 564 q 721 786 751 724 q 668 855 703 825 q 576 901 633 885 q 433 918 519 918 q 292 917 344 918 q 216 915 240 917 q 185 907 192 913 q 177 892 181 903 q 172 841 174 881 q 169 718 169 801 q 168 486 168 635 q 169 261 168 343 q 171 141 169 179 q 175 90 172 103 q 183 74 178 78 q 217 63 192 67 q 295 57 243 58 q 433 56 347 56 m 275 -207 l 275 -153 q 327 -155 304 -154 q 369 -156 350 -156 q 407 -157 389 -157 q 446 -156 426 -157 q 489 -155 465 -156 q 542 -153 513 -154 l 542 -207 q 489 -205 513 -206 q 446 -203 465 -204 q 407 -203 426 -203 q 369 -203 389 -203 q 327 -205 350 -204 q 275 -207 304 -206 z "},"Ɖ":{"ha":867,"x_min":64,"x_max":792,"o":"m 132 0 q 135 164 133 100 q 137 270 136 228 q 138 344 138 313 q 138 408 138 375 q 138 486 138 440 q 138 565 138 532 q 138 628 138 597 q 137 702 138 660 q 135 808 136 744 q 132 972 133 872 l 447 972 q 577 956 521 972 q 675 906 633 940 q 746 813 717 871 q 778 715 769 768 q 790 603 788 661 q 792 486 792 546 q 790 369 792 426 q 778 258 788 311 q 746 160 769 206 q 675 67 717 103 q 577 16 633 32 q 447 0 521 0 l 132 0 m 433 56 q 576 74 519 56 q 668 122 633 92 q 721 192 703 153 q 756 331 751 254 q 761 486 761 408 q 756 644 761 564 q 721 786 751 724 q 668 855 703 825 q 576 901 633 885 q 433 918 519 918 q 292 917 344 918 q 216 915 240 917 q 185 907 192 913 q 177 892 181 903 q 172 841 174 881 q 169 718 169 801 q 168 486 168 635 q 169 261 168 343 q 171 141 169 179 q 175 90 172 103 q 183 74 178 78 q 217 63 192 67 q 295 57 243 58 q 433 56 347 56 m 64 464 l 64 508 q 133 506 99 507 q 201 506 167 506 q 272 506 238 506 q 342 508 307 507 l 342 464 q 272 467 307 467 q 201 467 238 467 q 133 467 167 467 q 64 464 99 467 z "},"Ð":{"ha":867,"x_min":64,"x_max":792,"o":"m 132 0 q 135 164 133 100 q 137 270 136 228 q 138 344 138 313 q 138 408 138 375 q 138 486 138 440 q 138 565 138 532 q 138 628 138 597 q 137 702 138 660 q 135 808 136 744 q 132 972 133 872 l 447 972 q 577 956 521 972 q 675 906 633 940 q 746 813 717 871 q 778 715 769 768 q 790 603 788 661 q 792 486 792 546 q 790 369 792 426 q 778 258 788 311 q 746 160 769 206 q 675 67 717 103 q 577 16 633 32 q 447 0 521 0 l 132 0 m 433 56 q 576 74 519 56 q 668 122 633 92 q 721 192 703 153 q 756 331 751 254 q 761 486 761 408 q 756 644 761 564 q 721 786 751 724 q 668 855 703 825 q 576 901 633 885 q 433 918 519 918 q 292 917 344 918 q 216 915 240 917 q 185 907 192 913 q 177 892 181 903 q 172 841 174 881 q 169 718 169 801 q 168 486 168 635 q 169 261 168 343 q 171 141 169 179 q 175 90 172 103 q 183 74 178 78 q 217 63 192 67 q 295 57 243 58 q 433 56 347 56 m 64 464 l 64 508 q 133 506 99 507 q 201 506 167 506 q 272 506 238 506 q 342 508 307 507 l 342 464 q 272 467 307 467 q 201 467 238 467 q 133 467 167 467 q 64 464 99 467 z "},"E":{"ha":756,"x_min":132,"x_max":686,"o":"m 132 0 q 135 164 133 100 q 137 270 136 228 q 138 344 138 313 q 138 408 138 375 q 138 486 138 440 q 138 565 138 532 q 138 628 138 597 q 137 702 138 660 q 135 808 136 744 q 132 972 133 872 l 675 972 l 675 922 q 619 922 650 922 q 551 922 588 922 q 477 922 515 922 q 400 922 439 922 q 286 922 328 922 q 224 922 244 922 q 197 919 204 921 q 185 914 189 917 q 174 894 178 908 q 169 843 171 881 q 168 728 168 806 q 169 613 168 651 q 174 561 171 575 q 185 542 178 547 q 201 536 190 538 q 242 534 211 535 q 335 533 272 533 q 396 533 372 533 q 447 534 419 533 q 521 535 475 535 q 647 538 567 536 l 647 488 q 521 490 567 489 q 447 491 475 490 q 396 492 419 492 q 335 492 372 492 q 242 492 272 492 q 201 490 211 492 q 185 483 190 488 q 174 463 178 478 q 169 404 171 447 q 168 271 168 361 q 169 138 168 181 q 174 79 171 94 q 185 58 178 64 q 197 53 189 56 q 224 51 204 51 q 286 50 244 50 q 400 50 328 50 q 480 50 440 50 q 556 50 519 50 q 625 50 592 50 q 686 50 658 50 l 686 0 l 132 0 z "},"É":{"ha":756,"x_min":132,"x_max":686,"o":"m 132 0 q 135 164 133 100 q 137 270 136 228 q 138 344 138 313 q 138 408 138 375 q 138 486 138 440 q 138 565 138 532 q 138 628 138 597 q 137 702 138 660 q 135 808 136 744 q 132 972 133 872 l 675 972 l 675 922 q 619 922 650 922 q 551 922 588 922 q 477 922 515 922 q 400 922 439 922 q 286 922 328 922 q 224 922 244 922 q 197 919 204 921 q 185 914 189 917 q 174 894 178 908 q 169 843 171 881 q 168 728 168 806 q 169 613 168 651 q 174 561 171 575 q 185 542 178 547 q 201 536 190 538 q 242 534 211 535 q 335 533 272 533 q 396 533 372 533 q 447 534 419 533 q 521 535 475 535 q 647 538 567 536 l 647 488 q 521 490 567 489 q 447 491 475 490 q 396 492 419 492 q 335 492 372 492 q 242 492 272 492 q 201 490 211 492 q 185 483 190 488 q 174 463 178 478 q 169 404 171 447 q 168 271 168 361 q 169 138 168 181 q 174 79 171 94 q 185 58 178 64 q 197 53 189 56 q 224 51 204 51 q 286 50 244 50 q 400 50 328 50 q 480 50 440 50 q 556 50 519 50 q 625 50 592 50 q 686 50 658 50 l 686 0 l 132 0 m 392 1071 l 440 1199 l 511 1199 l 435 1071 l 392 1071 z "},"Ě":{"ha":756,"x_min":132,"x_max":686,"o":"m 132 0 q 135 164 133 100 q 137 270 136 228 q 138 344 138 313 q 138 408 138 375 q 138 486 138 440 q 138 565 138 532 q 138 628 138 597 q 137 702 138 660 q 135 808 136 744 q 132 972 133 872 l 675 972 l 675 922 q 619 922 650 922 q 551 922 588 922 q 477 922 515 922 q 400 922 439 922 q 286 922 328 922 q 224 922 244 922 q 197 919 204 921 q 185 914 189 917 q 174 894 178 908 q 169 843 171 881 q 168 728 168 806 q 169 613 168 651 q 174 561 171 575 q 185 542 178 547 q 201 536 190 538 q 242 534 211 535 q 335 533 272 533 q 396 533 372 533 q 447 534 419 533 q 521 535 475 535 q 647 538 567 536 l 647 488 q 521 490 567 489 q 447 491 475 490 q 396 492 419 492 q 335 492 372 492 q 242 492 272 492 q 201 490 211 492 q 185 483 190 488 q 174 463 178 478 q 169 404 171 447 q 168 271 168 361 q 169 138 168 181 q 174 79 171 94 q 185 58 178 64 q 197 53 189 56 q 224 51 204 51 q 286 50 244 50 q 400 50 328 50 q 480 50 440 50 q 556 50 519 50 q 625 50 592 50 q 686 50 658 50 l 686 0 l 132 0 m 372 1071 l 307 1200 l 350 1200 q 382 1149 372 1164 q 397 1131 392 1133 q 410 1128 403 1128 q 423 1131 418 1128 q 438 1149 428 1133 q 469 1200 447 1164 l 513 1200 l 447 1071 l 372 1071 z "},"Ȩ":{"ha":756,"x_min":132,"x_max":686,"o":"m 132 0 q 135 164 133 100 q 137 270 136 228 q 138 344 138 313 q 138 408 138 375 q 138 486 138 440 q 138 565 138 532 q 138 628 138 597 q 137 702 138 660 q 135 808 136 744 q 132 972 133 872 l 675 972 l 675 922 q 619 922 650 922 q 551 922 588 922 q 477 922 515 922 q 400 922 439 922 q 286 922 328 922 q 224 922 244 922 q 197 919 204 921 q 185 914 189 917 q 174 894 178 908 q 169 843 171 881 q 168 728 168 806 q 169 613 168 651 q 174 561 171 575 q 185 542 178 547 q 201 536 190 538 q 242 534 211 535 q 335 533 272 533 q 396 533 372 533 q 447 534 419 533 q 521 535 475 535 q 647 538 567 536 l 647 488 q 521 490 567 489 q 447 491 475 490 q 396 492 419 492 q 335 492 372 492 q 242 492 272 492 q 201 490 211 492 q 185 483 190 488 q 174 463 178 478 q 169 404 171 447 q 168 271 168 361 q 169 138 168 181 q 174 79 171 94 q 185 58 178 64 q 197 53 189 56 q 224 51 204 51 q 286 50 244 50 q 400 50 328 50 q 480 50 440 50 q 556 50 519 50 q 625 50 592 50 q 686 50 658 50 l 686 0 l 132 0 m 324 -233 l 324 -174 q 369 -185 351 -182 q 411 -189 388 -189 q 455 -178 440 -189 q 469 -150 469 -167 q 449 -121 469 -131 q 383 -111 428 -111 q 350 -108 361 -111 q 339 -92 339 -104 q 349 -60 339 -81 q 381 0 360 -39 l 424 0 q 386 -51 393 -39 q 379 -68 379 -62 q 388 -75 379 -74 q 408 -76 396 -76 q 432 -78 419 -76 q 454 -83 444 -81 q 494 -110 478 -92 q 510 -156 510 -128 q 481 -219 510 -194 q 403 -243 453 -243 q 366 -241 385 -243 q 324 -233 347 -239 z "},"Ḝ":{"ha":756,"x_min":132,"x_max":686,"o":"m 132 0 q 135 164 133 100 q 137 270 136 228 q 138 344 138 313 q 138 408 138 375 q 138 486 138 440 q 138 565 138 532 q 138 628 138 597 q 137 702 138 660 q 135 808 136 744 q 132 972 133 872 l 675 972 l 675 922 q 619 922 650 922 q 551 922 588 922 q 477 922 515 922 q 400 922 439 922 q 286 922 328 922 q 224 922 244 922 q 197 919 204 921 q 185 914 189 917 q 174 894 178 908 q 169 843 171 881 q 168 728 168 806 q 169 613 168 651 q 174 561 171 575 q 185 542 178 547 q 201 536 190 538 q 242 534 211 535 q 335 533 272 533 q 396 533 372 533 q 447 534 419 533 q 521 535 475 535 q 647 538 567 536 l 647 488 q 521 490 567 489 q 447 491 475 490 q 396 492 419 492 q 335 492 372 492 q 242 492 272 492 q 201 490 211 492 q 185 483 190 488 q 174 463 178 478 q 169 404 171 447 q 168 271 168 361 q 169 138 168 181 q 174 79 171 94 q 185 58 178 64 q 197 53 189 56 q 224 51 204 51 q 286 50 244 50 q 400 50 328 50 q 480 50 440 50 q 556 50 519 50 q 625 50 592 50 q 686 50 658 50 l 686 0 l 132 0 m 324 -233 l 324 -174 q 369 -185 351 -182 q 411 -189 388 -189 q 455 -178 440 -189 q 469 -150 469 -167 q 449 -121 469 -131 q 383 -111 428 -111 q 350 -108 361 -111 q 339 -92 339 -104 q 349 -60 339 -81 q 381 0 360 -39 l 424 0 q 386 -51 393 -39 q 379 -68 379 -62 q 388 -75 379 -74 q 408 -76 396 -76 q 432 -78 419 -76 q 454 -83 444 -81 q 494 -110 478 -92 q 510 -156 510 -128 q 481 -219 510 -194 q 403 -243 453 -243 q 366 -241 385 -243 q 324 -233 347 -239 m 410 1071 q 349 1085 375 1071 q 307 1128 322 1100 q 292 1197 292 1157 l 350 1197 q 365 1128 350 1151 q 410 1104 379 1104 q 455 1128 440 1104 q 469 1197 469 1151 l 528 1197 q 513 1128 528 1157 q 471 1085 497 1100 q 410 1071 444 1071 z "},"Ê":{"ha":756,"x_min":132,"x_max":686,"o":"m 132 0 q 135 164 133 100 q 137 270 136 228 q 138 344 138 313 q 138 408 138 375 q 138 486 138 440 q 138 565 138 532 q 138 628 138 597 q 137 702 138 660 q 135 808 136 744 q 132 972 133 872 l 675 972 l 675 922 q 619 922 650 922 q 551 922 588 922 q 477 922 515 922 q 400 922 439 922 q 286 922 328 922 q 224 922 244 922 q 197 919 204 921 q 185 914 189 917 q 174 894 178 908 q 169 843 171 881 q 168 728 168 806 q 169 613 168 651 q 174 561 171 575 q 185 542 178 547 q 201 536 190 538 q 242 534 211 535 q 335 533 272 533 q 396 533 372 533 q 447 534 419 533 q 521 535 475 535 q 647 538 567 536 l 647 488 q 521 490 567 489 q 447 491 475 490 q 396 492 419 492 q 335 492 372 492 q 242 492 272 492 q 201 490 211 492 q 185 483 190 488 q 174 463 178 478 q 169 404 171 447 q 168 271 168 361 q 169 138 168 181 q 174 79 171 94 q 185 58 178 64 q 197 53 189 56 q 224 51 204 51 q 286 50 244 50 q 400 50 328 50 q 480 50 440 50 q 556 50 519 50 q 625 50 592 50 q 686 50 658 50 l 686 0 l 132 0 m 307 1069 l 372 1199 l 447 1199 l 513 1069 l 469 1069 q 438 1121 447 1106 q 423 1139 428 1136 q 410 1142 418 1142 q 397 1139 403 1142 q 382 1121 392 1136 q 350 1069 372 1106 l 307 1069 z "},"Ế":{"ha":756,"x_min":132,"x_max":686,"o":"m 132 0 q 135 164 133 100 q 137 270 136 228 q 138 344 138 313 q 138 408 138 375 q 138 486 138 440 q 138 565 138 532 q 138 628 138 597 q 137 702 138 660 q 135 808 136 744 q 132 972 133 872 l 675 972 l 675 922 q 619 922 650 922 q 551 922 588 922 q 477 922 515 922 q 400 922 439 922 q 286 922 328 922 q 224 922 244 922 q 197 919 204 921 q 185 914 189 917 q 174 894 178 908 q 169 843 171 881 q 168 728 168 806 q 169 613 168 651 q 174 561 171 575 q 185 542 178 547 q 201 536 190 538 q 242 534 211 535 q 335 533 272 533 q 396 533 372 533 q 447 534 419 533 q 521 535 475 535 q 647 538 567 536 l 647 488 q 521 490 567 489 q 447 491 475 490 q 396 492 419 492 q 335 492 372 492 q 242 492 272 492 q 201 490 211 492 q 185 483 190 488 q 174 463 178 478 q 169 404 171 447 q 168 271 168 361 q 169 138 168 181 q 174 79 171 94 q 185 58 178 64 q 197 53 189 56 q 224 51 204 51 q 286 50 244 50 q 400 50 328 50 q 480 50 440 50 q 556 50 519 50 q 625 50 592 50 q 686 50 658 50 l 686 0 l 132 0 m 307 1069 l 372 1199 l 447 1199 l 513 1069 l 469 1069 q 438 1121 447 1106 q 423 1139 428 1136 q 410 1142 418 1142 q 397 1139 403 1142 q 382 1121 392 1136 q 350 1069 372 1106 l 307 1069 m 522 1207 l 571 1335 l 642 1335 l 565 1207 l 522 1207 z "},"Ḙ":{"ha":756,"x_min":132,"x_max":686,"o":"m 132 0 q 135 164 133 100 q 137 270 136 228 q 138 344 138 313 q 138 408 138 375 q 138 486 138 440 q 138 565 138 532 q 138 628 138 597 q 137 702 138 660 q 135 808 136 744 q 132 972 133 872 l 675 972 l 675 922 q 619 922 650 922 q 551 922 588 922 q 477 922 515 922 q 400 922 439 922 q 286 922 328 922 q 224 922 244 922 q 197 919 204 921 q 185 914 189 917 q 174 894 178 908 q 169 843 171 881 q 168 728 168 806 q 169 613 168 651 q 174 561 171 575 q 185 542 178 547 q 201 536 190 538 q 242 534 211 535 q 335 533 272 533 q 396 533 372 533 q 447 534 419 533 q 521 535 475 535 q 647 538 567 536 l 647 488 q 521 490 567 489 q 447 491 475 490 q 396 492 419 492 q 335 492 372 492 q 242 492 272 492 q 201 490 211 492 q 185 483 190 488 q 174 463 178 478 q 169 404 171 447 q 168 271 168 361 q 169 138 168 181 q 174 79 171 94 q 185 58 178 64 q 197 53 189 56 q 224 51 204 51 q 286 50 244 50 q 400 50 328 50 q 480 50 440 50 q 556 50 519 50 q 625 50 592 50 q 686 50 658 50 l 686 0 l 132 0 m 297 -254 l 363 -125 l 438 -125 l 503 -254 l 460 -254 q 428 -203 438 -218 q 413 -185 418 -187 q 400 -182 408 -182 q 388 -185 393 -182 q 372 -203 382 -187 q 340 -254 363 -218 l 297 -254 z "},"Ệ":{"ha":756,"x_min":132,"x_max":686,"o":"m 132 0 q 135 164 133 100 q 137 270 136 228 q 138 344 138 313 q 138 408 138 375 q 138 486 138 440 q 138 565 138 532 q 138 628 138 597 q 137 702 138 660 q 135 808 136 744 q 132 972 133 872 l 675 972 l 675 922 q 619 922 650 922 q 551 922 588 922 q 477 922 515 922 q 400 922 439 922 q 286 922 328 922 q 224 922 244 922 q 197 919 204 921 q 185 914 189 917 q 174 894 178 908 q 169 843 171 881 q 168 728 168 806 q 169 613 168 651 q 174 561 171 575 q 185 542 178 547 q 201 536 190 538 q 242 534 211 535 q 335 533 272 533 q 396 533 372 533 q 447 534 419 533 q 521 535 475 535 q 647 538 567 536 l 647 488 q 521 490 567 489 q 447 491 475 490 q 396 492 419 492 q 335 492 372 492 q 242 492 272 492 q 201 490 211 492 q 185 483 190 488 q 174 463 178 478 q 169 404 171 447 q 168 271 168 361 q 169 138 168 181 q 174 79 171 94 q 185 58 178 64 q 197 53 189 56 q 224 51 204 51 q 286 50 244 50 q 400 50 328 50 q 480 50 440 50 q 556 50 519 50 q 625 50 592 50 q 686 50 658 50 l 686 0 l 132 0 m 400 -242 q 351 -186 351 -242 q 365 -144 351 -158 q 400 -131 378 -131 q 435 -144 422 -131 q 449 -186 449 -158 q 435 -228 449 -214 q 400 -242 422 -242 m 307 1069 l 372 1199 l 447 1199 l 513 1069 l 469 1069 q 438 1121 447 1106 q 423 1139 428 1136 q 410 1142 418 1142 q 397 1139 403 1142 q 382 1121 392 1136 q 350 1069 372 1106 l 307 1069 z "},"Ề":{"ha":756,"x_min":132,"x_max":686,"o":"m 132 0 q 135 164 133 100 q 137 270 136 228 q 138 344 138 313 q 138 408 138 375 q 138 486 138 440 q 138 565 138 532 q 138 628 138 597 q 137 702 138 660 q 135 808 136 744 q 132 972 133 872 l 675 972 l 675 922 q 619 922 650 922 q 551 922 588 922 q 477 922 515 922 q 400 922 439 922 q 286 922 328 922 q 224 922 244 922 q 197 919 204 921 q 185 914 189 917 q 174 894 178 908 q 169 843 171 881 q 168 728 168 806 q 169 613 168 651 q 174 561 171 575 q 185 542 178 547 q 201 536 190 538 q 242 534 211 535 q 335 533 272 533 q 396 533 372 533 q 447 534 419 533 q 521 535 475 535 q 647 538 567 536 l 647 488 q 521 490 567 489 q 447 491 475 490 q 396 492 419 492 q 335 492 372 492 q 242 492 272 492 q 201 490 211 492 q 185 483 190 488 q 174 463 178 478 q 169 404 171 447 q 168 271 168 361 q 169 138 168 181 q 174 79 171 94 q 185 58 178 64 q 197 53 189 56 q 224 51 204 51 q 286 50 244 50 q 400 50 328 50 q 480 50 440 50 q 556 50 519 50 q 625 50 592 50 q 686 50 658 50 l 686 0 l 132 0 m 307 1069 l 372 1199 l 447 1199 l 513 1069 l 469 1069 q 438 1121 447 1106 q 423 1139 428 1136 q 410 1142 418 1142 q 397 1139 403 1142 q 382 1121 392 1136 q 350 1069 372 1106 l 307 1069 m 544 1207 l 468 1335 l 539 1335 l 588 1207 l 544 1207 z "},"Ể":{"ha":756,"x_min":132,"x_max":686,"o":"m 132 0 q 135 164 133 100 q 137 270 136 228 q 138 344 138 313 q 138 408 138 375 q 138 486 138 440 q 138 565 138 532 q 138 628 138 597 q 137 702 138 660 q 135 808 136 744 q 132 972 133 872 l 675 972 l 675 922 q 619 922 650 922 q 551 922 588 922 q 477 922 515 922 q 400 922 439 922 q 286 922 328 922 q 224 922 244 922 q 197 919 204 921 q 185 914 189 917 q 174 894 178 908 q 169 843 171 881 q 168 728 168 806 q 169 613 168 651 q 174 561 171 575 q 185 542 178 547 q 201 536 190 538 q 242 534 211 535 q 335 533 272 533 q 396 533 372 533 q 447 534 419 533 q 521 535 475 535 q 647 538 567 536 l 647 488 q 521 490 567 489 q 447 491 475 490 q 396 492 419 492 q 335 492 372 492 q 242 492 272 492 q 201 490 211 492 q 185 483 190 488 q 174 463 178 478 q 169 404 171 447 q 168 271 168 361 q 169 138 168 181 q 174 79 171 94 q 185 58 178 64 q 197 53 189 56 q 224 51 204 51 q 286 50 244 50 q 400 50 328 50 q 480 50 440 50 q 556 50 519 50 q 625 50 592 50 q 686 50 658 50 l 686 0 l 132 0 m 307 1069 l 372 1199 l 447 1199 l 513 1069 l 469 1069 q 438 1121 447 1106 q 423 1139 428 1136 q 410 1142 418 1142 q 397 1139 403 1142 q 382 1121 392 1136 q 350 1069 372 1106 l 307 1069 m 540 1176 l 526 1206 q 560 1233 547 1219 q 572 1263 572 1247 q 529 1296 572 1296 q 485 1290 511 1296 l 485 1346 q 510 1351 497 1350 q 533 1353 522 1353 q 592 1335 567 1353 q 617 1281 617 1317 q 596 1219 617 1246 q 540 1176 575 1193 z "},"Ễ":{"ha":756,"x_min":132,"x_max":686,"o":"m 132 0 q 135 164 133 100 q 137 270 136 228 q 138 344 138 313 q 138 408 138 375 q 138 486 138 440 q 138 565 138 532 q 138 628 138 597 q 137 702 138 660 q 135 808 136 744 q 132 972 133 872 l 675 972 l 675 922 q 619 922 650 922 q 551 922 588 922 q 477 922 515 922 q 400 922 439 922 q 286 922 328 922 q 224 922 244 922 q 197 919 204 921 q 185 914 189 917 q 174 894 178 908 q 169 843 171 881 q 168 728 168 806 q 169 613 168 651 q 174 561 171 575 q 185 542 178 547 q 201 536 190 538 q 242 534 211 535 q 335 533 272 533 q 396 533 372 533 q 447 534 419 533 q 521 535 475 535 q 647 538 567 536 l 647 488 q 521 490 567 489 q 447 491 475 490 q 396 492 419 492 q 335 492 372 492 q 242 492 272 492 q 201 490 211 492 q 185 483 190 488 q 174 463 178 478 q 169 404 171 447 q 168 271 168 361 q 169 138 168 181 q 174 79 171 94 q 185 58 178 64 q 197 53 189 56 q 224 51 204 51 q 286 50 244 50 q 400 50 328 50 q 480 50 440 50 q 556 50 519 50 q 625 50 592 50 q 686 50 658 50 l 686 0 l 132 0 m 307 1069 l 372 1199 l 447 1199 l 513 1069 l 469 1069 q 438 1121 447 1106 q 423 1139 428 1136 q 410 1142 418 1142 q 397 1139 403 1142 q 382 1121 392 1136 q 350 1069 372 1106 l 307 1069 m 461 1288 q 428 1301 442 1288 q 404 1329 415 1315 q 390 1348 397 1340 q 375 1356 382 1356 q 358 1344 367 1356 q 350 1289 350 1333 l 292 1289 q 308 1366 292 1338 q 358 1394 324 1394 q 392 1381 378 1394 q 415 1353 406 1368 q 430 1335 422 1343 q 444 1326 438 1326 q 461 1338 453 1326 q 469 1393 469 1349 l 528 1393 q 513 1317 528 1346 q 461 1288 497 1288 z "},"Ȅ":{"ha":756,"x_min":132,"x_max":686,"o":"m 132 0 q 135 164 133 100 q 137 270 136 228 q 138 344 138 313 q 138 408 138 375 q 138 486 138 440 q 138 565 138 532 q 138 628 138 597 q 137 702 138 660 q 135 808 136 744 q 132 972 133 872 l 675 972 l 675 922 q 619 922 650 922 q 551 922 588 922 q 477 922 515 922 q 400 922 439 922 q 286 922 328 922 q 224 922 244 922 q 197 919 204 921 q 185 914 189 917 q 174 894 178 908 q 169 843 171 881 q 168 728 168 806 q 169 613 168 651 q 174 561 171 575 q 185 542 178 547 q 201 536 190 538 q 242 534 211 535 q 335 533 272 533 q 396 533 372 533 q 447 534 419 533 q 521 535 475 535 q 647 538 567 536 l 647 488 q 521 490 567 489 q 447 491 475 490 q 396 492 419 492 q 335 492 372 492 q 242 492 272 492 q 201 490 211 492 q 185 483 190 488 q 174 463 178 478 q 169 404 171 447 q 168 271 168 361 q 169 138 168 181 q 174 79 171 94 q 185 58 178 64 q 197 53 189 56 q 224 51 204 51 q 286 50 244 50 q 400 50 328 50 q 480 50 440 50 q 556 50 519 50 q 625 50 592 50 q 686 50 658 50 l 686 0 l 132 0 m 472 1069 l 396 1197 l 467 1197 l 515 1069 l 472 1069 m 326 1069 l 250 1197 l 321 1197 l 369 1069 l 326 1069 z "},"Ë":{"ha":756,"x_min":132,"x_max":686,"o":"m 132 0 q 135 164 133 100 q 137 270 136 228 q 138 344 138 313 q 138 408 138 375 q 138 486 138 440 q 138 565 138 532 q 138 628 138 597 q 137 702 138 660 q 135 808 136 744 q 132 972 133 872 l 675 972 l 675 922 q 619 922 650 922 q 551 922 588 922 q 477 922 515 922 q 400 922 439 922 q 286 922 328 922 q 224 922 244 922 q 197 919 204 921 q 185 914 189 917 q 174 894 178 908 q 169 843 171 881 q 168 728 168 806 q 169 613 168 651 q 174 561 171 575 q 185 542 178 547 q 201 536 190 538 q 242 534 211 535 q 335 533 272 533 q 396 533 372 533 q 447 534 419 533 q 521 535 475 535 q 647 538 567 536 l 647 488 q 521 490 567 489 q 447 491 475 490 q 396 492 419 492 q 335 492 372 492 q 242 492 272 492 q 201 490 211 492 q 185 483 190 488 q 174 463 178 478 q 169 404 171 447 q 168 271 168 361 q 169 138 168 181 q 174 79 171 94 q 185 58 178 64 q 197 53 189 56 q 224 51 204 51 q 286 50 244 50 q 400 50 328 50 q 480 50 440 50 q 556 50 519 50 q 625 50 592 50 q 686 50 658 50 l 686 0 l 132 0 m 311 1078 q 263 1133 263 1078 q 276 1175 263 1161 q 311 1189 289 1189 q 347 1175 333 1189 q 360 1133 360 1161 q 347 1092 360 1106 q 311 1078 333 1078 m 514 1078 q 465 1133 465 1078 q 478 1175 465 1161 q 514 1189 492 1189 q 549 1175 536 1189 q 563 1133 563 1161 q 549 1092 563 1106 q 514 1078 536 1078 z "},"Ė":{"ha":756,"x_min":132,"x_max":686,"o":"m 132 0 q 135 164 133 100 q 137 270 136 228 q 138 344 138 313 q 138 408 138 375 q 138 486 138 440 q 138 565 138 532 q 138 628 138 597 q 137 702 138 660 q 135 808 136 744 q 132 972 133 872 l 675 972 l 675 922 q 619 922 650 922 q 551 922 588 922 q 477 922 515 922 q 400 922 439 922 q 286 922 328 922 q 224 922 244 922 q 197 919 204 921 q 185 914 189 917 q 174 894 178 908 q 169 843 171 881 q 168 728 168 806 q 169 613 168 651 q 174 561 171 575 q 185 542 178 547 q 201 536 190 538 q 242 534 211 535 q 335 533 272 533 q 396 533 372 533 q 447 534 419 533 q 521 535 475 535 q 647 538 567 536 l 647 488 q 521 490 567 489 q 447 491 475 490 q 396 492 419 492 q 335 492 372 492 q 242 492 272 492 q 201 490 211 492 q 185 483 190 488 q 174 463 178 478 q 169 404 171 447 q 168 271 168 361 q 169 138 168 181 q 174 79 171 94 q 185 58 178 64 q 197 53 189 56 q 224 51 204 51 q 286 50 244 50 q 400 50 328 50 q 480 50 440 50 q 556 50 519 50 q 625 50 592 50 q 686 50 658 50 l 686 0 l 132 0 m 410 1075 q 361 1131 361 1075 q 374 1172 361 1158 q 410 1186 388 1186 q 445 1172 432 1186 q 458 1131 458 1158 q 445 1089 458 1103 q 410 1075 432 1075 z "},"Ẹ":{"ha":756,"x_min":132,"x_max":686,"o":"m 132 0 q 135 164 133 100 q 137 270 136 228 q 138 344 138 313 q 138 408 138 375 q 138 486 138 440 q 138 565 138 532 q 138 628 138 597 q 137 702 138 660 q 135 808 136 744 q 132 972 133 872 l 675 972 l 675 922 q 619 922 650 922 q 551 922 588 922 q 477 922 515 922 q 400 922 439 922 q 286 922 328 922 q 224 922 244 922 q 197 919 204 921 q 185 914 189 917 q 174 894 178 908 q 169 843 171 881 q 168 728 168 806 q 169 613 168 651 q 174 561 171 575 q 185 542 178 547 q 201 536 190 538 q 242 534 211 535 q 335 533 272 533 q 396 533 372 533 q 447 534 419 533 q 521 535 475 535 q 647 538 567 536 l 647 488 q 521 490 567 489 q 447 491 475 490 q 396 492 419 492 q 335 492 372 492 q 242 492 272 492 q 201 490 211 492 q 185 483 190 488 q 174 463 178 478 q 169 404 171 447 q 168 271 168 361 q 169 138 168 181 q 174 79 171 94 q 185 58 178 64 q 197 53 189 56 q 224 51 204 51 q 286 50 244 50 q 400 50 328 50 q 480 50 440 50 q 556 50 519 50 q 625 50 592 50 q 686 50 658 50 l 686 0 l 132 0 m 400 -242 q 351 -186 351 -242 q 365 -144 351 -158 q 400 -131 378 -131 q 435 -144 422 -131 q 449 -186 449 -158 q 435 -228 449 -214 q 400 -242 422 -242 z "},"È":{"ha":756,"x_min":132,"x_max":686,"o":"m 132 0 q 135 164 133 100 q 137 270 136 228 q 138 344 138 313 q 138 408 138 375 q 138 486 138 440 q 138 565 138 532 q 138 628 138 597 q 137 702 138 660 q 135 808 136 744 q 132 972 133 872 l 675 972 l 675 922 q 619 922 650 922 q 551 922 588 922 q 477 922 515 922 q 400 922 439 922 q 286 922 328 922 q 224 922 244 922 q 197 919 204 921 q 185 914 189 917 q 174 894 178 908 q 169 843 171 881 q 168 728 168 806 q 169 613 168 651 q 174 561 171 575 q 185 542 178 547 q 201 536 190 538 q 242 534 211 535 q 335 533 272 533 q 396 533 372 533 q 447 534 419 533 q 521 535 475 535 q 647 538 567 536 l 647 488 q 521 490 567 489 q 447 491 475 490 q 396 492 419 492 q 335 492 372 492 q 242 492 272 492 q 201 490 211 492 q 185 483 190 488 q 174 463 178 478 q 169 404 171 447 q 168 271 168 361 q 169 138 168 181 q 174 79 171 94 q 185 58 178 64 q 197 53 189 56 q 224 51 204 51 q 286 50 244 50 q 400 50 328 50 q 480 50 440 50 q 556 50 519 50 q 625 50 592 50 q 686 50 658 50 l 686 0 l 132 0 m 385 1071 l 308 1199 l 379 1199 l 428 1071 l 385 1071 z "},"Ẻ":{"ha":756,"x_min":132,"x_max":686,"o":"m 132 0 q 135 164 133 100 q 137 270 136 228 q 138 344 138 313 q 138 408 138 375 q 138 486 138 440 q 138 565 138 532 q 138 628 138 597 q 137 702 138 660 q 135 808 136 744 q 132 972 133 872 l 675 972 l 675 922 q 619 922 650 922 q 551 922 588 922 q 477 922 515 922 q 400 922 439 922 q 286 922 328 922 q 224 922 244 922 q 197 919 204 921 q 185 914 189 917 q 174 894 178 908 q 169 843 171 881 q 168 728 168 806 q 169 613 168 651 q 174 561 171 575 q 185 542 178 547 q 201 536 190 538 q 242 534 211 535 q 335 533 272 533 q 396 533 372 533 q 447 534 419 533 q 521 535 475 535 q 647 538 567 536 l 647 488 q 521 490 567 489 q 447 491 475 490 q 396 492 419 492 q 335 492 372 492 q 242 492 272 492 q 201 490 211 492 q 185 483 190 488 q 174 463 178 478 q 169 404 171 447 q 168 271 168 361 q 169 138 168 181 q 174 79 171 94 q 185 58 178 64 q 197 53 189 56 q 224 51 204 51 q 286 50 244 50 q 400 50 328 50 q 480 50 440 50 q 556 50 519 50 q 625 50 592 50 q 686 50 658 50 l 686 0 l 132 0 m 399 1061 l 385 1090 q 418 1118 406 1104 q 431 1147 431 1132 q 388 1181 431 1181 q 343 1175 369 1181 l 343 1231 q 368 1236 356 1235 q 392 1238 381 1238 q 450 1219 425 1238 q 475 1165 475 1201 q 454 1104 475 1131 q 399 1061 433 1078 z "},"Ȇ":{"ha":756,"x_min":132,"x_max":686,"o":"m 132 0 q 135 164 133 100 q 137 270 136 228 q 138 344 138 313 q 138 408 138 375 q 138 486 138 440 q 138 565 138 532 q 138 628 138 597 q 137 702 138 660 q 135 808 136 744 q 132 972 133 872 l 675 972 l 675 922 q 619 922 650 922 q 551 922 588 922 q 477 922 515 922 q 400 922 439 922 q 286 922 328 922 q 224 922 244 922 q 197 919 204 921 q 185 914 189 917 q 174 894 178 908 q 169 843 171 881 q 168 728 168 806 q 169 613 168 651 q 174 561 171 575 q 185 542 178 547 q 201 536 190 538 q 242 534 211 535 q 335 533 272 533 q 396 533 372 533 q 447 534 419 533 q 521 535 475 535 q 647 538 567 536 l 647 488 q 521 490 567 489 q 447 491 475 490 q 396 492 419 492 q 335 492 372 492 q 242 492 272 492 q 201 490 211 492 q 185 483 190 488 q 174 463 178 478 q 169 404 171 447 q 168 271 168 361 q 169 138 168 181 q 174 79 171 94 q 185 58 178 64 q 197 53 189 56 q 224 51 204 51 q 286 50 244 50 q 400 50 328 50 q 480 50 440 50 q 556 50 519 50 q 625 50 592 50 q 686 50 658 50 l 686 0 l 132 0 m 292 1071 q 307 1140 292 1113 q 349 1182 322 1168 q 410 1196 375 1196 q 471 1182 444 1196 q 513 1140 497 1168 q 528 1071 528 1113 l 469 1071 q 455 1140 469 1118 q 410 1163 440 1163 q 365 1140 379 1163 q 350 1071 350 1118 l 292 1071 z "},"Ē":{"ha":756,"x_min":132,"x_max":686,"o":"m 132 0 q 135 164 133 100 q 137 270 136 228 q 138 344 138 313 q 138 408 138 375 q 138 486 138 440 q 138 565 138 532 q 138 628 138 597 q 137 702 138 660 q 135 808 136 744 q 132 972 133 872 l 675 972 l 675 922 q 619 922 650 922 q 551 922 588 922 q 477 922 515 922 q 400 922 439 922 q 286 922 328 922 q 224 922 244 922 q 197 919 204 921 q 185 914 189 917 q 174 894 178 908 q 169 843 171 881 q 168 728 168 806 q 169 613 168 651 q 174 561 171 575 q 185 542 178 547 q 201 536 190 538 q 242 534 211 535 q 335 533 272 533 q 396 533 372 533 q 447 534 419 533 q 521 535 475 535 q 647 538 567 536 l 647 488 q 521 490 567 489 q 447 491 475 490 q 396 492 419 492 q 335 492 372 492 q 242 492 272 492 q 201 490 211 492 q 185 483 190 488 q 174 463 178 478 q 169 404 171 447 q 168 271 168 361 q 169 138 168 181 q 174 79 171 94 q 185 58 178 64 q 197 53 189 56 q 224 51 204 51 q 286 50 244 50 q 400 50 328 50 q 480 50 440 50 q 556 50 519 50 q 625 50 592 50 q 686 50 658 50 l 686 0 l 132 0 m 268 1089 l 268 1143 q 323 1141 299 1142 q 368 1140 347 1140 q 408 1139 389 1139 q 450 1140 429 1139 q 496 1141 471 1140 q 551 1143 521 1142 l 551 1089 q 496 1091 521 1090 q 449 1092 471 1092 q 407 1093 428 1093 q 367 1092 388 1093 q 323 1091 347 1092 q 268 1089 299 1090 z "},"Ḗ":{"ha":756,"x_min":132,"x_max":686,"o":"m 132 0 q 135 164 133 100 q 137 270 136 228 q 138 344 138 313 q 138 408 138 375 q 138 486 138 440 q 138 565 138 532 q 138 628 138 597 q 137 702 138 660 q 135 808 136 744 q 132 972 133 872 l 675 972 l 675 922 q 619 922 650 922 q 551 922 588 922 q 477 922 515 922 q 400 922 439 922 q 286 922 328 922 q 224 922 244 922 q 197 919 204 921 q 185 914 189 917 q 174 894 178 908 q 169 843 171 881 q 168 728 168 806 q 169 613 168 651 q 174 561 171 575 q 185 542 178 547 q 201 536 190 538 q 242 534 211 535 q 335 533 272 533 q 396 533 372 533 q 447 534 419 533 q 521 535 475 535 q 647 538 567 536 l 647 488 q 521 490 567 489 q 447 491 475 490 q 396 492 419 492 q 335 492 372 492 q 242 492 272 492 q 201 490 211 492 q 185 483 190 488 q 174 463 178 478 q 169 404 171 447 q 168 271 168 361 q 169 138 168 181 q 174 79 171 94 q 185 58 178 64 q 197 53 189 56 q 224 51 204 51 q 286 50 244 50 q 400 50 328 50 q 480 50 440 50 q 556 50 519 50 q 625 50 592 50 q 686 50 658 50 l 686 0 l 132 0 m 268 1089 l 268 1143 q 323 1141 299 1142 q 368 1140 347 1140 q 408 1139 389 1139 q 450 1140 429 1139 q 496 1141 471 1140 q 551 1143 521 1142 l 551 1089 q 496 1091 521 1090 q 449 1092 471 1092 q 407 1093 428 1093 q 367 1092 388 1093 q 323 1091 347 1092 q 268 1089 299 1090 m 392 1260 l 440 1388 l 511 1388 l 435 1260 l 392 1260 z "},"Ḕ":{"ha":756,"x_min":132,"x_max":686,"o":"m 132 0 q 135 164 133 100 q 137 270 136 228 q 138 344 138 313 q 138 408 138 375 q 138 486 138 440 q 138 565 138 532 q 138 628 138 597 q 137 702 138 660 q 135 808 136 744 q 132 972 133 872 l 675 972 l 675 922 q 619 922 650 922 q 551 922 588 922 q 477 922 515 922 q 400 922 439 922 q 286 922 328 922 q 224 922 244 922 q 197 919 204 921 q 185 914 189 917 q 174 894 178 908 q 169 843 171 881 q 168 728 168 806 q 169 613 168 651 q 174 561 171 575 q 185 542 178 547 q 201 536 190 538 q 242 534 211 535 q 335 533 272 533 q 396 533 372 533 q 447 534 419 533 q 521 535 475 535 q 647 538 567 536 l 647 488 q 521 490 567 489 q 447 491 475 490 q 396 492 419 492 q 335 492 372 492 q 242 492 272 492 q 201 490 211 492 q 185 483 190 488 q 174 463 178 478 q 169 404 171 447 q 168 271 168 361 q 169 138 168 181 q 174 79 171 94 q 185 58 178 64 q 197 53 189 56 q 224 51 204 51 q 286 50 244 50 q 400 50 328 50 q 480 50 440 50 q 556 50 519 50 q 625 50 592 50 q 686 50 658 50 l 686 0 l 132 0 m 268 1089 l 268 1143 q 323 1141 299 1142 q 368 1140 347 1140 q 408 1139 389 1139 q 450 1140 429 1139 q 496 1141 471 1140 q 551 1143 521 1142 l 551 1089 q 496 1091 521 1090 q 449 1092 471 1092 q 407 1093 428 1093 q 367 1092 388 1093 q 323 1091 347 1092 q 268 1089 299 1090 m 385 1260 l 308 1388 l 379 1388 l 428 1260 l 385 1260 z "},"Ę":{"ha":756,"x_min":132,"x_max":686,"o":"m 132 0 q 135 164 133 100 q 137 270 136 228 q 138 344 138 313 q 138 408 138 375 q 138 486 138 440 q 138 565 138 532 q 138 628 138 597 q 137 702 138 660 q 135 808 136 744 q 132 972 133 872 l 675 972 l 675 922 q 619 922 650 922 q 551 922 588 922 q 477 922 515 922 q 400 922 439 922 q 286 922 328 922 q 224 922 244 922 q 197 919 204 921 q 185 914 189 917 q 174 894 178 908 q 169 843 171 881 q 168 728 168 806 q 169 613 168 651 q 174 561 171 575 q 185 542 178 547 q 201 536 190 538 q 242 534 211 535 q 335 533 272 533 q 396 533 372 533 q 447 534 419 533 q 521 535 475 535 q 647 538 567 536 l 647 488 q 521 490 567 489 q 447 491 475 490 q 396 492 419 492 q 335 492 372 492 q 242 492 272 492 q 201 490 211 492 q 185 483 190 488 q 174 463 178 478 q 169 404 171 447 q 168 271 168 361 q 169 138 168 181 q 174 79 171 94 q 185 58 178 64 q 197 53 189 56 q 224 51 204 51 q 286 50 244 50 q 400 50 328 50 q 480 50 440 50 q 556 50 519 50 q 625 50 592 50 q 686 50 658 50 l 686 0 l 132 0 m 610 -239 q 559 -219 583 -239 q 535 -158 535 -199 q 560 -80 535 -121 q 650 17 585 -39 l 686 0 q 602 -85 624 -47 q 581 -147 581 -124 q 592 -181 581 -169 q 619 -192 603 -192 q 653 -187 638 -192 q 686 -175 669 -182 l 686 -217 q 648 -233 667 -226 q 610 -239 629 -239 z "},"Ɛ":{"ha":682,"x_min":63,"x_max":613,"o":"m 613 15 q 514 -12 567 -3 q 401 -22 461 -22 q 213 15 288 -22 q 100 116 138 51 q 63 263 63 181 q 78 357 63 313 q 127 438 94 401 q 208 496 160 474 q 235 514 235 508 q 229 522 235 517 q 208 536 224 526 q 144 597 169 563 q 106 669 118 631 q 93 747 93 708 q 129 878 93 824 q 231 964 165 933 q 381 994 296 994 q 487 985 435 994 q 585 958 539 976 l 585 894 q 489 928 543 915 q 369 942 435 942 q 249 919 304 942 q 161 851 194 896 q 128 743 128 807 q 154 644 128 694 q 234 562 181 594 q 367 529 288 529 q 427 530 394 529 q 499 532 460 531 l 499 486 q 429 489 460 489 q 350 489 399 489 q 215 458 271 489 q 128 378 158 428 q 99 274 99 329 q 173 97 99 164 q 386 31 247 31 q 516 43 461 31 q 613 78 571 56 l 613 15 z "},"Ǝ":{"ha":756,"x_min":69,"x_max":624,"o":"m 624 0 l 69 0 l 69 50 q 131 50 97 50 q 200 50 164 50 q 276 50 236 50 q 356 50 315 50 q 469 50 428 50 q 531 51 511 50 q 559 53 551 51 q 571 58 567 56 q 581 79 578 64 q 586 138 585 94 q 588 271 588 181 q 586 404 588 361 q 581 463 585 447 q 571 483 578 478 q 555 490 565 488 q 515 492 544 492 q 421 492 485 492 q 360 492 383 492 q 308 491 336 492 q 235 490 281 490 q 108 488 189 489 l 108 538 q 235 535 189 536 q 308 534 281 535 q 360 533 336 533 q 421 533 383 533 q 515 534 485 533 q 555 536 544 535 q 571 542 565 538 q 581 561 578 547 q 586 613 585 575 q 588 728 588 651 q 586 843 588 806 q 581 894 585 881 q 571 914 578 908 q 559 919 567 917 q 531 922 551 921 q 469 922 511 922 q 356 922 428 922 q 278 922 317 922 q 204 922 240 922 q 137 922 168 922 q 81 922 106 922 l 81 972 l 624 972 q 621 808 622 872 q 619 702 619 744 q 618 628 618 660 q 618 565 618 597 q 618 486 618 532 q 618 408 618 440 q 618 344 618 375 q 619 270 618 313 q 621 164 619 228 q 624 0 622 100 z "},"Ʃ":{"ha":746,"x_min":132,"x_max":676,"o":"m 132 0 l 132 183 q 327 313 251 263 q 444 392 403 363 q 505 438 486 421 q 527 464 524 454 q 531 486 531 474 q 527 508 531 499 q 505 535 524 518 q 444 581 486 551 q 327 660 403 610 q 132 789 251 710 l 132 972 l 676 972 l 676 922 q 500 922 588 922 q 324 922 413 922 q 238 922 265 922 q 201 919 210 921 q 185 914 192 918 q 172 894 175 908 q 168 860 168 881 q 171 831 168 843 q 188 806 174 819 q 236 770 203 793 q 329 707 269 747 q 428 639 368 681 q 569 539 489 597 l 569 433 q 428 333 489 375 q 329 265 368 292 q 236 202 269 225 q 188 166 203 179 q 171 141 174 153 q 168 113 168 129 q 172 78 168 92 q 185 58 175 65 q 201 53 192 56 q 238 51 210 51 q 324 50 265 50 q 500 50 413 50 q 676 50 588 50 l 676 0 l 132 0 z "},"Ɇ":{"ha":756,"x_min":132,"x_max":686,"o":"m 132 0 q 135 164 133 100 q 137 270 136 228 q 138 344 138 313 q 138 408 138 375 q 138 486 138 440 q 138 565 138 532 q 138 628 138 597 q 137 702 138 660 q 135 808 136 744 q 132 972 133 872 l 675 972 l 675 922 q 619 922 650 922 q 551 922 588 922 q 477 922 515 922 q 400 922 439 922 q 286 922 328 922 q 224 922 244 922 q 197 919 204 921 q 185 914 189 917 q 174 894 178 908 q 169 843 171 881 q 168 728 168 806 q 169 613 168 651 q 174 561 171 575 q 185 542 178 547 q 201 536 190 538 q 242 534 211 535 q 335 533 272 533 q 396 533 372 533 q 447 534 419 533 q 521 535 475 535 q 647 538 567 536 l 647 488 q 521 490 567 489 q 447 491 475 490 q 396 492 419 492 q 335 492 372 492 q 242 492 272 492 q 201 490 211 492 q 185 483 190 488 q 174 463 178 478 q 169 404 171 447 q 168 271 168 361 q 169 138 168 181 q 174 79 171 94 q 185 58 178 64 q 197 53 189 56 q 224 51 204 51 q 286 50 244 50 q 400 50 328 50 q 480 50 440 50 q 556 50 519 50 q 625 50 592 50 q 686 50 658 50 l 686 0 l 132 0 m 161 -132 q 263 159 211 10 q 367 460 315 308 q 467 760 418 611 q 560 1051 515 910 l 607 1051 q 504 760 556 910 q 403 460 453 611 q 303 159 353 308 q 208 -132 254 10 l 161 -132 z "},"Ẽ":{"ha":756,"x_min":132,"x_max":686,"o":"m 132 0 q 135 164 133 100 q 137 270 136 228 q 138 344 138 313 q 138 408 138 375 q 138 486 138 440 q 138 565 138 532 q 138 628 138 597 q 137 702 138 660 q 135 808 136 744 q 132 972 133 872 l 675 972 l 675 922 q 619 922 650 922 q 551 922 588 922 q 477 922 515 922 q 400 922 439 922 q 286 922 328 922 q 224 922 244 922 q 197 919 204 921 q 185 914 189 917 q 174 894 178 908 q 169 843 171 881 q 168 728 168 806 q 169 613 168 651 q 174 561 171 575 q 185 542 178 547 q 201 536 190 538 q 242 534 211 535 q 335 533 272 533 q 396 533 372 533 q 447 534 419 533 q 521 535 475 535 q 647 538 567 536 l 647 488 q 521 490 567 489 q 447 491 475 490 q 396 492 419 492 q 335 492 372 492 q 242 492 272 492 q 201 490 211 492 q 185 483 190 488 q 174 463 178 478 q 169 404 171 447 q 168 271 168 361 q 169 138 168 181 q 174 79 171 94 q 185 58 178 64 q 197 53 189 56 q 224 51 204 51 q 286 50 244 50 q 400 50 328 50 q 480 50 440 50 q 556 50 519 50 q 625 50 592 50 q 686 50 658 50 l 686 0 l 132 0 m 461 1079 q 428 1093 442 1079 q 404 1121 415 1107 q 390 1140 397 1132 q 375 1147 382 1147 q 358 1136 367 1147 q 350 1081 350 1125 l 292 1081 q 308 1158 292 1129 q 358 1186 324 1186 q 392 1173 378 1186 q 415 1144 406 1160 q 430 1126 422 1135 q 444 1118 438 1118 q 461 1129 453 1118 q 469 1185 469 1140 l 528 1185 q 513 1108 528 1138 q 461 1079 497 1079 z "},"Ḛ":{"ha":756,"x_min":132,"x_max":686,"o":"m 132 0 q 135 164 133 100 q 137 270 136 228 q 138 344 138 313 q 138 408 138 375 q 138 486 138 440 q 138 565 138 532 q 138 628 138 597 q 137 702 138 660 q 135 808 136 744 q 132 972 133 872 l 675 972 l 675 922 q 619 922 650 922 q 551 922 588 922 q 477 922 515 922 q 400 922 439 922 q 286 922 328 922 q 224 922 244 922 q 197 919 204 921 q 185 914 189 917 q 174 894 178 908 q 169 843 171 881 q 168 728 168 806 q 169 613 168 651 q 174 561 171 575 q 185 542 178 547 q 201 536 190 538 q 242 534 211 535 q 335 533 272 533 q 396 533 372 533 q 447 534 419 533 q 521 535 475 535 q 647 538 567 536 l 647 488 q 521 490 567 489 q 447 491 475 490 q 396 492 419 492 q 335 492 372 492 q 242 492 272 492 q 201 490 211 492 q 185 483 190 488 q 174 463 178 478 q 169 404 171 447 q 168 271 168 361 q 169 138 168 181 q 174 79 171 94 q 185 58 178 64 q 197 53 189 56 q 224 51 204 51 q 286 50 244 50 q 400 50 328 50 q 480 50 440 50 q 556 50 519 50 q 625 50 592 50 q 686 50 658 50 l 686 0 l 132 0 m 451 -246 q 419 -232 432 -246 q 394 -204 406 -218 q 380 -185 388 -193 q 365 -178 372 -178 q 349 -189 357 -178 q 340 -244 340 -200 l 282 -244 q 298 -167 282 -196 q 349 -139 314 -139 q 382 -152 368 -139 q 406 -181 396 -165 q 420 -199 413 -190 q 435 -207 428 -207 q 451 -196 443 -207 q 460 -140 460 -185 l 518 -140 q 503 -217 518 -187 q 451 -246 488 -246 z "},"Ə":{"ha":899,"x_min":75,"x_max":824,"o":"m 443 -22 q 235 43 317 -22 q 114 231 153 108 q 75 524 75 353 l 792 524 q 738 742 782 647 q 610 892 693 838 q 400 946 528 946 q 306 938 357 946 q 206 916 256 929 q 119 885 157 903 l 119 946 q 220 974 171 963 q 314 990 269 985 q 396 994 358 994 q 642 931 549 994 q 780 756 736 868 q 824 500 824 644 q 781 208 824 324 q 653 35 738 92 q 443 -22 568 -22 m 443 33 q 626 78 550 33 q 744 222 701 124 q 792 482 788 321 l 108 482 q 153 235 108 335 q 273 84 197 135 q 443 33 349 33 z "},"Ʒ":{"ha":707,"x_min":88,"x_max":639,"o":"m 88 15 l 88 78 q 184 43 129 56 q 314 31 239 31 q 528 98 453 31 q 603 268 603 165 q 578 385 603 338 q 516 461 554 432 q 433 505 478 490 q 349 525 389 519 q 296 530 317 529 q 256 531 275 531 l 256 583 q 319 629 286 606 q 385 678 351 653 q 451 729 418 704 q 515 779 485 754 q 554 822 549 806 q 560 871 560 838 q 554 907 560 896 q 519 920 549 918 q 421 922 490 922 q 326 922 369 922 q 233 922 282 922 q 115 922 185 922 l 115 972 l 592 972 l 592 793 q 489 710 535 746 q 398 640 443 674 q 299 568 353 607 q 374 561 331 568 q 465 537 418 554 q 551 486 511 519 q 615 400 590 453 q 639 269 639 347 q 601 122 639 188 q 488 17 564 56 q 299 -22 413 -22 q 223 -18 260 -22 q 152 -6 186 -14 q 88 15 118 3 z "},"Ǯ":{"ha":707,"x_min":88,"x_max":639,"o":"m 88 15 l 88 78 q 184 43 129 56 q 314 31 239 31 q 528 98 453 31 q 603 268 603 165 q 578 385 603 338 q 516 461 554 432 q 433 505 478 490 q 349 525 389 519 q 296 530 317 529 q 256 531 275 531 l 256 583 q 319 629 286 606 q 385 678 351 653 q 451 729 418 704 q 515 779 485 754 q 554 822 549 806 q 560 871 560 838 q 554 907 560 896 q 519 920 549 918 q 421 922 490 922 q 326 922 369 922 q 233 922 282 922 q 115 922 185 922 l 115 972 l 592 972 l 592 793 q 489 710 535 746 q 398 640 443 674 q 299 568 353 607 q 374 561 331 568 q 465 537 418 554 q 551 486 511 519 q 615 400 590 453 q 639 269 639 347 q 601 122 639 188 q 488 17 564 56 q 299 -22 413 -22 q 223 -18 260 -22 q 152 -6 186 -14 q 88 15 118 3 m 324 1071 l 258 1200 l 301 1200 q 333 1149 324 1164 q 349 1131 343 1133 q 361 1128 354 1128 q 374 1131 369 1128 q 389 1149 379 1133 q 421 1200 399 1164 l 464 1200 l 399 1071 l 324 1071 z "},"Ƹ":{"ha":707,"x_min":68,"x_max":619,"o":"m 619 15 q 555 -6 589 3 q 485 -18 521 -14 q 408 -22 449 -22 q 219 17 294 -22 q 106 122 143 56 q 68 269 68 188 q 92 400 68 347 q 156 486 117 453 q 242 537 196 519 q 333 561 289 554 q 408 568 376 568 q 309 640 354 607 q 218 710 264 674 q 115 793 172 746 l 115 972 l 592 972 l 592 922 q 474 922 524 922 q 382 922 425 922 q 286 922 339 922 q 188 920 217 922 q 153 907 158 918 q 147 871 147 896 q 153 822 147 838 q 192 779 158 806 q 256 729 224 754 q 322 678 289 704 q 388 629 356 653 q 451 583 421 606 l 451 531 q 412 530 433 531 q 358 525 390 529 q 274 505 318 519 q 191 461 229 490 q 128 385 153 432 q 104 268 104 338 q 179 98 104 165 q 393 31 254 31 q 523 43 468 31 q 619 78 578 56 l 619 15 z "},"F":{"ha":731,"x_min":132,"x_max":661,"o":"m 132 0 q 135 164 133 100 q 137 270 136 228 q 138 344 138 313 q 138 408 138 375 q 138 486 138 440 q 138 565 138 532 q 138 628 138 597 q 137 702 138 660 q 135 808 136 744 q 132 972 133 872 l 661 972 l 661 922 q 606 922 635 922 q 544 922 576 922 q 476 922 513 922 q 400 922 440 922 q 286 922 328 922 q 224 922 244 922 q 195 919 203 921 q 183 914 188 917 q 173 894 176 908 q 168 841 169 881 q 167 721 167 801 q 168 601 167 640 q 173 547 169 561 q 183 526 176 532 q 199 521 189 522 q 238 519 210 519 q 326 518 267 518 q 388 518 364 518 q 440 519 413 518 q 514 520 468 519 q 640 522 560 521 l 640 472 q 514 474 560 474 q 440 476 468 475 q 389 476 413 476 q 328 476 365 476 q 239 476 268 476 q 199 473 210 475 q 183 467 189 471 q 172 435 174 458 q 169 342 169 411 q 172 209 169 292 q 179 0 174 126 l 132 0 z "},"Ḟ":{"ha":731,"x_min":132,"x_max":661,"o":"m 132 0 q 135 164 133 100 q 137 270 136 228 q 138 344 138 313 q 138 408 138 375 q 138 486 138 440 q 138 565 138 532 q 138 628 138 597 q 137 702 138 660 q 135 808 136 744 q 132 972 133 872 l 661 972 l 661 922 q 606 922 635 922 q 544 922 576 922 q 476 922 513 922 q 400 922 440 922 q 286 922 328 922 q 224 922 244 922 q 195 919 203 921 q 183 914 188 917 q 173 894 176 908 q 168 841 169 881 q 167 721 167 801 q 168 601 167 640 q 173 547 169 561 q 183 526 176 532 q 199 521 189 522 q 238 519 210 519 q 326 518 267 518 q 388 518 364 518 q 440 519 413 518 q 514 520 468 519 q 640 522 560 521 l 640 472 q 514 474 560 474 q 440 476 468 475 q 389 476 413 476 q 328 476 365 476 q 239 476 268 476 q 199 473 210 475 q 183 467 189 471 q 172 435 174 458 q 169 342 169 411 q 172 209 169 292 q 179 0 174 126 l 132 0 m 449 1075 q 400 1131 400 1075 q 413 1172 400 1158 q 449 1186 426 1186 q 484 1172 471 1186 q 497 1131 497 1158 q 484 1089 497 1103 q 449 1075 471 1075 z "},"Ƒ":{"ha":731,"x_min":-107,"x_max":661,"o":"m -107 -258 l -107 -200 q -53 -224 -87 -211 q 17 -236 -18 -236 q 90 -215 67 -236 q 122 -167 114 -194 q 132 -121 131 -139 q 135 -29 135 -87 q 137 108 136 29 q 138 283 138 188 q 138 486 138 379 q 138 565 138 532 q 138 628 138 597 q 137 702 138 660 q 135 808 136 744 q 132 972 133 872 l 661 972 l 661 922 q 595 922 628 922 q 531 922 563 922 q 466 922 499 922 q 400 922 433 922 q 286 922 328 922 q 224 922 244 922 q 195 919 203 921 q 183 914 188 917 q 173 894 176 908 q 168 841 169 881 q 167 721 167 801 q 168 601 167 640 q 173 547 169 561 q 183 526 176 532 q 199 521 189 522 q 238 519 210 519 q 326 518 267 518 q 388 518 364 518 q 440 519 413 518 q 514 520 468 519 q 640 522 560 521 l 640 472 q 514 474 560 474 q 440 476 468 475 q 389 476 413 476 q 328 476 365 476 q 239 476 268 476 q 199 473 210 475 q 183 467 189 471 q 172 435 174 458 q 169 342 169 411 q 169 202 169 257 q 169 110 169 147 q 169 42 169 72 q 169 -24 169 11 q 169 -112 169 -60 q 157 -200 169 -164 q 117 -257 144 -236 q 71 -280 96 -272 q 18 -287 46 -287 q -47 -278 -14 -287 q -107 -258 -79 -269 z "},"G":{"ha":813,"x_min":75,"x_max":738,"o":"m 489 -22 q 268 41 361 -22 q 125 219 175 104 q 75 486 75 333 q 128 757 75 643 q 276 933 181 871 q 501 994 372 994 q 574 990 536 994 q 649 977 611 986 q 721 956 688 968 l 721 886 q 600 928 658 914 q 485 943 542 943 q 341 916 407 943 q 226 840 275 889 q 139 693 171 782 q 107 486 107 604 q 141 272 107 367 q 243 117 175 178 q 350 52 289 75 q 488 29 411 29 q 566 34 525 29 q 642 48 607 39 q 694 67 678 57 q 694 152 694 119 q 694 215 694 185 q 692 286 693 244 q 689 399 692 328 l 738 399 q 735 285 736 328 q 733 209 733 242 q 732 135 732 176 q 732 25 732 94 q 667 2 708 13 q 578 -15 625 -8 q 489 -22 531 -22 z "},"Ǵ":{"ha":813,"x_min":75,"x_max":738,"o":"m 489 -22 q 268 41 361 -22 q 125 219 175 104 q 75 486 75 333 q 128 757 75 643 q 276 933 181 871 q 501 994 372 994 q 574 990 536 994 q 649 977 611 986 q 721 956 688 968 l 721 886 q 600 928 658 914 q 485 943 542 943 q 341 916 407 943 q 226 840 275 889 q 139 693 171 782 q 107 486 107 604 q 141 272 107 367 q 243 117 175 178 q 350 52 289 75 q 488 29 411 29 q 566 34 525 29 q 642 48 607 39 q 694 67 678 57 q 694 152 694 119 q 694 215 694 185 q 692 286 693 244 q 689 399 692 328 l 738 399 q 735 285 736 328 q 733 209 733 242 q 732 135 732 176 q 732 25 732 94 q 667 2 708 13 q 578 -15 625 -8 q 489 -22 531 -22 m 442 1071 l 490 1199 l 561 1199 l 485 1071 l 442 1071 z "},"Ğ":{"ha":813,"x_min":75,"x_max":738,"o":"m 489 -22 q 268 41 361 -22 q 125 219 175 104 q 75 486 75 333 q 128 757 75 643 q 276 933 181 871 q 501 994 372 994 q 574 990 536 994 q 649 977 611 986 q 721 956 688 968 l 721 886 q 600 928 658 914 q 485 943 542 943 q 341 916 407 943 q 226 840 275 889 q 139 693 171 782 q 107 486 107 604 q 141 272 107 367 q 243 117 175 178 q 350 52 289 75 q 488 29 411 29 q 566 34 525 29 q 642 48 607 39 q 694 67 678 57 q 694 152 694 119 q 694 215 694 185 q 692 286 693 244 q 689 399 692 328 l 738 399 q 735 285 736 328 q 733 209 733 242 q 732 135 732 176 q 732 25 732 94 q 667 2 708 13 q 578 -15 625 -8 q 489 -22 531 -22 m 460 1071 q 399 1085 425 1071 q 357 1128 372 1100 q 342 1197 342 1157 l 400 1197 q 415 1128 400 1151 q 460 1104 429 1104 q 505 1128 490 1104 q 519 1197 519 1151 l 578 1197 q 563 1128 578 1157 q 521 1085 547 1100 q 460 1071 494 1071 z "},"Ǧ":{"ha":813,"x_min":75,"x_max":738,"o":"m 489 -22 q 268 41 361 -22 q 125 219 175 104 q 75 486 75 333 q 128 757 75 643 q 276 933 181 871 q 501 994 372 994 q 574 990 536 994 q 649 977 611 986 q 721 956 688 968 l 721 886 q 600 928 658 914 q 485 943 542 943 q 341 916 407 943 q 226 840 275 889 q 139 693 171 782 q 107 486 107 604 q 141 272 107 367 q 243 117 175 178 q 350 52 289 75 q 488 29 411 29 q 566 34 525 29 q 642 48 607 39 q 694 67 678 57 q 694 152 694 119 q 694 215 694 185 q 692 286 693 244 q 689 399 692 328 l 738 399 q 735 285 736 328 q 733 209 733 242 q 732 135 732 176 q 732 25 732 94 q 667 2 708 13 q 578 -15 625 -8 q 489 -22 531 -22 m 422 1071 l 357 1200 l 400 1200 q 432 1149 422 1164 q 447 1131 442 1133 q 460 1128 453 1128 q 473 1131 468 1128 q 488 1149 478 1133 q 519 1200 497 1164 l 563 1200 l 497 1071 l 422 1071 z "},"Ĝ":{"ha":813,"x_min":75,"x_max":738,"o":"m 489 -22 q 268 41 361 -22 q 125 219 175 104 q 75 486 75 333 q 128 757 75 643 q 276 933 181 871 q 501 994 372 994 q 574 990 536 994 q 649 977 611 986 q 721 956 688 968 l 721 886 q 600 928 658 914 q 485 943 542 943 q 341 916 407 943 q 226 840 275 889 q 139 693 171 782 q 107 486 107 604 q 141 272 107 367 q 243 117 175 178 q 350 52 289 75 q 488 29 411 29 q 566 34 525 29 q 642 48 607 39 q 694 67 678 57 q 694 152 694 119 q 694 215 694 185 q 692 286 693 244 q 689 399 692 328 l 738 399 q 735 285 736 328 q 733 209 733 242 q 732 135 732 176 q 732 25 732 94 q 667 2 708 13 q 578 -15 625 -8 q 489 -22 531 -22 m 357 1069 l 422 1199 l 497 1199 l 563 1069 l 519 1069 q 488 1121 497 1106 q 473 1139 478 1136 q 460 1142 468 1142 q 447 1139 453 1142 q 432 1121 442 1136 q 400 1069 422 1106 l 357 1069 z "},"Ģ":{"ha":813,"x_min":75,"x_max":738,"o":"m 489 -22 q 268 41 361 -22 q 125 219 175 104 q 75 486 75 333 q 128 757 75 643 q 276 933 181 871 q 501 994 372 994 q 574 990 536 994 q 649 977 611 986 q 721 956 688 968 l 721 886 q 600 928 658 914 q 485 943 542 943 q 341 916 407 943 q 226 840 275 889 q 139 693 171 782 q 107 486 107 604 q 141 272 107 367 q 243 117 175 178 q 350 52 289 75 q 488 29 411 29 q 566 34 525 29 q 642 48 607 39 q 694 67 678 57 q 694 152 694 119 q 694 215 694 185 q 692 286 693 244 q 689 399 692 328 l 738 399 q 735 285 736 328 q 733 209 733 242 q 732 135 732 176 q 732 25 732 94 q 667 2 708 13 q 578 -15 625 -8 q 489 -22 531 -22 m 393 -287 l 393 -250 q 399 -250 396 -250 q 404 -250 401 -250 q 453 -240 440 -250 q 467 -217 467 -231 q 460 -207 467 -208 q 444 -206 454 -206 q 407 -192 421 -206 q 393 -157 393 -179 q 406 -116 393 -132 q 446 -100 419 -100 q 483 -114 467 -100 q 499 -169 499 -128 q 474 -247 499 -211 q 393 -287 450 -283 z "},"Ġ":{"ha":813,"x_min":75,"x_max":738,"o":"m 489 -22 q 268 41 361 -22 q 125 219 175 104 q 75 486 75 333 q 128 757 75 643 q 276 933 181 871 q 501 994 372 994 q 574 990 536 994 q 649 977 611 986 q 721 956 688 968 l 721 886 q 600 928 658 914 q 485 943 542 943 q 341 916 407 943 q 226 840 275 889 q 139 693 171 782 q 107 486 107 604 q 141 272 107 367 q 243 117 175 178 q 350 52 289 75 q 488 29 411 29 q 566 34 525 29 q 642 48 607 39 q 694 67 678 57 q 694 152 694 119 q 694 215 694 185 q 692 286 693 244 q 689 399 692 328 l 738 399 q 735 285 736 328 q 733 209 733 242 q 732 135 732 176 q 732 25 732 94 q 667 2 708 13 q 578 -15 625 -8 q 489 -22 531 -22 m 460 1075 q 411 1131 411 1075 q 424 1172 411 1158 q 460 1186 438 1186 q 495 1172 482 1186 q 508 1131 508 1158 q 495 1089 508 1103 q 460 1075 482 1075 z "},"Ɠ":{"ha":813,"x_min":75,"x_max":883,"o":"m 489 -22 q 268 41 361 -22 q 125 219 175 104 q 75 486 75 333 q 128 757 75 643 q 276 933 181 871 q 501 994 372 994 q 574 990 536 994 q 649 977 611 986 q 721 956 688 968 l 721 886 q 600 928 658 914 q 485 943 542 943 q 341 916 407 943 q 226 840 275 889 q 139 693 171 782 q 107 486 107 604 q 141 272 107 367 q 243 117 175 178 q 350 52 289 75 q 488 29 411 29 q 566 34 525 29 q 642 48 607 39 q 694 67 678 57 q 694 152 694 119 q 694 215 694 185 q 692 286 693 244 q 689 399 692 328 l 738 399 q 735 285 736 328 q 733 209 733 242 q 732 135 732 176 q 732 25 732 94 q 667 2 708 13 q 578 -15 625 -8 q 489 -22 531 -22 m 721 915 l 683 922 q 683 933 683 928 q 683 944 683 939 q 699 1048 683 1013 q 744 1097 715 1083 q 810 1110 772 1110 q 846 1108 826 1110 q 883 1104 865 1107 l 883 1046 q 860 1050 874 1049 q 832 1053 846 1051 q 806 1054 818 1054 q 754 1040 778 1054 q 726 996 732 1026 q 721 915 721 965 z "},"Ɂ":{"ha":638,"x_min":72,"x_max":565,"o":"m 214 0 q 215 65 215 21 q 216 155 215 108 q 217 229 217 201 q 217 326 217 289 q 221 383 218 363 q 228 416 224 404 q 238 436 232 428 q 276 476 253 458 q 333 513 299 493 q 453 593 411 557 q 513 665 496 629 q 529 739 529 700 q 498 853 529 808 q 415 920 467 899 q 304 942 364 942 q 171 929 228 942 q 72 894 114 917 l 72 958 q 172 986 118 978 q 286 994 225 994 q 435 965 372 994 q 531 880 497 935 q 565 749 565 825 q 542 647 565 692 q 475 564 519 601 q 367 492 431 526 q 308 457 338 476 q 268 421 278 438 q 258 395 263 410 q 253 344 254 381 q 251 229 251 308 q 252 155 251 201 q 254 65 253 108 q 257 0 256 21 l 214 0 z "},"Ḡ":{"ha":813,"x_min":75,"x_max":738,"o":"m 489 -22 q 268 41 361 -22 q 125 219 175 104 q 75 486 75 333 q 128 757 75 643 q 276 933 181 871 q 501 994 372 994 q 574 990 536 994 q 649 977 611 986 q 721 956 688 968 l 721 886 q 600 928 658 914 q 485 943 542 943 q 341 916 407 943 q 226 840 275 889 q 139 693 171 782 q 107 486 107 604 q 141 272 107 367 q 243 117 175 178 q 350 52 289 75 q 488 29 411 29 q 566 34 525 29 q 642 48 607 39 q 694 67 678 57 q 694 152 694 119 q 694 215 694 185 q 692 286 693 244 q 689 399 692 328 l 738 399 q 735 285 736 328 q 733 209 733 242 q 732 135 732 176 q 732 25 732 94 q 667 2 708 13 q 578 -15 625 -8 q 489 -22 531 -22 m 318 1089 l 318 1143 q 373 1141 349 1142 q 418 1140 397 1140 q 458 1139 439 1139 q 500 1140 479 1139 q 546 1141 521 1140 q 601 1143 571 1142 l 601 1089 q 546 1091 571 1090 q 499 1092 521 1092 q 457 1093 478 1093 q 417 1092 438 1093 q 373 1091 397 1092 q 318 1089 349 1090 z "},"Ǥ":{"ha":813,"x_min":75,"x_max":810,"o":"m 489 -22 q 268 41 361 -22 q 125 219 175 104 q 75 486 75 333 q 128 757 75 643 q 276 933 181 871 q 501 994 372 994 q 574 990 536 994 q 649 977 611 986 q 721 956 688 968 l 721 886 q 600 928 658 914 q 485 943 542 943 q 341 916 407 943 q 226 840 275 889 q 139 693 171 782 q 107 486 107 604 q 141 272 107 367 q 243 117 175 178 q 350 52 289 75 q 488 29 411 29 q 566 34 525 29 q 642 48 607 39 q 694 67 678 57 q 694 152 694 119 q 694 215 694 185 q 692 286 693 244 q 689 399 692 328 l 738 399 q 735 285 736 328 q 733 209 733 242 q 732 135 732 176 q 732 25 732 94 q 667 2 708 13 q 578 -15 625 -8 q 489 -22 531 -22 m 532 199 l 532 243 q 601 241 567 242 q 669 240 635 240 q 740 241 706 240 q 810 243 775 242 l 810 199 q 740 201 775 201 q 669 201 706 201 q 601 201 635 201 q 532 199 567 201 z "},"H":{"ha":928,"x_min":132,"x_max":796,"o":"m 132 0 q 135 164 135 100 q 137 270 136 228 q 138 344 138 313 q 139 408 139 375 q 139 486 139 440 q 139 565 139 532 q 138 628 139 597 q 137 702 138 660 q 135 808 136 744 q 132 972 135 872 l 175 972 q 173 848 174 897 q 172 766 172 799 q 171 707 171 733 q 171 652 171 681 q 171 582 171 624 q 178 557 171 565 q 214 544 186 549 q 301 540 242 540 q 464 539 360 539 q 627 540 568 539 q 714 544 686 540 q 749 557 742 549 q 757 582 757 565 q 757 652 757 624 q 757 707 757 681 q 756 766 757 733 q 755 848 756 799 q 753 972 754 897 l 796 972 q 792 808 793 872 q 791 702 792 744 q 790 628 790 660 q 789 565 789 597 q 789 486 789 532 q 789 408 789 440 q 790 344 789 375 q 791 270 790 313 q 793 164 792 228 q 796 0 794 100 l 753 0 q 755 151 754 92 q 756 248 756 210 q 757 315 757 286 q 757 372 757 343 q 757 443 757 401 q 749 468 757 460 q 714 481 742 476 q 627 485 686 485 q 464 486 568 486 q 301 485 360 486 q 214 481 242 485 q 178 468 186 476 q 171 443 171 460 q 171 372 171 401 q 171 315 171 343 q 172 248 171 286 q 173 151 172 210 q 175 0 174 92 l 132 0 z "},"Ħ":{"ha":897,"x_min":81,"x_max":847,"o":"m 132 0 q 135 164 135 100 q 137 270 136 228 q 138 344 138 313 q 139 408 139 375 q 139 486 139 440 q 139 565 139 532 q 138 628 139 597 q 137 702 138 660 q 135 808 136 744 q 132 972 135 872 l 175 972 q 173 848 174 897 q 172 766 172 799 q 171 707 171 733 q 171 652 171 681 q 171 582 171 624 q 178 557 171 565 q 214 544 186 549 q 301 540 242 540 q 464 539 360 539 q 627 540 568 539 q 714 544 686 540 q 749 557 742 549 q 757 582 757 565 q 757 652 757 624 q 757 707 757 681 q 756 766 757 733 q 755 848 756 799 q 753 972 754 897 l 796 972 q 792 808 793 872 q 791 702 792 744 q 790 628 790 660 q 789 565 789 597 q 789 486 789 532 q 789 408 789 440 q 790 344 789 375 q 791 270 790 313 q 793 164 792 228 q 796 0 794 100 l 753 0 q 755 151 754 92 q 756 248 756 210 q 757 315 757 286 q 757 372 757 343 q 757 443 757 401 q 749 468 757 460 q 714 481 742 476 q 627 485 686 485 q 464 486 568 486 q 301 485 360 486 q 214 481 242 485 q 178 468 186 476 q 171 443 171 460 q 171 372 171 401 q 171 315 171 343 q 172 248 171 286 q 173 151 172 210 q 175 0 174 92 l 132 0 m 81 761 l 81 810 q 201 808 154 808 q 281 806 249 807 q 338 806 313 806 q 393 806 364 806 q 464 806 422 806 q 535 806 506 806 q 590 806 564 806 q 647 806 615 806 q 727 808 679 807 q 847 810 775 808 l 847 761 q 727 763 775 763 q 647 765 679 764 q 590 765 615 765 q 535 765 564 765 q 464 765 506 765 q 393 765 422 765 q 338 765 364 765 q 281 765 313 765 q 201 763 249 764 q 81 761 154 763 z "},"Ḫ":{"ha":928,"x_min":132,"x_max":796,"o":"m 132 0 q 135 164 135 100 q 137 270 136 228 q 138 344 138 313 q 139 408 139 375 q 139 486 139 440 q 139 565 139 532 q 138 628 139 597 q 137 702 138 660 q 135 808 136 744 q 132 972 135 872 l 175 972 q 173 848 174 897 q 172 766 172 799 q 171 707 171 733 q 171 652 171 681 q 171 582 171 624 q 178 557 171 565 q 214 544 186 549 q 301 540 242 540 q 464 539 360 539 q 627 540 568 539 q 714 544 686 540 q 749 557 742 549 q 757 582 757 565 q 757 652 757 624 q 757 707 757 681 q 756 766 757 733 q 755 848 756 799 q 753 972 754 897 l 796 972 q 792 808 793 872 q 791 702 792 744 q 790 628 790 660 q 789 565 789 597 q 789 486 789 532 q 789 408 789 440 q 790 344 789 375 q 791 270 790 313 q 793 164 792 228 q 796 0 794 100 l 753 0 q 755 151 754 92 q 756 248 756 210 q 757 315 757 286 q 757 372 757 343 q 757 443 757 401 q 749 468 757 460 q 714 481 742 476 q 627 485 686 485 q 464 486 568 486 q 301 485 360 486 q 214 481 242 485 q 178 468 186 476 q 171 443 171 460 q 171 372 171 401 q 171 315 171 343 q 172 248 171 286 q 173 151 172 210 q 175 0 174 92 l 132 0 m 461 -206 q 400 -191 426 -206 q 358 -148 374 -176 q 343 -79 343 -119 l 401 -79 q 416 -149 401 -125 q 461 -172 431 -172 q 506 -149 492 -172 q 521 -79 521 -125 l 579 -79 q 564 -148 579 -119 q 522 -191 549 -176 q 461 -206 496 -206 z "},"Ȟ":{"ha":928,"x_min":132,"x_max":796,"o":"m 132 0 q 135 164 135 100 q 137 270 136 228 q 138 344 138 313 q 139 408 139 375 q 139 486 139 440 q 139 565 139 532 q 138 628 139 597 q 137 702 138 660 q 135 808 136 744 q 132 972 135 872 l 175 972 q 173 848 174 897 q 172 766 172 799 q 171 707 171 733 q 171 652 171 681 q 171 582 171 624 q 178 557 171 565 q 214 544 186 549 q 301 540 242 540 q 464 539 360 539 q 627 540 568 539 q 714 544 686 540 q 749 557 742 549 q 757 582 757 565 q 757 652 757 624 q 757 707 757 681 q 756 766 757 733 q 755 848 756 799 q 753 972 754 897 l 796 972 q 792 808 793 872 q 791 702 792 744 q 790 628 790 660 q 789 565 789 597 q 789 486 789 532 q 789 408 789 440 q 790 344 789 375 q 791 270 790 313 q 793 164 792 228 q 796 0 794 100 l 753 0 q 755 151 754 92 q 756 248 756 210 q 757 315 757 286 q 757 372 757 343 q 757 443 757 401 q 749 468 757 460 q 714 481 742 476 q 627 485 686 485 q 464 486 568 486 q 301 485 360 486 q 214 481 242 485 q 178 468 186 476 q 171 443 171 460 q 171 372 171 401 q 171 315 171 343 q 172 248 171 286 q 173 151 172 210 q 175 0 174 92 l 132 0 m 426 1071 l 361 1200 l 404 1200 q 436 1149 426 1164 q 451 1131 446 1133 q 464 1128 457 1128 q 477 1131 472 1128 q 492 1149 482 1133 q 524 1200 501 1164 l 567 1200 l 501 1071 l 426 1071 z "},"Ḩ":{"ha":985,"x_min":132,"x_max":853,"o":"m 189 0 q 192 164 192 100 q 194 270 193 228 q 195 344 194 313 q 196 408 196 375 q 196 486 196 440 q 196 565 196 532 q 195 628 196 597 q 194 702 194 660 q 192 808 193 744 q 189 972 192 872 l 232 972 q 230 848 231 897 q 228 766 229 799 q 228 707 228 733 q 228 652 228 681 q 228 582 228 624 q 235 557 228 565 q 271 544 243 549 q 358 540 299 540 q 521 539 417 539 q 684 540 625 539 q 771 544 743 540 q 806 557 799 549 q 814 582 814 565 q 814 652 814 624 q 814 707 814 681 q 813 766 814 733 q 812 848 813 799 q 810 972 811 897 l 853 972 q 849 808 850 872 q 848 702 849 744 q 847 628 847 660 q 846 565 846 597 q 846 486 846 532 q 846 408 846 440 q 847 344 846 375 q 848 270 847 313 q 850 164 849 228 q 853 0 851 100 l 810 0 q 812 151 811 92 q 813 248 813 210 q 814 315 814 286 q 814 372 814 343 q 814 443 814 401 q 806 468 814 460 q 771 481 799 476 q 684 485 743 485 q 521 486 625 486 q 358 485 417 486 q 271 481 299 485 q 235 468 243 476 q 228 443 228 460 q 228 372 228 401 q 228 315 228 343 q 228 248 228 286 q 230 151 229 210 q 232 0 231 92 q 194 -51 201 -39 q 188 -68 188 -62 q 196 -75 188 -74 q 217 -76 204 -76 q 240 -78 228 -76 q 263 -83 253 -81 q 302 -110 286 -92 q 318 -156 318 -128 q 290 -219 318 -194 q 211 -243 261 -243 q 174 -241 193 -243 q 132 -233 156 -239 l 132 -174 q 178 -185 160 -182 q 219 -189 196 -189 q 263 -178 249 -189 q 278 -150 278 -167 q 257 -121 278 -131 q 192 -111 236 -111 q 158 -108 169 -111 q 147 -92 147 -104 q 158 -60 147 -81 q 189 0 168 -39 z "},"Ĥ":{"ha":928,"x_min":132,"x_max":796,"o":"m 132 0 q 135 164 135 100 q 137 270 136 228 q 138 344 138 313 q 139 408 139 375 q 139 486 139 440 q 139 565 139 532 q 138 628 139 597 q 137 702 138 660 q 135 808 136 744 q 132 972 135 872 l 175 972 q 173 848 174 897 q 172 766 172 799 q 171 707 171 733 q 171 652 171 681 q 171 582 171 624 q 178 557 171 565 q 214 544 186 549 q 301 540 242 540 q 464 539 360 539 q 627 540 568 539 q 714 544 686 540 q 749 557 742 549 q 757 582 757 565 q 757 652 757 624 q 757 707 757 681 q 756 766 757 733 q 755 848 756 799 q 753 972 754 897 l 796 972 q 792 808 793 872 q 791 702 792 744 q 790 628 790 660 q 789 565 789 597 q 789 486 789 532 q 789 408 789 440 q 790 344 789 375 q 791 270 790 313 q 793 164 792 228 q 796 0 794 100 l 753 0 q 755 151 754 92 q 756 248 756 210 q 757 315 757 286 q 757 372 757 343 q 757 443 757 401 q 749 468 757 460 q 714 481 742 476 q 627 485 686 485 q 464 486 568 486 q 301 485 360 486 q 214 481 242 485 q 178 468 186 476 q 171 443 171 460 q 171 372 171 401 q 171 315 171 343 q 172 248 171 286 q 173 151 172 210 q 175 0 174 92 l 132 0 m 361 1069 l 426 1199 l 501 1199 l 567 1069 l 524 1069 q 492 1121 501 1106 q 477 1139 482 1136 q 464 1142 472 1142 q 451 1139 457 1142 q 436 1121 446 1136 q 404 1069 426 1106 l 361 1069 z "},"Ḧ":{"ha":928,"x_min":132,"x_max":796,"o":"m 132 0 q 135 164 135 100 q 137 270 136 228 q 138 344 138 313 q 139 408 139 375 q 139 486 139 440 q 139 565 139 532 q 138 628 139 597 q 137 702 138 660 q 135 808 136 744 q 132 972 135 872 l 175 972 q 173 848 174 897 q 172 766 172 799 q 171 707 171 733 q 171 652 171 681 q 171 582 171 624 q 178 557 171 565 q 214 544 186 549 q 301 540 242 540 q 464 539 360 539 q 627 540 568 539 q 714 544 686 540 q 749 557 742 549 q 757 582 757 565 q 757 652 757 624 q 757 707 757 681 q 756 766 757 733 q 755 848 756 799 q 753 972 754 897 l 796 972 q 792 808 793 872 q 791 702 792 744 q 790 628 790 660 q 789 565 789 597 q 789 486 789 532 q 789 408 789 440 q 790 344 789 375 q 791 270 790 313 q 793 164 792 228 q 796 0 794 100 l 753 0 q 755 151 754 92 q 756 248 756 210 q 757 315 757 286 q 757 372 757 343 q 757 443 757 401 q 749 468 757 460 q 714 481 742 476 q 627 485 686 485 q 464 486 568 486 q 301 485 360 486 q 214 481 242 485 q 178 468 186 476 q 171 443 171 460 q 171 372 171 401 q 171 315 171 343 q 172 248 171 286 q 173 151 172 210 q 175 0 174 92 l 132 0 m 365 1078 q 317 1133 317 1078 q 330 1175 317 1161 q 365 1189 343 1189 q 401 1175 388 1189 q 414 1133 414 1161 q 401 1092 414 1106 q 365 1078 388 1078 m 568 1078 q 519 1133 519 1078 q 533 1175 519 1161 q 568 1189 546 1189 q 603 1175 590 1189 q 617 1133 617 1161 q 603 1092 617 1106 q 568 1078 590 1078 z "},"Ḣ":{"ha":928,"x_min":132,"x_max":796,"o":"m 132 0 q 135 164 135 100 q 137 270 136 228 q 138 344 138 313 q 139 408 139 375 q 139 486 139 440 q 139 565 139 532 q 138 628 139 597 q 137 702 138 660 q 135 808 136 744 q 132 972 135 872 l 175 972 q 173 848 174 897 q 172 766 172 799 q 171 707 171 733 q 171 652 171 681 q 171 582 171 624 q 178 557 171 565 q 214 544 186 549 q 301 540 242 540 q 464 539 360 539 q 627 540 568 539 q 714 544 686 540 q 749 557 742 549 q 757 582 757 565 q 757 652 757 624 q 757 707 757 681 q 756 766 757 733 q 755 848 756 799 q 753 972 754 897 l 796 972 q 792 808 793 872 q 791 702 792 744 q 790 628 790 660 q 789 565 789 597 q 789 486 789 532 q 789 408 789 440 q 790 344 789 375 q 791 270 790 313 q 793 164 792 228 q 796 0 794 100 l 753 0 q 755 151 754 92 q 756 248 756 210 q 757 315 757 286 q 757 372 757 343 q 757 443 757 401 q 749 468 757 460 q 714 481 742 476 q 627 485 686 485 q 464 486 568 486 q 301 485 360 486 q 214 481 242 485 q 178 468 186 476 q 171 443 171 460 q 171 372 171 401 q 171 315 171 343 q 172 248 171 286 q 173 151 172 210 q 175 0 174 92 l 132 0 m 464 1075 q 415 1131 415 1075 q 428 1172 415 1158 q 464 1186 442 1186 q 499 1172 486 1186 q 513 1131 513 1158 q 499 1089 513 1103 q 464 1075 486 1075 z "},"Ḥ":{"ha":928,"x_min":132,"x_max":796,"o":"m 132 0 q 135 164 135 100 q 137 270 136 228 q 138 344 138 313 q 139 408 139 375 q 139 486 139 440 q 139 565 139 532 q 138 628 139 597 q 137 702 138 660 q 135 808 136 744 q 132 972 135 872 l 175 972 q 173 848 174 897 q 172 766 172 799 q 171 707 171 733 q 171 652 171 681 q 171 582 171 624 q 178 557 171 565 q 214 544 186 549 q 301 540 242 540 q 464 539 360 539 q 627 540 568 539 q 714 544 686 540 q 749 557 742 549 q 757 582 757 565 q 757 652 757 624 q 757 707 757 681 q 756 766 757 733 q 755 848 756 799 q 753 972 754 897 l 796 972 q 792 808 793 872 q 791 702 792 744 q 790 628 790 660 q 789 565 789 597 q 789 486 789 532 q 789 408 789 440 q 790 344 789 375 q 791 270 790 313 q 793 164 792 228 q 796 0 794 100 l 753 0 q 755 151 754 92 q 756 248 756 210 q 757 315 757 286 q 757 372 757 343 q 757 443 757 401 q 749 468 757 460 q 714 481 742 476 q 627 485 686 485 q 464 486 568 486 q 301 485 360 486 q 214 481 242 485 q 178 468 186 476 q 171 443 171 460 q 171 372 171 401 q 171 315 171 343 q 172 248 171 286 q 173 151 172 210 q 175 0 174 92 l 132 0 m 464 -242 q 415 -186 415 -242 q 428 -144 415 -158 q 464 -131 442 -131 q 499 -144 486 -131 q 513 -186 513 -158 q 499 -228 513 -214 q 464 -242 486 -242 z "},"Ꜧ":{"ha":897,"x_min":132,"x_max":796,"o":"m 132 0 q 135 164 135 100 q 137 270 136 228 q 138 344 138 313 q 139 408 139 375 q 139 486 139 440 q 139 565 139 532 q 138 628 139 597 q 137 702 138 660 q 135 808 136 744 q 132 972 135 872 l 175 972 q 173 848 174 897 q 172 766 172 799 q 171 707 171 733 q 171 652 171 681 q 171 582 171 624 q 178 557 171 565 q 214 544 186 549 q 301 540 242 540 q 464 539 360 539 q 627 540 568 539 q 714 544 686 540 q 749 557 742 549 q 757 582 757 565 q 757 652 757 624 q 757 707 757 681 q 756 766 757 733 q 755 848 756 799 q 753 972 754 897 l 796 972 q 792 808 793 872 q 791 702 792 744 q 790 628 790 660 q 789 565 789 597 q 789 486 789 532 q 789 367 789 438 q 789 219 789 296 q 789 72 789 142 q 789 -49 789 1 q 789 -112 789 -99 q 776 -200 789 -164 q 736 -257 764 -236 q 690 -280 715 -272 q 638 -287 665 -287 q 573 -278 606 -287 q 513 -258 540 -269 l 513 -200 q 567 -224 532 -211 q 636 -236 601 -236 q 710 -215 686 -236 q 743 -167 735 -194 q 751 -121 751 -139 q 754 6 753 -68 q 756 161 756 81 q 757 316 757 242 q 757 443 757 390 q 749 468 757 460 q 714 481 742 476 q 627 485 686 485 q 464 486 568 486 q 301 485 360 486 q 214 481 242 485 q 178 468 186 476 q 171 443 171 460 q 171 372 171 401 q 171 315 171 343 q 172 248 171 286 q 173 151 172 210 q 175 0 174 92 l 132 0 z "},"Ɦ":{"ha":928,"x_min":-29,"x_max":796,"o":"m 132 0 q 135 164 135 100 q 137 270 136 228 q 138 344 138 313 q 139 408 139 375 q 139 486 139 440 q 139 565 139 532 q 138 628 139 597 q 137 702 138 660 q 135 808 136 744 q 132 972 135 872 l 175 972 q 173 848 174 897 q 172 766 172 799 q 171 707 171 733 q 171 652 171 681 q 171 582 171 624 q 178 557 171 565 q 214 544 186 549 q 301 540 242 540 q 464 539 360 539 q 627 540 568 539 q 714 544 686 540 q 749 557 742 549 q 757 582 757 565 q 757 652 757 624 q 757 707 757 681 q 756 766 757 733 q 755 848 756 799 q 753 972 754 897 l 796 972 q 792 808 793 872 q 791 702 792 744 q 790 628 790 660 q 789 565 789 597 q 789 486 789 532 q 789 408 789 440 q 790 344 789 375 q 791 270 790 313 q 793 164 792 228 q 796 0 794 100 l 753 0 q 755 151 754 92 q 756 248 756 210 q 757 315 757 286 q 757 372 757 343 q 757 443 757 401 q 749 468 757 460 q 714 481 742 476 q 627 485 686 485 q 464 486 568 486 q 301 485 360 486 q 214 481 242 485 q 178 468 186 476 q 171 443 171 460 q 171 372 171 401 q 171 315 171 343 q 172 248 171 286 q 173 151 172 210 q 175 0 174 92 l 132 0 m 165 936 q 74 932 97 936 q 38 917 51 928 q 19 885 24 906 q 15 850 15 865 q 15 840 15 846 q 16 830 15 835 q 17 819 17 825 l -28 819 q -29 841 -29 831 q -29 860 -29 851 q -15 926 -29 901 q 28 962 0 951 q 93 972 56 972 q 142 972 131 972 q 158 972 153 972 l 165 936 z "},"Ɥ":{"ha":911,"x_min":115,"x_max":779,"o":"m 122 486 q 122 556 122 526 q 122 611 122 585 q 122 655 122 632 q 122 706 122 678 q 120 772 121 735 q 118 858 119 808 q 115 972 117 907 l 158 972 q 156 848 157 897 q 155 766 156 799 q 154 707 154 733 q 154 652 154 681 q 154 582 154 624 q 162 557 154 565 q 197 544 169 549 q 284 540 225 540 q 447 539 343 539 q 610 540 551 539 q 697 544 669 540 q 733 557 725 549 q 740 582 740 565 q 740 652 740 624 q 740 707 740 681 q 740 766 740 733 q 738 848 739 799 q 736 972 738 897 l 779 972 q 776 808 776 872 q 774 702 775 744 q 773 628 774 660 q 772 565 772 597 q 772 486 772 532 q 772 408 772 440 q 773 344 772 375 q 774 270 774 313 q 776 164 775 228 q 779 0 778 100 l 736 0 q 738 151 738 92 q 740 248 739 210 q 740 315 740 286 q 740 372 740 343 q 740 443 740 401 q 733 468 740 460 q 697 481 725 476 q 610 485 669 485 q 447 486 551 486 q 340 486 386 486 q 256 486 293 486 q 188 486 219 486 q 122 486 156 486 z "},"I":{"ha":453,"x_min":58,"x_max":394,"o":"m 58 0 l 58 50 q 93 50 78 50 q 121 50 108 50 q 175 51 161 50 q 194 58 189 53 q 203 75 200 63 q 208 128 206 88 q 210 253 210 168 q 211 486 211 338 q 210 719 211 635 q 208 844 210 804 q 203 897 206 885 q 194 914 200 910 q 175 921 189 919 q 121 922 161 922 q 93 922 108 922 q 58 922 78 922 l 58 972 l 394 972 l 394 922 q 360 922 376 922 q 332 922 344 922 q 278 921 292 922 q 258 914 265 919 q 250 897 253 910 q 245 844 247 885 q 242 719 243 804 q 242 486 242 635 q 242 253 242 338 q 244 128 243 168 q 249 75 246 88 q 257 58 251 63 q 277 51 264 53 q 331 50 290 50 q 359 50 343 50 q 393 50 375 50 l 393 0 l 58 0 z "},"Ĳ":{"ha":953,"x_min":58,"x_max":894,"o":"m 58 0 l 58 50 q 93 50 78 50 q 121 50 108 50 q 175 51 161 50 q 194 58 189 53 q 203 75 200 63 q 208 128 206 88 q 210 253 210 168 q 211 486 211 338 q 210 719 211 635 q 208 844 210 804 q 203 897 206 885 q 194 914 200 910 q 175 921 189 919 q 121 922 161 922 q 93 922 108 922 q 58 922 78 922 l 58 972 l 394 972 l 394 922 q 360 922 376 922 q 332 922 344 922 q 278 921 292 922 q 258 914 265 919 q 250 897 253 910 q 245 844 247 885 q 242 719 243 804 q 242 486 242 635 q 242 253 242 338 q 244 128 243 168 q 249 75 246 88 q 257 58 251 63 q 277 51 264 53 q 331 50 290 50 q 359 50 343 50 q 393 50 375 50 l 393 0 l 58 0 m 426 11 l 426 71 q 504 39 468 49 q 575 29 540 29 q 653 44 625 29 q 694 95 682 58 q 708 197 706 132 q 711 360 711 261 q 710 617 711 517 q 709 777 710 718 q 706 864 708 836 q 701 901 704 892 q 694 914 699 911 q 675 921 689 919 q 621 922 661 922 q 593 922 608 922 q 558 922 578 922 l 558 972 l 894 972 l 894 922 q 860 922 876 922 q 832 922 844 922 q 778 921 792 922 q 758 914 765 919 q 751 901 754 911 q 747 864 749 892 q 744 777 744 836 q 742 617 743 718 q 742 360 742 517 l 742 206 q 728 82 742 133 q 675 4 714 31 q 563 -22 636 -22 q 494 -12 536 -22 q 426 11 453 -3 z "},"Í":{"ha":453,"x_min":58,"x_max":394,"o":"m 58 0 l 58 50 q 93 50 78 50 q 121 50 108 50 q 175 51 161 50 q 194 58 189 53 q 203 75 200 63 q 208 128 206 88 q 210 253 210 168 q 211 486 211 338 q 210 719 211 635 q 208 844 210 804 q 203 897 206 885 q 194 914 200 910 q 175 921 189 919 q 121 922 161 922 q 93 922 108 922 q 58 922 78 922 l 58 972 l 394 972 l 394 922 q 360 922 376 922 q 332 922 344 922 q 278 921 292 922 q 258 914 265 919 q 250 897 253 910 q 245 844 247 885 q 242 719 243 804 q 242 486 242 635 q 242 253 242 338 q 244 128 243 168 q 249 75 246 88 q 257 58 251 63 q 277 51 264 53 q 331 50 290 50 q 359 50 343 50 q 393 50 375 50 l 393 0 l 58 0 m 208 1071 l 257 1199 l 328 1199 l 251 1071 l 208 1071 z "},"Ǐ":{"ha":453,"x_min":58,"x_max":394,"o":"m 58 0 l 58 50 q 93 50 78 50 q 121 50 108 50 q 175 51 161 50 q 194 58 189 53 q 203 75 200 63 q 208 128 206 88 q 210 253 210 168 q 211 486 211 338 q 210 719 211 635 q 208 844 210 804 q 203 897 206 885 q 194 914 200 910 q 175 921 189 919 q 121 922 161 922 q 93 922 108 922 q 58 922 78 922 l 58 972 l 394 972 l 394 922 q 360 922 376 922 q 332 922 344 922 q 278 921 292 922 q 258 914 265 919 q 250 897 253 910 q 245 844 247 885 q 242 719 243 804 q 242 486 242 635 q 242 253 242 338 q 244 128 243 168 q 249 75 246 88 q 257 58 251 63 q 277 51 264 53 q 331 50 290 50 q 359 50 343 50 q 393 50 375 50 l 393 0 l 58 0 m 189 1071 l 124 1200 l 167 1200 q 199 1149 189 1164 q 214 1131 208 1133 q 226 1128 219 1128 q 240 1131 235 1128 q 254 1149 244 1133 q 286 1200 264 1164 l 329 1200 l 264 1071 l 189 1071 z "},"Î":{"ha":453,"x_min":58,"x_max":394,"o":"m 58 0 l 58 50 q 93 50 78 50 q 121 50 108 50 q 175 51 161 50 q 194 58 189 53 q 203 75 200 63 q 208 128 206 88 q 210 253 210 168 q 211 486 211 338 q 210 719 211 635 q 208 844 210 804 q 203 897 206 885 q 194 914 200 910 q 175 921 189 919 q 121 922 161 922 q 93 922 108 922 q 58 922 78 922 l 58 972 l 394 972 l 394 922 q 360 922 376 922 q 332 922 344 922 q 278 921 292 922 q 258 914 265 919 q 250 897 253 910 q 245 844 247 885 q 242 719 243 804 q 242 486 242 635 q 242 253 242 338 q 244 128 243 168 q 249 75 246 88 q 257 58 251 63 q 277 51 264 53 q 331 50 290 50 q 359 50 343 50 q 393 50 375 50 l 393 0 l 58 0 m 124 1069 l 189 1199 l 264 1199 l 329 1069 l 286 1069 q 254 1121 264 1106 q 240 1139 244 1136 q 226 1142 235 1142 q 214 1139 219 1142 q 199 1121 208 1136 q 167 1069 189 1106 l 124 1069 z "},"Ȉ":{"ha":453,"x_min":58,"x_max":394,"o":"m 58 0 l 58 50 q 93 50 78 50 q 121 50 108 50 q 175 51 161 50 q 194 58 189 53 q 203 75 200 63 q 208 128 206 88 q 210 253 210 168 q 211 486 211 338 q 210 719 211 635 q 208 844 210 804 q 203 897 206 885 q 194 914 200 910 q 175 921 189 919 q 121 922 161 922 q 93 922 108 922 q 58 922 78 922 l 58 972 l 394 972 l 394 922 q 360 922 376 922 q 332 922 344 922 q 278 921 292 922 q 258 914 265 919 q 250 897 253 910 q 245 844 247 885 q 242 719 243 804 q 242 486 242 635 q 242 253 242 338 q 244 128 243 168 q 249 75 246 88 q 257 58 251 63 q 277 51 264 53 q 331 50 290 50 q 359 50 343 50 q 393 50 375 50 l 393 0 l 58 0 m 289 1069 l 213 1197 l 283 1197 l 332 1069 l 289 1069 m 143 1069 l 67 1197 l 138 1197 l 186 1069 l 143 1069 z "},"Ï":{"ha":453,"x_min":58,"x_max":394,"o":"m 58 0 l 58 50 q 93 50 78 50 q 121 50 108 50 q 175 51 161 50 q 194 58 189 53 q 203 75 200 63 q 208 128 206 88 q 210 253 210 168 q 211 486 211 338 q 210 719 211 635 q 208 844 210 804 q 203 897 206 885 q 194 914 200 910 q 175 921 189 919 q 121 922 161 922 q 93 922 108 922 q 58 922 78 922 l 58 972 l 394 972 l 394 922 q 360 922 376 922 q 332 922 344 922 q 278 921 292 922 q 258 914 265 919 q 250 897 253 910 q 245 844 247 885 q 242 719 243 804 q 242 486 242 635 q 242 253 242 338 q 244 128 243 168 q 249 75 246 88 q 257 58 251 63 q 277 51 264 53 q 331 50 290 50 q 359 50 343 50 q 393 50 375 50 l 393 0 l 58 0 m 128 1078 q 79 1133 79 1078 q 92 1175 79 1161 q 128 1189 106 1189 q 163 1175 150 1189 q 176 1133 176 1161 q 163 1092 176 1106 q 128 1078 150 1078 m 331 1078 q 282 1133 282 1078 q 295 1175 282 1161 q 331 1189 308 1189 q 366 1175 353 1189 q 379 1133 379 1161 q 366 1092 379 1106 q 331 1078 353 1078 z "},"Ḯ":{"ha":453,"x_min":58,"x_max":394,"o":"m 58 0 l 58 50 q 93 50 78 50 q 121 50 108 50 q 175 51 161 50 q 194 58 189 53 q 203 75 200 63 q 208 128 206 88 q 210 253 210 168 q 211 486 211 338 q 210 719 211 635 q 208 844 210 804 q 203 897 206 885 q 194 914 200 910 q 175 921 189 919 q 121 922 161 922 q 93 922 108 922 q 58 922 78 922 l 58 972 l 394 972 l 394 922 q 360 922 376 922 q 332 922 344 922 q 278 921 292 922 q 258 914 265 919 q 250 897 253 910 q 245 844 247 885 q 242 719 243 804 q 242 486 242 635 q 242 253 242 338 q 244 128 243 168 q 249 75 246 88 q 257 58 251 63 q 277 51 264 53 q 331 50 290 50 q 359 50 343 50 q 393 50 375 50 l 393 0 l 58 0 m 128 1078 q 79 1133 79 1078 q 92 1175 79 1161 q 128 1189 106 1189 q 163 1175 150 1189 q 176 1133 176 1161 q 163 1092 176 1106 q 128 1078 150 1078 m 331 1078 q 282 1133 282 1078 q 295 1175 282 1161 q 331 1189 308 1189 q 366 1175 353 1189 q 379 1133 379 1161 q 366 1092 379 1106 q 331 1078 353 1078 m 208 1274 l 257 1401 l 328 1401 l 251 1274 l 208 1274 z "},"İ":{"ha":453,"x_min":58,"x_max":394,"o":"m 58 0 l 58 50 q 93 50 78 50 q 121 50 108 50 q 175 51 161 50 q 194 58 189 53 q 203 75 200 63 q 208 128 206 88 q 210 253 210 168 q 211 486 211 338 q 210 719 211 635 q 208 844 210 804 q 203 897 206 885 q 194 914 200 910 q 175 921 189 919 q 121 922 161 922 q 93 922 108 922 q 58 922 78 922 l 58 972 l 394 972 l 394 922 q 360 922 376 922 q 332 922 344 922 q 278 921 292 922 q 258 914 265 919 q 250 897 253 910 q 245 844 247 885 q 242 719 243 804 q 242 486 242 635 q 242 253 242 338 q 244 128 243 168 q 249 75 246 88 q 257 58 251 63 q 277 51 264 53 q 331 50 290 50 q 359 50 343 50 q 393 50 375 50 l 393 0 l 58 0 m 226 1075 q 178 1131 178 1075 q 191 1172 178 1158 q 226 1186 204 1186 q 262 1172 249 1186 q 275 1131 275 1158 q 262 1089 275 1103 q 226 1075 249 1075 z "},"Ị":{"ha":453,"x_min":58,"x_max":394,"o":"m 58 0 l 58 50 q 93 50 78 50 q 121 50 108 50 q 175 51 161 50 q 194 58 189 53 q 203 75 200 63 q 208 128 206 88 q 210 253 210 168 q 211 486 211 338 q 210 719 211 635 q 208 844 210 804 q 203 897 206 885 q 194 914 200 910 q 175 921 189 919 q 121 922 161 922 q 93 922 108 922 q 58 922 78 922 l 58 972 l 394 972 l 394 922 q 360 922 376 922 q 332 922 344 922 q 278 921 292 922 q 258 914 265 919 q 250 897 253 910 q 245 844 247 885 q 242 719 243 804 q 242 486 242 635 q 242 253 242 338 q 244 128 243 168 q 249 75 246 88 q 257 58 251 63 q 277 51 264 53 q 331 50 290 50 q 359 50 343 50 q 393 50 375 50 l 393 0 l 58 0 m 226 -242 q 178 -186 178 -242 q 191 -144 178 -158 q 226 -131 204 -131 q 262 -144 249 -131 q 275 -186 275 -158 q 262 -228 275 -214 q 226 -242 249 -242 z "},"Ì":{"ha":453,"x_min":58,"x_max":394,"o":"m 58 0 l 58 50 q 93 50 78 50 q 121 50 108 50 q 175 51 161 50 q 194 58 189 53 q 203 75 200 63 q 208 128 206 88 q 210 253 210 168 q 211 486 211 338 q 210 719 211 635 q 208 844 210 804 q 203 897 206 885 q 194 914 200 910 q 175 921 189 919 q 121 922 161 922 q 93 922 108 922 q 58 922 78 922 l 58 972 l 394 972 l 394 922 q 360 922 376 922 q 332 922 344 922 q 278 921 292 922 q 258 914 265 919 q 250 897 253 910 q 245 844 247 885 q 242 719 243 804 q 242 486 242 635 q 242 253 242 338 q 244 128 243 168 q 249 75 246 88 q 257 58 251 63 q 277 51 264 53 q 331 50 290 50 q 359 50 343 50 q 393 50 375 50 l 393 0 l 58 0 m 201 1071 l 125 1199 l 196 1199 l 244 1071 l 201 1071 z "},"Ỉ":{"ha":453,"x_min":58,"x_max":394,"o":"m 58 0 l 58 50 q 93 50 78 50 q 121 50 108 50 q 175 51 161 50 q 194 58 189 53 q 203 75 200 63 q 208 128 206 88 q 210 253 210 168 q 211 486 211 338 q 210 719 211 635 q 208 844 210 804 q 203 897 206 885 q 194 914 200 910 q 175 921 189 919 q 121 922 161 922 q 93 922 108 922 q 58 922 78 922 l 58 972 l 394 972 l 394 922 q 360 922 376 922 q 332 922 344 922 q 278 921 292 922 q 258 914 265 919 q 250 897 253 910 q 245 844 247 885 q 242 719 243 804 q 242 486 242 635 q 242 253 242 338 q 244 128 243 168 q 249 75 246 88 q 257 58 251 63 q 277 51 264 53 q 331 50 290 50 q 359 50 343 50 q 393 50 375 50 l 393 0 l 58 0 m 215 1061 l 201 1090 q 235 1118 222 1104 q 247 1147 247 1132 q 204 1181 247 1181 q 160 1175 186 1181 l 160 1231 q 185 1236 172 1235 q 208 1238 197 1238 q 267 1219 242 1238 q 292 1165 292 1201 q 271 1104 292 1131 q 215 1061 250 1078 z "},"Ȋ":{"ha":453,"x_min":58,"x_max":394,"o":"m 58 0 l 58 50 q 93 50 78 50 q 121 50 108 50 q 175 51 161 50 q 194 58 189 53 q 203 75 200 63 q 208 128 206 88 q 210 253 210 168 q 211 486 211 338 q 210 719 211 635 q 208 844 210 804 q 203 897 206 885 q 194 914 200 910 q 175 921 189 919 q 121 922 161 922 q 93 922 108 922 q 58 922 78 922 l 58 972 l 394 972 l 394 922 q 360 922 376 922 q 332 922 344 922 q 278 921 292 922 q 258 914 265 919 q 250 897 253 910 q 245 844 247 885 q 242 719 243 804 q 242 486 242 635 q 242 253 242 338 q 244 128 243 168 q 249 75 246 88 q 257 58 251 63 q 277 51 264 53 q 331 50 290 50 q 359 50 343 50 q 393 50 375 50 l 393 0 l 58 0 m 108 1071 q 124 1140 108 1113 q 165 1182 139 1168 q 226 1196 192 1196 q 288 1182 261 1196 q 329 1140 314 1168 q 344 1071 344 1113 l 286 1071 q 272 1140 286 1118 q 226 1163 257 1163 q 181 1140 196 1163 q 167 1071 167 1118 l 108 1071 z "},"Ī":{"ha":453,"x_min":58,"x_max":394,"o":"m 58 0 l 58 50 q 93 50 78 50 q 121 50 108 50 q 175 51 161 50 q 194 58 189 53 q 203 75 200 63 q 208 128 206 88 q 210 253 210 168 q 211 486 211 338 q 210 719 211 635 q 208 844 210 804 q 203 897 206 885 q 194 914 200 910 q 175 921 189 919 q 121 922 161 922 q 93 922 108 922 q 58 922 78 922 l 58 972 l 394 972 l 394 922 q 360 922 376 922 q 332 922 344 922 q 278 921 292 922 q 258 914 265 919 q 250 897 253 910 q 245 844 247 885 q 242 719 243 804 q 242 486 242 635 q 242 253 242 338 q 244 128 243 168 q 249 75 246 88 q 257 58 251 63 q 277 51 264 53 q 331 50 290 50 q 359 50 343 50 q 393 50 375 50 l 393 0 l 58 0 m 85 1089 l 85 1143 q 140 1141 115 1142 q 185 1140 164 1140 q 225 1139 206 1139 q 267 1140 246 1139 q 313 1141 288 1140 q 368 1143 338 1142 l 368 1089 q 313 1091 338 1090 q 266 1092 288 1092 q 224 1093 244 1093 q 184 1092 204 1093 q 140 1091 164 1092 q 85 1089 115 1090 z "},"Į":{"ha":453,"x_min":58,"x_max":394,"o":"m 58 0 l 58 50 q 93 50 78 50 q 121 50 108 50 q 175 51 161 50 q 194 58 189 53 q 203 75 200 63 q 208 128 206 88 q 210 253 210 168 q 211 486 211 338 q 210 719 211 635 q 208 844 210 804 q 203 897 206 885 q 194 914 200 910 q 175 921 189 919 q 121 922 161 922 q 93 922 108 922 q 58 922 78 922 l 58 972 l 394 972 l 394 922 q 360 922 376 922 q 332 922 344 922 q 278 921 292 922 q 258 914 265 919 q 250 897 253 910 q 245 844 247 885 q 242 719 243 804 q 242 486 242 635 q 242 253 242 338 q 244 128 243 168 q 249 75 246 88 q 257 58 251 63 q 277 51 264 53 q 331 50 290 50 q 359 50 343 50 q 393 50 375 50 l 393 0 l 58 0 m 317 -239 q 266 -219 290 -239 q 242 -158 242 -199 q 267 -80 242 -121 q 357 17 292 -39 l 393 0 q 309 -85 331 -47 q 288 -147 288 -124 q 299 -181 288 -169 q 326 -192 310 -192 q 360 -187 344 -192 q 393 -175 376 -182 l 393 -217 q 355 -233 374 -226 q 317 -239 336 -239 z "},"Ɩ":{"ha":490,"x_min":58,"x_max":432,"o":"m 432 -3 q 401 -8 422 -4 q 356 -11 381 -11 q 308 -6 332 -11 q 260 13 283 -1 q 208 69 229 31 q 188 175 188 107 q 188 481 188 356 q 187 686 188 606 q 185 813 186 767 q 181 881 183 860 q 177 908 179 901 q 171 918 175 915 q 153 925 165 924 q 106 926 142 926 q 85 926 96 926 q 58 926 74 926 l 58 972 l 218 972 q 218 880 218 926 q 218 787 218 833 q 218 694 218 740 q 218 601 218 647 q 218 508 218 554 q 218 319 218 390 q 219 212 218 249 q 222 157 219 175 q 228 124 224 139 q 272 60 239 78 q 349 42 306 42 q 394 46 372 42 q 432 54 417 50 l 432 -3 z "},"Ɨ":{"ha":453,"x_min":58,"x_max":394,"o":"m 58 0 l 58 50 q 93 50 78 50 q 121 50 108 50 q 175 51 161 50 q 194 58 189 53 q 203 75 200 63 q 208 128 206 88 q 210 253 210 168 q 211 486 211 338 q 210 719 211 635 q 208 844 210 804 q 203 897 206 885 q 194 914 200 910 q 175 921 189 919 q 121 922 161 922 q 93 922 108 922 q 58 922 78 922 l 58 972 l 394 972 l 394 922 q 360 922 376 922 q 332 922 344 922 q 278 921 292 922 q 258 914 265 919 q 250 897 253 910 q 245 844 247 885 q 242 719 243 804 q 242 486 242 635 q 242 253 242 338 q 244 128 243 168 q 249 75 246 88 q 257 58 251 63 q 277 51 264 53 q 331 50 290 50 q 359 50 343 50 q 393 50 375 50 l 393 0 l 58 0 m 89 464 l 89 508 q 158 506 124 507 q 226 506 192 506 q 297 506 263 506 q 367 508 332 507 l 367 464 q 297 467 332 467 q 226 467 263 467 q 158 467 192 467 q 89 464 124 467 z "},"Ĩ":{"ha":453,"x_min":58,"x_max":394,"o":"m 58 0 l 58 50 q 93 50 78 50 q 121 50 108 50 q 175 51 161 50 q 194 58 189 53 q 203 75 200 63 q 208 128 206 88 q 210 253 210 168 q 211 486 211 338 q 210 719 211 635 q 208 844 210 804 q 203 897 206 885 q 194 914 200 910 q 175 921 189 919 q 121 922 161 922 q 93 922 108 922 q 58 922 78 922 l 58 972 l 394 972 l 394 922 q 360 922 376 922 q 332 922 344 922 q 278 921 292 922 q 258 914 265 919 q 250 897 253 910 q 245 844 247 885 q 242 719 243 804 q 242 486 242 635 q 242 253 242 338 q 244 128 243 168 q 249 75 246 88 q 257 58 251 63 q 277 51 264 53 q 331 50 290 50 q 359 50 343 50 q 393 50 375 50 l 393 0 l 58 0 m 278 1079 q 245 1093 258 1079 q 221 1121 232 1107 q 206 1140 214 1132 q 192 1147 199 1147 q 175 1136 183 1147 q 167 1081 167 1125 l 108 1081 q 124 1158 108 1129 q 175 1186 140 1186 q 208 1173 194 1186 q 232 1144 222 1160 q 247 1126 239 1135 q 261 1118 254 1118 q 278 1129 269 1118 q 286 1185 286 1140 l 344 1185 q 329 1108 344 1138 q 278 1079 314 1079 z "},"Ḭ":{"ha":453,"x_min":58,"x_max":394,"o":"m 58 0 l 58 50 q 93 50 78 50 q 121 50 108 50 q 175 51 161 50 q 194 58 189 53 q 203 75 200 63 q 208 128 206 88 q 210 253 210 168 q 211 486 211 338 q 210 719 211 635 q 208 844 210 804 q 203 897 206 885 q 194 914 200 910 q 175 921 189 919 q 121 922 161 922 q 93 922 108 922 q 58 922 78 922 l 58 972 l 394 972 l 394 922 q 360 922 376 922 q 332 922 344 922 q 278 921 292 922 q 258 914 265 919 q 250 897 253 910 q 245 844 247 885 q 242 719 243 804 q 242 486 242 635 q 242 253 242 338 q 244 128 243 168 q 249 75 246 88 q 257 58 251 63 q 277 51 264 53 q 331 50 290 50 q 359 50 343 50 q 393 50 375 50 l 393 0 l 58 0 m 278 -246 q 245 -232 258 -246 q 221 -204 232 -218 q 206 -185 214 -193 q 192 -178 199 -178 q 175 -189 183 -178 q 167 -244 167 -200 l 108 -244 q 124 -167 108 -196 q 175 -139 140 -139 q 208 -152 194 -139 q 232 -181 222 -165 q 247 -199 239 -190 q 261 -207 254 -207 q 278 -196 269 -207 q 286 -140 286 -185 l 344 -140 q 329 -217 344 -187 q 278 -246 314 -246 z "},"J":{"ha":554,"x_min":28,"x_max":496,"o":"m 28 11 l 28 71 q 106 39 69 49 q 176 29 142 29 q 255 44 226 29 q 295 95 283 58 q 310 197 307 132 q 313 360 313 261 q 312 617 313 517 q 310 777 311 718 q 308 864 310 836 q 303 901 306 892 q 296 914 300 911 q 276 921 290 919 q 222 922 263 922 q 194 922 210 922 q 160 922 179 922 l 160 972 l 496 972 l 496 922 q 462 922 478 922 q 433 922 446 922 q 380 921 393 922 q 360 914 367 919 q 353 901 356 911 q 348 864 350 892 q 345 777 346 836 q 344 617 344 718 q 343 360 343 517 l 343 206 q 329 82 343 133 q 276 4 315 31 q 164 -22 238 -22 q 96 -12 138 -22 q 28 11 54 -3 z "},"Ĵ":{"ha":554,"x_min":28,"x_max":496,"o":"m 28 11 l 28 71 q 106 39 69 49 q 176 29 142 29 q 255 44 226 29 q 295 95 283 58 q 310 197 307 132 q 313 360 313 261 q 312 617 313 517 q 310 777 311 718 q 308 864 310 836 q 303 901 306 892 q 296 914 300 911 q 276 921 290 919 q 222 922 263 922 q 194 922 210 922 q 160 922 179 922 l 160 972 l 496 972 l 496 922 q 462 922 478 922 q 433 922 446 922 q 380 921 393 922 q 360 914 367 919 q 353 901 356 911 q 348 864 350 892 q 345 777 346 836 q 344 617 344 718 q 343 360 343 517 l 343 206 q 329 82 343 133 q 276 4 315 31 q 164 -22 238 -22 q 96 -12 138 -22 q 28 11 54 -3 m 218 1069 l 283 1199 l 358 1199 l 424 1069 l 381 1069 q 349 1121 358 1106 q 334 1139 339 1136 q 321 1142 329 1142 q 308 1139 314 1142 q 293 1121 303 1136 q 261 1069 283 1106 l 218 1069 z "},"Ʝ":{"ha":486,"x_min":28,"x_max":458,"o":"m 406 236 q 333 235 376 236 q 244 228 290 233 q 156 209 197 222 q 88 172 114 196 q 63 111 63 149 q 87 53 63 78 q 153 29 111 29 q 233 51 207 29 q 267 124 258 74 q 275 257 275 174 q 274 565 275 444 q 273 756 274 686 q 270 858 272 825 q 265 901 268 890 q 258 914 263 911 q 239 921 253 919 q 185 922 225 922 q 153 922 169 922 q 122 922 138 922 l 122 972 l 458 972 l 458 922 q 427 922 443 922 q 396 922 411 922 q 342 921 356 922 q 322 914 329 919 q 315 901 318 911 q 310 858 313 890 q 308 756 308 825 q 306 565 307 686 q 306 257 306 444 l 306 206 q 275 39 306 100 q 153 -22 244 -22 q 96 -9 125 -22 q 47 33 67 4 q 28 107 28 63 q 54 187 28 156 q 123 235 81 218 q 216 261 165 253 q 317 272 267 269 q 406 274 367 274 l 406 236 z "},"Ɉ":{"ha":554,"x_min":28,"x_max":496,"o":"m 28 11 l 28 71 q 106 39 69 49 q 176 29 142 29 q 255 44 226 29 q 295 95 283 58 q 310 197 307 132 q 313 360 313 261 q 312 617 313 517 q 310 777 311 718 q 308 864 310 836 q 303 901 306 892 q 296 914 300 911 q 276 921 290 919 q 222 922 263 922 q 194 922 210 922 q 160 922 179 922 l 160 972 l 496 972 l 496 922 q 462 922 478 922 q 433 922 446 922 q 380 921 393 922 q 360 914 367 919 q 353 901 356 911 q 348 864 350 892 q 345 777 346 836 q 344 617 344 718 q 343 360 343 517 l 343 206 q 329 82 343 133 q 276 4 315 31 q 164 -22 238 -22 q 96 -12 138 -22 q 28 11 54 -3 m 190 464 l 190 508 q 259 506 225 507 q 328 506 293 506 q 399 506 364 506 q 468 508 433 507 l 468 464 q 399 467 433 467 q 328 467 364 467 q 259 467 293 467 q 190 464 225 467 z "},"K":{"ha":868,"x_min":132,"x_max":818,"o":"m 132 0 q 135 164 133 100 q 137 270 136 228 q 138 344 138 313 q 138 408 138 375 q 138 486 138 440 q 138 565 138 532 q 138 628 138 597 q 137 702 138 660 q 135 808 136 744 q 132 972 133 872 l 176 972 q 174 803 175 864 q 172 711 172 743 q 171 658 171 679 q 171 607 171 636 q 172 556 171 569 q 179 536 174 543 q 197 528 186 531 q 240 526 208 526 q 335 525 271 525 q 439 527 404 525 q 489 535 474 529 q 517 549 504 540 q 567 612 540 567 q 615 707 593 657 q 656 797 640 761 q 683 858 672 832 q 705 910 694 885 q 728 972 715 936 l 785 972 q 676 749 718 833 q 611 622 635 665 q 576 562 588 579 q 560 536 565 544 q 531 506 547 519 q 492 485 514 493 q 442 476 469 478 q 528 262 490 346 q 600 131 565 178 q 672 64 635 83 q 754 44 708 44 q 776 46 765 44 q 797 50 786 47 q 818 57 808 53 l 818 -1 q 801 -6 811 -4 q 780 -10 792 -8 q 751 -11 768 -11 q 644 17 689 -11 q 563 105 600 46 q 490 256 526 164 q 407 476 453 349 q 265 476 311 476 q 202 474 218 475 q 179 467 186 472 q 169 444 171 461 q 168 381 168 428 q 169 328 168 372 q 171 224 169 285 q 174 103 172 164 q 176 0 175 43 l 132 0 z "},"Ḱ":{"ha":868,"x_min":132,"x_max":818,"o":"m 132 0 q 135 164 133 100 q 137 270 136 228 q 138 344 138 313 q 138 408 138 375 q 138 486 138 440 q 138 565 138 532 q 138 628 138 597 q 137 702 138 660 q 135 808 136 744 q 132 972 133 872 l 176 972 q 174 803 175 864 q 172 711 172 743 q 171 658 171 679 q 171 607 171 636 q 172 556 171 569 q 179 536 174 543 q 197 528 186 531 q 240 526 208 526 q 335 525 271 525 q 439 527 404 525 q 489 535 474 529 q 517 549 504 540 q 567 612 540 567 q 615 707 593 657 q 656 797 640 761 q 683 858 672 832 q 705 910 694 885 q 728 972 715 936 l 785 972 q 676 749 718 833 q 611 622 635 665 q 576 562 588 579 q 560 536 565 544 q 531 506 547 519 q 492 485 514 493 q 442 476 469 478 q 528 262 490 346 q 600 131 565 178 q 672 64 635 83 q 754 44 708 44 q 776 46 765 44 q 797 50 786 47 q 818 57 808 53 l 818 -1 q 801 -6 811 -4 q 780 -10 792 -8 q 751 -11 768 -11 q 644 17 689 -11 q 563 105 600 46 q 490 256 526 164 q 407 476 453 349 q 265 476 311 476 q 202 474 218 475 q 179 467 186 472 q 169 444 171 461 q 168 381 168 428 q 169 328 168 372 q 171 224 169 285 q 174 103 172 164 q 176 0 175 43 l 132 0 m 418 1071 l 467 1199 l 538 1199 l 461 1071 l 418 1071 z "},"Ǩ":{"ha":868,"x_min":132,"x_max":818,"o":"m 132 0 q 135 164 133 100 q 137 270 136 228 q 138 344 138 313 q 138 408 138 375 q 138 486 138 440 q 138 565 138 532 q 138 628 138 597 q 137 702 138 660 q 135 808 136 744 q 132 972 133 872 l 176 972 q 174 803 175 864 q 172 711 172 743 q 171 658 171 679 q 171 607 171 636 q 172 556 171 569 q 179 536 174 543 q 197 528 186 531 q 240 526 208 526 q 335 525 271 525 q 439 527 404 525 q 489 535 474 529 q 517 549 504 540 q 567 612 540 567 q 615 707 593 657 q 656 797 640 761 q 683 858 672 832 q 705 910 694 885 q 728 972 715 936 l 785 972 q 676 749 718 833 q 611 622 635 665 q 576 562 588 579 q 560 536 565 544 q 531 506 547 519 q 492 485 514 493 q 442 476 469 478 q 528 262 490 346 q 600 131 565 178 q 672 64 635 83 q 754 44 708 44 q 776 46 765 44 q 797 50 786 47 q 818 57 808 53 l 818 -1 q 801 -6 811 -4 q 780 -10 792 -8 q 751 -11 768 -11 q 644 17 689 -11 q 563 105 600 46 q 490 256 526 164 q 407 476 453 349 q 265 476 311 476 q 202 474 218 475 q 179 467 186 472 q 169 444 171 461 q 168 381 168 428 q 169 328 168 372 q 171 224 169 285 q 174 103 172 164 q 176 0 175 43 l 132 0 m 399 1071 l 333 1200 l 376 1200 q 408 1149 399 1164 q 424 1131 418 1133 q 436 1128 429 1128 q 449 1131 444 1128 q 464 1149 454 1133 q 496 1200 474 1164 l 539 1200 l 474 1071 l 399 1071 z "},"Ķ":{"ha":868,"x_min":132,"x_max":818,"o":"m 132 0 q 135 164 133 100 q 137 270 136 228 q 138 344 138 313 q 138 408 138 375 q 138 486 138 440 q 138 565 138 532 q 138 628 138 597 q 137 702 138 660 q 135 808 136 744 q 132 972 133 872 l 176 972 q 174 803 175 864 q 172 711 172 743 q 171 658 171 679 q 171 607 171 636 q 172 556 171 569 q 179 536 174 543 q 197 528 186 531 q 240 526 208 526 q 335 525 271 525 q 439 527 404 525 q 489 535 474 529 q 517 549 504 540 q 567 612 540 567 q 615 707 593 657 q 656 797 640 761 q 683 858 672 832 q 705 910 694 885 q 728 972 715 936 l 785 972 q 676 749 718 833 q 611 622 635 665 q 576 562 588 579 q 560 536 565 544 q 531 506 547 519 q 492 485 514 493 q 442 476 469 478 q 528 262 490 346 q 600 131 565 178 q 672 64 635 83 q 754 44 708 44 q 776 46 765 44 q 797 50 786 47 q 818 57 808 53 l 818 -1 q 801 -6 811 -4 q 780 -10 792 -8 q 751 -11 768 -11 q 644 17 689 -11 q 563 105 600 46 q 490 256 526 164 q 407 476 453 349 q 265 476 311 476 q 202 474 218 475 q 179 467 186 472 q 169 444 171 461 q 168 381 168 428 q 169 328 168 372 q 171 224 169 285 q 174 103 172 164 q 176 0 175 43 l 132 0 m 382 -287 l 382 -250 q 388 -250 385 -250 q 393 -250 390 -250 q 442 -240 429 -250 q 456 -217 456 -231 q 449 -207 456 -208 q 433 -206 443 -206 q 396 -192 410 -206 q 382 -157 382 -179 q 395 -116 382 -132 q 435 -100 408 -100 q 472 -114 456 -100 q 488 -169 488 -128 q 463 -247 488 -211 q 382 -287 439 -283 z "},"Ḳ":{"ha":868,"x_min":132,"x_max":818,"o":"m 132 0 q 135 164 133 100 q 137 270 136 228 q 138 344 138 313 q 138 408 138 375 q 138 486 138 440 q 138 565 138 532 q 138 628 138 597 q 137 702 138 660 q 135 808 136 744 q 132 972 133 872 l 176 972 q 174 803 175 864 q 172 711 172 743 q 171 658 171 679 q 171 607 171 636 q 172 556 171 569 q 179 536 174 543 q 197 528 186 531 q 240 526 208 526 q 335 525 271 525 q 439 527 404 525 q 489 535 474 529 q 517 549 504 540 q 567 612 540 567 q 615 707 593 657 q 656 797 640 761 q 683 858 672 832 q 705 910 694 885 q 728 972 715 936 l 785 972 q 676 749 718 833 q 611 622 635 665 q 576 562 588 579 q 560 536 565 544 q 531 506 547 519 q 492 485 514 493 q 442 476 469 478 q 528 262 490 346 q 600 131 565 178 q 672 64 635 83 q 754 44 708 44 q 776 46 765 44 q 797 50 786 47 q 818 57 808 53 l 818 -1 q 801 -6 811 -4 q 780 -10 792 -8 q 751 -11 768 -11 q 644 17 689 -11 q 563 105 600 46 q 490 256 526 164 q 407 476 453 349 q 265 476 311 476 q 202 474 218 475 q 179 467 186 472 q 169 444 171 461 q 168 381 168 428 q 169 328 168 372 q 171 224 169 285 q 174 103 172 164 q 176 0 175 43 l 132 0 m 436 -242 q 388 -186 388 -242 q 401 -144 388 -158 q 436 -131 414 -131 q 472 -144 458 -131 q 485 -186 485 -158 q 472 -228 485 -214 q 436 -242 458 -242 z "},"Ƙ":{"ha":868,"x_min":132,"x_max":924,"o":"m 132 0 q 135 164 133 100 q 137 270 136 228 q 138 344 138 313 q 138 408 138 375 q 138 486 138 440 q 138 565 138 532 q 138 628 138 597 q 137 702 138 660 q 135 808 136 744 q 132 972 133 872 l 176 972 q 174 803 175 864 q 172 711 172 743 q 171 658 171 679 q 171 607 171 636 q 172 556 171 569 q 179 536 174 543 q 197 528 186 531 q 240 526 208 526 q 335 525 271 525 q 439 527 404 525 q 489 535 474 529 q 517 549 504 540 q 567 612 540 567 q 615 707 593 657 q 656 797 640 761 q 683 858 672 832 q 705 910 694 885 q 728 972 715 936 l 785 972 q 676 749 718 833 q 611 622 635 665 q 576 562 588 579 q 560 536 565 544 q 531 506 547 519 q 492 485 514 493 q 442 476 469 478 q 528 262 490 346 q 600 131 565 178 q 672 64 635 83 q 754 44 708 44 q 776 46 765 44 q 797 50 786 47 q 818 57 808 53 l 818 -1 q 801 -6 811 -4 q 780 -10 792 -8 q 751 -11 768 -11 q 644 17 689 -11 q 563 105 600 46 q 490 256 526 164 q 407 476 453 349 q 265 476 311 476 q 202 474 218 475 q 179 467 186 472 q 169 444 171 461 q 168 381 168 428 q 169 328 168 372 q 171 224 169 285 q 174 103 172 164 q 176 0 175 43 l 132 0 m 729 936 l 736 972 q 753 972 742 972 q 801 972 764 972 q 867 962 840 972 q 909 926 894 951 q 924 860 924 901 q 924 841 924 851 q 922 819 924 831 l 878 819 q 879 830 879 825 q 879 840 879 835 q 879 850 879 846 q 876 885 879 865 q 857 917 872 906 q 820 932 843 928 q 729 936 797 936 z "},"Ḵ":{"ha":868,"x_min":132,"x_max":818,"o":"m 132 0 q 135 164 133 100 q 137 270 136 228 q 138 344 138 313 q 138 408 138 375 q 138 486 138 440 q 138 565 138 532 q 138 628 138 597 q 137 702 138 660 q 135 808 136 744 q 132 972 133 872 l 176 972 q 174 803 175 864 q 172 711 172 743 q 171 658 171 679 q 171 607 171 636 q 172 556 171 569 q 179 536 174 543 q 197 528 186 531 q 240 526 208 526 q 335 525 271 525 q 439 527 404 525 q 489 535 474 529 q 517 549 504 540 q 567 612 540 567 q 615 707 593 657 q 656 797 640 761 q 683 858 672 832 q 705 910 694 885 q 728 972 715 936 l 785 972 q 676 749 718 833 q 611 622 635 665 q 576 562 588 579 q 560 536 565 544 q 531 506 547 519 q 492 485 514 493 q 442 476 469 478 q 528 262 490 346 q 600 131 565 178 q 672 64 635 83 q 754 44 708 44 q 776 46 765 44 q 797 50 786 47 q 818 57 808 53 l 818 -1 q 801 -6 811 -4 q 780 -10 792 -8 q 751 -11 768 -11 q 644 17 689 -11 q 563 105 600 46 q 490 256 526 164 q 407 476 453 349 q 265 476 311 476 q 202 474 218 475 q 179 467 186 472 q 169 444 171 461 q 168 381 168 428 q 169 328 168 372 q 171 224 169 285 q 174 103 172 164 q 176 0 175 43 l 132 0 m 303 -207 l 303 -153 q 355 -155 332 -154 q 397 -156 378 -156 q 435 -157 417 -157 q 474 -156 454 -157 q 517 -155 493 -156 q 569 -153 540 -154 l 569 -207 q 517 -205 540 -206 q 474 -203 493 -204 q 435 -203 454 -203 q 397 -203 417 -203 q 355 -205 378 -204 q 303 -207 332 -206 z "},"Ꝁ":{"ha":868,"x_min":19,"x_max":818,"o":"m 19 800 l 19 843 q 81 842 46 842 q 153 842 117 842 q 226 842 190 842 q 289 843 263 842 l 289 800 q 227 801 263 801 q 154 801 192 801 q 81 801 117 801 q 19 800 46 801 m 132 0 q 135 164 133 100 q 137 270 136 228 q 138 344 138 313 q 138 408 138 375 q 138 486 138 440 q 138 565 138 532 q 138 628 138 597 q 137 702 138 660 q 135 808 136 744 q 132 972 133 872 l 176 972 q 174 803 175 864 q 172 711 172 743 q 171 658 171 679 q 171 607 171 636 q 172 556 171 569 q 179 536 174 543 q 197 528 186 531 q 240 526 208 526 q 335 525 271 525 q 439 527 404 525 q 489 535 474 529 q 517 549 504 540 q 567 612 540 567 q 615 707 593 657 q 656 797 640 761 q 683 858 672 832 q 705 910 694 885 q 728 972 715 936 l 785 972 q 676 749 718 833 q 611 622 635 665 q 576 562 588 579 q 560 536 565 544 q 531 506 547 519 q 492 485 514 493 q 442 476 469 478 q 528 262 490 346 q 600 131 565 178 q 672 64 635 83 q 754 44 708 44 q 776 46 765 44 q 797 50 786 47 q 818 57 808 53 l 818 -1 q 801 -6 811 -4 q 780 -10 792 -8 q 751 -11 768 -11 q 644 17 689 -11 q 563 105 600 46 q 490 256 526 164 q 407 476 453 349 q 265 476 311 476 q 202 474 218 475 q 179 467 186 472 q 169 444 171 461 q 168 381 168 428 q 169 328 168 372 q 171 224 169 285 q 174 103 172 164 q 176 0 175 43 l 132 0 z "},"L":{"ha":601,"x_min":132,"x_max":585,"o":"m 585 0 l 133 0 q 135 164 135 100 q 137 270 136 228 q 138 344 138 313 q 138 408 138 375 q 138 486 138 440 q 138 565 138 532 q 138 629 138 597 q 137 703 138 661 q 135 809 136 744 q 132 974 133 874 l 178 974 q 174 683 175 818 q 172 417 172 547 q 171 149 171 288 q 174 87 171 106 q 188 60 178 68 q 200 54 193 56 q 219 52 207 53 q 249 51 231 51 q 322 51 288 51 q 394 51 357 51 q 478 51 432 51 q 585 51 524 51 l 585 0 z "},"Ĺ":{"ha":601,"x_min":132,"x_max":585,"o":"m 585 0 l 133 0 q 135 164 135 100 q 137 270 136 228 q 138 344 138 313 q 138 408 138 375 q 138 486 138 440 q 138 565 138 532 q 138 629 138 597 q 137 703 138 661 q 135 809 136 744 q 132 974 133 874 l 178 974 q 174 683 175 818 q 172 417 172 547 q 171 149 171 288 q 174 87 171 106 q 188 60 178 68 q 200 54 193 56 q 219 52 207 53 q 249 51 231 51 q 322 51 288 51 q 394 51 357 51 q 478 51 432 51 q 585 51 524 51 l 585 0 m 360 1071 l 408 1199 l 479 1199 l 403 1071 l 360 1071 z "},"Ƚ":{"ha":642,"x_min":19,"x_max":585,"o":"m 19 500 l 19 543 q 81 542 46 542 q 153 542 117 542 q 226 542 190 542 q 289 543 263 542 l 289 500 q 227 501 263 501 q 154 501 192 501 q 81 501 117 501 q 19 500 46 501 m 585 0 l 133 0 q 135 164 135 100 q 137 270 136 228 q 138 344 138 313 q 138 408 138 375 q 138 486 138 440 q 138 565 138 532 q 138 629 138 597 q 137 703 138 661 q 135 809 136 744 q 132 974 133 874 l 178 974 q 174 683 175 818 q 172 417 172 547 q 171 149 171 288 q 174 87 171 106 q 188 60 178 68 q 200 54 193 56 q 219 52 207 53 q 249 51 231 51 q 322 51 288 51 q 394 51 357 51 q 478 51 432 51 q 585 51 524 51 l 585 0 z "},"Ɬ":{"ha":642,"x_min":-1,"x_max":585,"o":"m 163 499 q 38 510 78 499 q -1 569 -1 522 q 19 619 -1 604 q 65 633 40 633 q 111 620 92 633 q 138 579 131 607 l 138 542 q 112 578 126 567 q 78 590 97 590 q 44 565 44 590 q 71 541 44 544 q 163 538 97 538 q 208 538 189 538 q 252 540 228 539 q 314 543 276 542 l 314 499 q 222 499 258 499 q 163 499 186 499 m 585 0 l 133 0 q 135 164 135 100 q 137 270 136 228 q 138 344 138 313 q 138 408 138 375 q 138 486 138 440 q 138 565 138 532 q 138 629 138 597 q 137 703 138 661 q 135 809 136 744 q 132 974 133 874 l 178 974 q 174 683 175 818 q 172 417 172 547 q 171 149 171 288 q 174 87 171 106 q 188 60 178 68 q 200 54 193 56 q 219 52 207 53 q 249 51 231 51 q 322 51 288 51 q 394 51 357 51 q 478 51 432 51 q 585 51 524 51 l 585 0 z "},"Ľ":{"ha":601,"x_min":132,"x_max":585,"o":"m 585 0 l 133 0 q 135 164 135 100 q 137 270 136 228 q 138 344 138 313 q 138 408 138 375 q 138 486 138 440 q 138 565 138 532 q 138 629 138 597 q 137 703 138 661 q 135 809 136 744 q 132 974 133 874 l 178 974 q 174 683 175 818 q 172 417 172 547 q 171 149 171 288 q 174 87 171 106 q 188 60 178 68 q 200 54 193 56 q 219 52 207 53 q 249 51 231 51 q 322 51 288 51 q 394 51 357 51 q 478 51 432 51 q 585 51 524 51 l 585 0 m 428 732 l 438 993 l 497 993 l 458 732 l 428 732 z "},"Ḽ":{"ha":601,"x_min":132,"x_max":585,"o":"m 585 0 l 133 0 q 135 164 135 100 q 137 270 136 228 q 138 344 138 313 q 138 408 138 375 q 138 486 138 440 q 138 565 138 532 q 138 629 138 597 q 137 703 138 661 q 135 809 136 744 q 132 974 133 874 l 178 974 q 174 683 175 818 q 172 417 172 547 q 171 149 171 288 q 174 87 171 106 q 188 60 178 68 q 200 54 193 56 q 219 52 207 53 q 249 51 231 51 q 322 51 288 51 q 394 51 357 51 q 478 51 432 51 q 585 51 524 51 l 585 0 m 244 -254 l 310 -125 l 385 -125 l 450 -254 l 407 -254 q 375 -203 385 -218 q 360 -185 365 -187 q 347 -182 356 -182 q 335 -185 340 -182 q 319 -203 329 -187 q 288 -254 310 -218 l 244 -254 z "},"Ļ":{"ha":601,"x_min":132,"x_max":585,"o":"m 585 0 l 133 0 q 135 164 135 100 q 137 270 136 228 q 138 344 138 313 q 138 408 138 375 q 138 486 138 440 q 138 565 138 532 q 138 629 138 597 q 137 703 138 661 q 135 809 136 744 q 132 974 133 874 l 178 974 q 174 683 175 818 q 172 417 172 547 q 171 149 171 288 q 174 87 171 106 q 188 60 178 68 q 200 54 193 56 q 219 52 207 53 q 249 51 231 51 q 322 51 288 51 q 394 51 357 51 q 478 51 432 51 q 585 51 524 51 l 585 0 m 293 -287 l 293 -250 q 299 -250 296 -250 q 304 -250 301 -250 q 353 -240 340 -250 q 367 -217 367 -231 q 360 -207 367 -208 q 344 -206 354 -206 q 307 -192 321 -206 q 293 -157 293 -179 q 306 -116 293 -132 q 346 -100 319 -100 q 383 -114 367 -100 q 399 -169 399 -128 q 374 -247 399 -211 q 293 -287 350 -283 z "},"Ḷ":{"ha":601,"x_min":132,"x_max":585,"o":"m 585 0 l 133 0 q 135 164 135 100 q 137 270 136 228 q 138 344 138 313 q 138 408 138 375 q 138 486 138 440 q 138 565 138 532 q 138 629 138 597 q 137 703 138 661 q 135 809 136 744 q 132 974 133 874 l 178 974 q 174 683 175 818 q 172 417 172 547 q 171 149 171 288 q 174 87 171 106 q 188 60 178 68 q 200 54 193 56 q 219 52 207 53 q 249 51 231 51 q 322 51 288 51 q 394 51 357 51 q 478 51 432 51 q 585 51 524 51 l 585 0 m 347 -242 q 299 -186 299 -242 q 312 -144 299 -158 q 347 -131 325 -131 q 383 -144 369 -131 q 396 -186 396 -158 q 383 -228 396 -214 q 347 -242 369 -242 z "},"Ḹ":{"ha":601,"x_min":132,"x_max":585,"o":"m 585 0 l 133 0 q 135 164 135 100 q 137 270 136 228 q 138 344 138 313 q 138 408 138 375 q 138 486 138 440 q 138 565 138 532 q 138 629 138 597 q 137 703 138 661 q 135 809 136 744 q 132 974 133 874 l 178 974 q 174 683 175 818 q 172 417 172 547 q 171 149 171 288 q 174 87 171 106 q 188 60 178 68 q 200 54 193 56 q 219 52 207 53 q 249 51 231 51 q 322 51 288 51 q 394 51 357 51 q 478 51 432 51 q 585 51 524 51 l 585 0 m 347 -242 q 299 -186 299 -242 q 312 -144 299 -158 q 347 -131 325 -131 q 383 -144 369 -131 q 396 -186 396 -158 q 383 -228 396 -214 q 347 -242 369 -242 m 236 1089 l 236 1143 q 291 1141 267 1142 q 336 1140 315 1140 q 376 1139 357 1139 q 418 1140 397 1139 q 464 1141 439 1140 q 519 1143 489 1142 l 519 1089 q 464 1091 489 1090 q 417 1092 439 1092 q 375 1093 396 1093 q 335 1092 356 1093 q 291 1091 315 1092 q 236 1089 267 1090 z "},"Ⱡ":{"ha":632,"x_min":17,"x_max":575,"o":"m 17 424 l 17 467 q 78 465 43 465 q 151 465 114 465 q 224 465 189 465 q 286 467 260 465 l 286 424 q 224 426 260 425 q 151 426 189 426 q 78 426 114 426 q 17 424 43 425 m 17 540 l 17 583 q 78 582 43 582 q 151 582 114 582 q 224 582 189 582 q 286 583 260 582 l 286 540 q 224 542 260 542 q 151 543 189 543 q 78 542 114 543 q 17 540 43 542 m 575 0 l 124 0 q 126 164 125 100 q 127 270 126 228 q 128 344 128 313 q 128 408 128 375 q 128 486 128 440 q 128 565 128 532 q 128 629 128 597 q 127 703 128 661 q 125 809 126 744 q 122 974 124 874 l 168 974 q 164 683 165 818 q 162 417 163 547 q 161 149 161 288 q 165 87 161 106 q 178 60 168 68 q 190 54 183 56 q 209 52 197 53 q 239 51 221 51 q 313 51 278 51 q 385 51 347 51 q 468 51 422 51 q 575 51 514 51 l 575 0 z "},"Ḻ":{"ha":601,"x_min":132,"x_max":585,"o":"m 585 0 l 133 0 q 135 164 135 100 q 137 270 136 228 q 138 344 138 313 q 138 408 138 375 q 138 486 138 440 q 138 565 138 532 q 138 629 138 597 q 137 703 138 661 q 135 809 136 744 q 132 974 133 874 l 178 974 q 174 683 175 818 q 172 417 172 547 q 171 149 171 288 q 174 87 171 106 q 188 60 178 68 q 200 54 193 56 q 219 52 207 53 q 249 51 231 51 q 322 51 288 51 q 394 51 357 51 q 478 51 432 51 q 585 51 524 51 l 585 0 m 214 -207 l 214 -153 q 266 -155 243 -154 q 308 -156 289 -156 q 346 -157 328 -157 q 385 -156 365 -157 q 428 -155 404 -156 q 481 -153 451 -154 l 481 -207 q 428 -205 451 -206 q 385 -203 404 -204 q 346 -203 365 -203 q 308 -203 328 -203 q 266 -205 289 -204 q 214 -207 243 -206 z "},"Ɫ":{"ha":642,"x_min":-21,"x_max":585,"o":"m 242 482 q 188 494 210 482 q 147 521 167 507 q 121 540 133 532 q 93 547 108 547 q 58 538 75 547 q 40 483 40 528 l -21 483 q 1 556 -21 532 q 71 581 24 581 q 124 569 103 581 q 164 543 146 558 q 192 524 178 532 q 219 517 206 517 q 256 526 239 517 q 272 579 272 535 l 333 579 q 312 507 333 532 q 242 482 290 482 m 585 0 l 133 0 q 135 164 135 100 q 137 270 136 228 q 138 344 138 313 q 138 408 138 375 q 138 486 138 440 q 138 565 138 532 q 138 629 138 597 q 137 703 138 661 q 135 809 136 744 q 132 974 133 874 l 178 974 q 174 683 175 818 q 172 417 172 547 q 171 149 171 288 q 174 87 171 106 q 188 60 178 68 q 200 54 193 56 q 219 52 207 53 q 249 51 231 51 q 322 51 288 51 q 394 51 357 51 q 478 51 432 51 q 585 51 524 51 l 585 0 z "},"Ł":{"ha":601,"x_min":-33,"x_max":585,"o":"m 340 558 q 269 535 294 543 q 227 521 243 526 q 197 510 211 515 q 158 497 182 506 q 119 484 135 489 q 88 474 104 479 q 43 458 71 468 q -33 432 15 449 l -33 476 q 41 500 14 492 q 85 514 68 508 q 117 525 101 519 q 154 539 132 531 q 190 552 176 547 q 221 563 204 557 q 265 579 238 569 q 340 606 293 589 l 340 558 m 585 0 l 133 0 q 135 164 135 100 q 137 270 136 228 q 138 344 138 313 q 138 408 138 375 q 138 486 138 440 q 138 565 138 532 q 138 629 138 597 q 137 703 138 661 q 135 809 136 744 q 132 974 133 874 l 178 974 q 174 683 175 818 q 172 417 172 547 q 171 149 171 288 q 174 87 171 106 q 188 60 178 68 q 200 54 193 56 q 219 52 207 53 q 249 51 231 51 q 322 51 288 51 q 394 51 357 51 q 478 51 432 51 q 585 51 524 51 l 585 0 z "},"M":{"ha":1115,"x_min":132,"x_max":983,"o":"m 132 0 q 135 164 133 100 q 137 270 136 228 q 138 344 138 313 q 138 408 138 375 q 138 486 138 440 q 138 565 138 532 q 138 628 138 597 q 137 702 138 660 q 135 808 136 744 q 133 972 135 872 l 372 972 q 433 583 408 742 q 475 323 458 424 q 503 165 492 222 q 522 84 514 108 q 539 55 531 60 q 558 50 547 50 q 577 55 569 50 q 593 84 585 60 q 613 165 601 108 q 640 323 624 222 q 682 583 657 424 q 743 972 707 742 l 982 972 q 980 808 981 872 q 978 702 979 744 q 978 628 978 660 q 978 565 978 597 q 978 486 978 532 q 978 408 978 440 q 978 344 978 375 q 978 270 978 313 q 981 164 979 228 q 983 0 982 100 l 938 0 q 944 367 942 215 q 946 621 946 519 q 945 774 946 718 q 942 856 944 829 q 936 894 940 883 q 925 910 932 904 q 906 917 919 915 q 857 918 893 918 q 803 917 819 918 q 779 908 786 915 q 764 857 774 903 q 737 708 754 811 q 692 433 719 606 q 624 0 664 260 l 492 0 q 424 433 451 260 q 378 708 396 606 q 351 857 361 811 q 336 908 342 903 q 313 917 329 915 q 258 918 296 918 q 210 917 224 918 q 190 910 197 915 q 179 894 183 904 q 173 856 175 883 q 170 773 171 829 q 169 619 169 717 q 172 367 169 518 q 178 0 174 215 l 132 0 z "},"Ḿ":{"ha":1115,"x_min":132,"x_max":983,"o":"m 132 0 q 135 164 133 100 q 137 270 136 228 q 138 344 138 313 q 138 408 138 375 q 138 486 138 440 q 138 565 138 532 q 138 628 138 597 q 137 702 138 660 q 135 808 136 744 q 133 972 135 872 l 372 972 q 433 583 408 742 q 475 323 458 424 q 503 165 492 222 q 522 84 514 108 q 539 55 531 60 q 558 50 547 50 q 577 55 569 50 q 593 84 585 60 q 613 165 601 108 q 640 323 624 222 q 682 583 657 424 q 743 972 707 742 l 982 972 q 980 808 981 872 q 978 702 979 744 q 978 628 978 660 q 978 565 978 597 q 978 486 978 532 q 978 408 978 440 q 978 344 978 375 q 978 270 978 313 q 981 164 979 228 q 983 0 982 100 l 938 0 q 944 367 942 215 q 946 621 946 519 q 945 774 946 718 q 942 856 944 829 q 936 894 940 883 q 925 910 932 904 q 906 917 919 915 q 857 918 893 918 q 803 917 819 918 q 779 908 786 915 q 764 857 774 903 q 737 708 754 811 q 692 433 719 606 q 624 0 664 260 l 492 0 q 424 433 451 260 q 378 708 396 606 q 351 857 361 811 q 336 908 342 903 q 313 917 329 915 q 258 918 296 918 q 210 917 224 918 q 190 910 197 915 q 179 894 183 904 q 173 856 175 883 q 170 773 171 829 q 169 619 169 717 q 172 367 169 518 q 178 0 174 215 l 132 0 m 540 1071 l 589 1199 l 660 1199 l 583 1071 l 540 1071 z "},"Ṁ":{"ha":1115,"x_min":132,"x_max":983,"o":"m 132 0 q 135 164 133 100 q 137 270 136 228 q 138 344 138 313 q 138 408 138 375 q 138 486 138 440 q 138 565 138 532 q 138 628 138 597 q 137 702 138 660 q 135 808 136 744 q 133 972 135 872 l 372 972 q 433 583 408 742 q 475 323 458 424 q 503 165 492 222 q 522 84 514 108 q 539 55 531 60 q 558 50 547 50 q 577 55 569 50 q 593 84 585 60 q 613 165 601 108 q 640 323 624 222 q 682 583 657 424 q 743 972 707 742 l 982 972 q 980 808 981 872 q 978 702 979 744 q 978 628 978 660 q 978 565 978 597 q 978 486 978 532 q 978 408 978 440 q 978 344 978 375 q 978 270 978 313 q 981 164 979 228 q 983 0 982 100 l 938 0 q 944 367 942 215 q 946 621 946 519 q 945 774 946 718 q 942 856 944 829 q 936 894 940 883 q 925 910 932 904 q 906 917 919 915 q 857 918 893 918 q 803 917 819 918 q 779 908 786 915 q 764 857 774 903 q 737 708 754 811 q 692 433 719 606 q 624 0 664 260 l 492 0 q 424 433 451 260 q 378 708 396 606 q 351 857 361 811 q 336 908 342 903 q 313 917 329 915 q 258 918 296 918 q 210 917 224 918 q 190 910 197 915 q 179 894 183 904 q 173 856 175 883 q 170 773 171 829 q 169 619 169 717 q 172 367 169 518 q 178 0 174 215 l 132 0 m 558 1075 q 510 1131 510 1075 q 523 1172 510 1158 q 558 1186 536 1186 q 594 1172 581 1186 q 607 1131 607 1158 q 594 1089 607 1103 q 558 1075 581 1075 z "},"Ṃ":{"ha":1115,"x_min":132,"x_max":983,"o":"m 132 0 q 135 164 133 100 q 137 270 136 228 q 138 344 138 313 q 138 408 138 375 q 138 486 138 440 q 138 565 138 532 q 138 628 138 597 q 137 702 138 660 q 135 808 136 744 q 133 972 135 872 l 372 972 q 433 583 408 742 q 475 323 458 424 q 503 165 492 222 q 522 84 514 108 q 539 55 531 60 q 558 50 547 50 q 577 55 569 50 q 593 84 585 60 q 613 165 601 108 q 640 323 624 222 q 682 583 657 424 q 743 972 707 742 l 982 972 q 980 808 981 872 q 978 702 979 744 q 978 628 978 660 q 978 565 978 597 q 978 486 978 532 q 978 408 978 440 q 978 344 978 375 q 978 270 978 313 q 981 164 979 228 q 983 0 982 100 l 938 0 q 944 367 942 215 q 946 621 946 519 q 945 774 946 718 q 942 856 944 829 q 936 894 940 883 q 925 910 932 904 q 906 917 919 915 q 857 918 893 918 q 803 917 819 918 q 779 908 786 915 q 764 857 774 903 q 737 708 754 811 q 692 433 719 606 q 624 0 664 260 l 492 0 q 424 433 451 260 q 378 708 396 606 q 351 857 361 811 q 336 908 342 903 q 313 917 329 915 q 258 918 296 918 q 210 917 224 918 q 190 910 197 915 q 179 894 183 904 q 173 856 175 883 q 170 773 171 829 q 169 619 169 717 q 172 367 169 518 q 178 0 174 215 l 132 0 m 558 -242 q 510 -186 510 -242 q 523 -144 510 -158 q 558 -131 536 -131 q 594 -144 581 -131 q 607 -186 607 -158 q 594 -228 607 -214 q 558 -242 581 -242 z "},"Ɯ":{"ha":1118,"x_min":75,"x_max":1043,"o":"m 1043 972 q 1040 679 1040 793 q 1038 498 1039 565 q 1037 394 1038 431 q 1036 336 1036 358 q 1036 288 1036 314 q 1036 235 1036 256 q 1037 188 1036 214 q 1039 119 1038 163 q 1043 0 1040 76 l 1001 0 q 1003 38 1003 19 q 1004 69 1004 57 q 1003 123 1004 111 q 994 135 1001 135 q 983 128 989 135 q 964 100 978 122 q 922 50 951 79 q 851 -1 893 21 q 753 -22 808 -22 q 653 -1 692 -22 q 595 49 615 19 q 567 108 575 79 q 555 145 558 139 q 544 151 551 151 q 533 144 539 151 q 511 114 526 138 q 460 51 492 82 q 385 -1 429 19 q 285 -22 342 -22 q 177 8 224 -22 q 106 90 131 38 q 81 208 81 143 q 81 314 81 269 q 81 399 81 358 q 80 487 81 440 q 78 597 79 533 q 77 752 78 661 q 75 972 76 843 l 118 972 q 116 753 117 843 q 115 600 115 663 q 113 493 114 538 q 113 412 113 449 q 113 335 113 375 q 113 243 113 296 q 142 110 113 157 q 217 47 172 64 q 303 29 261 29 q 434 68 381 29 q 515 176 488 107 q 543 333 543 244 q 543 397 543 369 q 543 460 543 424 q 542 556 543 496 q 540 717 542 617 q 538 972 539 817 l 581 972 q 578 751 579 842 q 577 597 578 660 q 576 490 576 535 q 575 409 575 446 q 575 334 575 372 q 575 243 575 296 q 604 110 575 157 q 677 47 633 64 q 764 29 721 29 q 893 66 839 29 q 976 171 947 103 q 1004 333 1004 239 q 1004 397 1004 369 q 1004 461 1004 425 q 1003 558 1004 497 q 1001 717 1003 618 q 999 972 1000 817 l 1043 972 z "},"N":{"ha":915,"x_min":131,"x_max":793,"o":"m 131 0 q 135 164 133 100 q 137 270 136 228 q 138 344 138 313 q 139 408 139 375 q 139 486 139 440 q 139 565 139 532 q 139 628 139 597 q 138 702 139 660 q 137 808 138 744 q 135 972 136 872 l 360 972 q 460 598 419 751 q 528 346 501 444 q 572 190 556 247 q 596 106 588 133 q 608 71 604 79 q 617 58 613 63 q 638 51 624 53 q 685 49 653 49 q 723 50 711 49 q 740 57 735 51 q 749 71 746 61 q 755 114 753 81 q 757 221 757 147 q 756 346 757 267 q 754 526 756 425 q 751 742 753 628 q 746 972 749 856 l 793 972 q 790 808 790 872 q 788 702 789 744 q 787 628 788 660 q 786 565 786 597 q 786 486 786 532 q 786 408 786 440 q 786 344 786 375 q 787 270 786 313 q 788 164 788 228 q 790 0 789 100 l 585 0 q 485 372 526 219 q 418 624 444 525 q 376 779 392 722 q 351 863 360 836 q 339 897 343 889 q 331 910 335 906 q 309 918 325 917 q 256 919 293 919 q 208 918 221 919 q 189 911 196 917 q 176 892 181 904 q 169 847 171 879 q 168 747 168 815 q 168 623 168 701 q 169 444 168 544 q 172 230 169 343 q 178 0 174 117 l 131 0 z "},"Ń":{"ha":915,"x_min":131,"x_max":793,"o":"m 131 0 q 135 164 133 100 q 137 270 136 228 q 138 344 138 313 q 139 408 139 375 q 139 486 139 440 q 139 565 139 532 q 139 628 139 597 q 138 702 139 660 q 137 808 138 744 q 135 972 136 872 l 360 972 q 460 598 419 751 q 528 346 501 444 q 572 190 556 247 q 596 106 588 133 q 608 71 604 79 q 617 58 613 63 q 638 51 624 53 q 685 49 653 49 q 723 50 711 49 q 740 57 735 51 q 749 71 746 61 q 755 114 753 81 q 757 221 757 147 q 756 346 757 267 q 754 526 756 425 q 751 742 753 628 q 746 972 749 856 l 793 972 q 790 808 790 872 q 788 702 789 744 q 787 628 788 660 q 786 565 786 597 q 786 486 786 532 q 786 408 786 440 q 786 344 786 375 q 787 270 786 313 q 788 164 788 228 q 790 0 789 100 l 585 0 q 485 372 526 219 q 418 624 444 525 q 376 779 392 722 q 351 863 360 836 q 339 897 343 889 q 331 910 335 906 q 309 918 325 917 q 256 919 293 919 q 208 918 221 919 q 189 911 196 917 q 176 892 181 904 q 169 847 171 879 q 168 747 168 815 q 168 623 168 701 q 169 444 168 544 q 172 230 169 343 q 178 0 174 117 l 131 0 m 447 1071 l 496 1199 l 567 1199 l 490 1071 l 447 1071 z "},"Ň":{"ha":915,"x_min":131,"x_max":793,"o":"m 131 0 q 135 164 133 100 q 137 270 136 228 q 138 344 138 313 q 139 408 139 375 q 139 486 139 440 q 139 565 139 532 q 139 628 139 597 q 138 702 139 660 q 137 808 138 744 q 135 972 136 872 l 360 972 q 460 598 419 751 q 528 346 501 444 q 572 190 556 247 q 596 106 588 133 q 608 71 604 79 q 617 58 613 63 q 638 51 624 53 q 685 49 653 49 q 723 50 711 49 q 740 57 735 51 q 749 71 746 61 q 755 114 753 81 q 757 221 757 147 q 756 346 757 267 q 754 526 756 425 q 751 742 753 628 q 746 972 749 856 l 793 972 q 790 808 790 872 q 788 702 789 744 q 787 628 788 660 q 786 565 786 597 q 786 486 786 532 q 786 408 786 440 q 786 344 786 375 q 787 270 786 313 q 788 164 788 228 q 790 0 789 100 l 585 0 q 485 372 526 219 q 418 624 444 525 q 376 779 392 722 q 351 863 360 836 q 339 897 343 889 q 331 910 335 906 q 309 918 325 917 q 256 919 293 919 q 208 918 221 919 q 189 911 196 917 q 176 892 181 904 q 169 847 171 879 q 168 747 168 815 q 168 623 168 701 q 169 444 168 544 q 172 230 169 343 q 178 0 174 117 l 131 0 m 428 1071 l 363 1200 l 406 1200 q 438 1149 428 1164 q 453 1131 447 1133 q 465 1128 458 1128 q 478 1131 474 1128 q 493 1149 483 1133 q 525 1200 503 1164 l 568 1200 l 503 1071 l 428 1071 z "},"Ṋ":{"ha":915,"x_min":131,"x_max":793,"o":"m 131 0 q 135 164 133 100 q 137 270 136 228 q 138 344 138 313 q 139 408 139 375 q 139 486 139 440 q 139 565 139 532 q 139 628 139 597 q 138 702 139 660 q 137 808 138 744 q 135 972 136 872 l 360 972 q 460 598 419 751 q 528 346 501 444 q 572 190 556 247 q 596 106 588 133 q 608 71 604 79 q 617 58 613 63 q 638 51 624 53 q 685 49 653 49 q 723 50 711 49 q 740 57 735 51 q 749 71 746 61 q 755 114 753 81 q 757 221 757 147 q 756 346 757 267 q 754 526 756 425 q 751 742 753 628 q 746 972 749 856 l 793 972 q 790 808 790 872 q 788 702 789 744 q 787 628 788 660 q 786 565 786 597 q 786 486 786 532 q 786 408 786 440 q 786 344 786 375 q 787 270 786 313 q 788 164 788 228 q 790 0 789 100 l 585 0 q 485 372 526 219 q 418 624 444 525 q 376 779 392 722 q 351 863 360 836 q 339 897 343 889 q 331 910 335 906 q 309 918 325 917 q 256 919 293 919 q 208 918 221 919 q 189 911 196 917 q 176 892 181 904 q 169 847 171 879 q 168 747 168 815 q 168 623 168 701 q 169 444 168 544 q 172 230 169 343 q 178 0 174 117 l 131 0 m 339 -254 l 404 -125 l 479 -125 l 544 -254 l 501 -254 q 469 -203 479 -218 q 455 -185 460 -187 q 442 -182 450 -182 q 429 -185 435 -182 q 414 -203 424 -187 q 382 -254 404 -218 l 339 -254 z "},"Ņ":{"ha":915,"x_min":131,"x_max":793,"o":"m 131 0 q 135 164 133 100 q 137 270 136 228 q 138 344 138 313 q 139 408 139 375 q 139 486 139 440 q 139 565 139 532 q 139 628 139 597 q 138 702 139 660 q 137 808 138 744 q 135 972 136 872 l 360 972 q 460 598 419 751 q 528 346 501 444 q 572 190 556 247 q 596 106 588 133 q 608 71 604 79 q 617 58 613 63 q 638 51 624 53 q 685 49 653 49 q 723 50 711 49 q 740 57 735 51 q 749 71 746 61 q 755 114 753 81 q 757 221 757 147 q 756 346 757 267 q 754 526 756 425 q 751 742 753 628 q 746 972 749 856 l 793 972 q 790 808 790 872 q 788 702 789 744 q 787 628 788 660 q 786 565 786 597 q 786 486 786 532 q 786 408 786 440 q 786 344 786 375 q 787 270 786 313 q 788 164 788 228 q 790 0 789 100 l 585 0 q 485 372 526 219 q 418 624 444 525 q 376 779 392 722 q 351 863 360 836 q 339 897 343 889 q 331 910 335 906 q 309 918 325 917 q 256 919 293 919 q 208 918 221 919 q 189 911 196 917 q 176 892 181 904 q 169 847 171 879 q 168 747 168 815 q 168 623 168 701 q 169 444 168 544 q 172 230 169 343 q 178 0 174 117 l 131 0 m 388 -287 l 388 -250 q 393 -250 390 -250 q 399 -250 396 -250 q 448 -240 435 -250 q 461 -217 461 -231 q 455 -207 461 -208 q 439 -206 449 -206 q 401 -192 415 -206 q 388 -157 388 -179 q 401 -116 388 -132 q 440 -100 414 -100 q 477 -114 461 -100 q 493 -169 493 -128 q 469 -247 493 -211 q 388 -287 444 -283 z "},"Ṅ":{"ha":915,"x_min":131,"x_max":793,"o":"m 131 0 q 135 164 133 100 q 137 270 136 228 q 138 344 138 313 q 139 408 139 375 q 139 486 139 440 q 139 565 139 532 q 139 628 139 597 q 138 702 139 660 q 137 808 138 744 q 135 972 136 872 l 360 972 q 460 598 419 751 q 528 346 501 444 q 572 190 556 247 q 596 106 588 133 q 608 71 604 79 q 617 58 613 63 q 638 51 624 53 q 685 49 653 49 q 723 50 711 49 q 740 57 735 51 q 749 71 746 61 q 755 114 753 81 q 757 221 757 147 q 756 346 757 267 q 754 526 756 425 q 751 742 753 628 q 746 972 749 856 l 793 972 q 790 808 790 872 q 788 702 789 744 q 787 628 788 660 q 786 565 786 597 q 786 486 786 532 q 786 408 786 440 q 786 344 786 375 q 787 270 786 313 q 788 164 788 228 q 790 0 789 100 l 585 0 q 485 372 526 219 q 418 624 444 525 q 376 779 392 722 q 351 863 360 836 q 339 897 343 889 q 331 910 335 906 q 309 918 325 917 q 256 919 293 919 q 208 918 221 919 q 189 911 196 917 q 176 892 181 904 q 169 847 171 879 q 168 747 168 815 q 168 623 168 701 q 169 444 168 544 q 172 230 169 343 q 178 0 174 117 l 131 0 m 465 1075 q 417 1131 417 1075 q 430 1172 417 1158 q 465 1186 443 1186 q 501 1172 488 1186 q 514 1131 514 1158 q 501 1089 514 1103 q 465 1075 488 1075 z "},"Ṇ":{"ha":915,"x_min":131,"x_max":793,"o":"m 131 0 q 135 164 133 100 q 137 270 136 228 q 138 344 138 313 q 139 408 139 375 q 139 486 139 440 q 139 565 139 532 q 139 628 139 597 q 138 702 139 660 q 137 808 138 744 q 135 972 136 872 l 360 972 q 460 598 419 751 q 528 346 501 444 q 572 190 556 247 q 596 106 588 133 q 608 71 604 79 q 617 58 613 63 q 638 51 624 53 q 685 49 653 49 q 723 50 711 49 q 740 57 735 51 q 749 71 746 61 q 755 114 753 81 q 757 221 757 147 q 756 346 757 267 q 754 526 756 425 q 751 742 753 628 q 746 972 749 856 l 793 972 q 790 808 790 872 q 788 702 789 744 q 787 628 788 660 q 786 565 786 597 q 786 486 786 532 q 786 408 786 440 q 786 344 786 375 q 787 270 786 313 q 788 164 788 228 q 790 0 789 100 l 585 0 q 485 372 526 219 q 418 624 444 525 q 376 779 392 722 q 351 863 360 836 q 339 897 343 889 q 331 910 335 906 q 309 918 325 917 q 256 919 293 919 q 208 918 221 919 q 189 911 196 917 q 176 892 181 904 q 169 847 171 879 q 168 747 168 815 q 168 623 168 701 q 169 444 168 544 q 172 230 169 343 q 178 0 174 117 l 131 0 m 442 -242 q 393 -186 393 -242 q 406 -144 393 -158 q 442 -131 419 -131 q 477 -144 464 -131 q 490 -186 490 -158 q 477 -228 490 -214 q 442 -242 464 -242 z "},"Ǹ":{"ha":915,"x_min":131,"x_max":793,"o":"m 131 0 q 135 164 133 100 q 137 270 136 228 q 138 344 138 313 q 139 408 139 375 q 139 486 139 440 q 139 565 139 532 q 139 628 139 597 q 138 702 139 660 q 137 808 138 744 q 135 972 136 872 l 360 972 q 460 598 419 751 q 528 346 501 444 q 572 190 556 247 q 596 106 588 133 q 608 71 604 79 q 617 58 613 63 q 638 51 624 53 q 685 49 653 49 q 723 50 711 49 q 740 57 735 51 q 749 71 746 61 q 755 114 753 81 q 757 221 757 147 q 756 346 757 267 q 754 526 756 425 q 751 742 753 628 q 746 972 749 856 l 793 972 q 790 808 790 872 q 788 702 789 744 q 787 628 788 660 q 786 565 786 597 q 786 486 786 532 q 786 408 786 440 q 786 344 786 375 q 787 270 786 313 q 788 164 788 228 q 790 0 789 100 l 585 0 q 485 372 526 219 q 418 624 444 525 q 376 779 392 722 q 351 863 360 836 q 339 897 343 889 q 331 910 335 906 q 309 918 325 917 q 256 919 293 919 q 208 918 221 919 q 189 911 196 917 q 176 892 181 904 q 169 847 171 879 q 168 747 168 815 q 168 623 168 701 q 169 444 168 544 q 172 230 169 343 q 178 0 174 117 l 131 0 m 440 1071 l 364 1199 l 435 1199 l 483 1071 l 440 1071 z "},"Ɲ":{"ha":989,"x_min":-33,"x_max":867,"o":"m -33 -258 l -33 -200 q 21 -224 -14 -211 q 90 -236 56 -236 q 167 -215 140 -236 q 203 -157 193 -193 q 213 -78 213 -121 q 213 47 213 -6 q 213 143 213 99 q 213 234 213 188 q 213 341 213 281 q 213 486 213 401 q 213 565 213 532 q 213 628 213 597 q 212 702 213 660 q 210 808 211 744 q 208 972 210 872 l 433 972 q 534 598 493 751 q 602 346 575 444 q 645 190 629 247 q 669 106 661 133 q 682 71 678 79 q 690 58 686 63 q 712 51 697 53 q 758 49 726 49 q 797 50 785 49 q 814 57 808 51 q 823 71 819 61 q 828 114 826 81 q 831 221 831 147 q 830 346 831 267 q 828 526 829 425 q 824 742 826 628 q 819 972 822 856 l 867 972 q 863 808 864 872 q 862 702 863 744 q 860 628 861 660 q 860 565 860 597 q 860 486 860 532 q 860 408 860 440 q 860 344 860 375 q 860 270 860 313 q 862 164 861 228 q 864 0 863 100 l 658 0 q 559 372 600 219 q 492 624 518 525 q 449 779 465 722 q 425 863 433 836 q 413 897 417 889 q 404 910 408 906 q 383 918 399 917 q 329 919 367 919 q 282 918 294 919 q 263 911 269 917 q 249 892 254 904 q 243 847 244 879 q 242 747 242 815 q 242 564 242 686 q 243 271 242 442 q 246 -112 244 100 q 232 -200 246 -164 q 190 -257 218 -236 q 144 -280 169 -272 q 92 -287 119 -287 q 27 -278 60 -287 q -33 -258 -6 -269 z "}}}
